<?xml version="1.0" encoding="utf-8"?>
<!-- Generator: Adobe Illustrator 15.0.0, SVG Export Plug-In . SVG Version: 6.00 Build 0)  -->
<!DOCTYPE svg PUBLIC "-//W3C//DTD SVG 1.1//EN" "http://www.w3.org/Graphics/SVG/1.1/DTD/svg11.dtd">
<svg version="1.1" id="Layer_1" xmlns="http://www.w3.org/2000/svg" xmlns:xlink="http://www.w3.org/1999/xlink" x="0px" y="0px"
	 width="50px" height="50px" viewBox="0 0 50 50" enable-background="new 0 0 50 50" xml:space="preserve">
<g>
	<path fill="#C8C8C8" d="M26.327,3.69c-0.73-1.48-1.924-1.48-2.655,0l-5.071,10.277c-0.73,1.48-2.664,2.884-4.296,3.122
		L2.962,18.735c-1.633,0.237-2.002,1.374-0.821,2.525l8.208,8.002c1.181,1.152,1.92,3.426,1.641,5.052l-1.937,11.295
		c-0.279,1.626,0.688,2.329,2.148,1.561l10.145-5.333c1.46-0.769,3.851-0.769,5.311,0l10.146,5.333
		c1.46,0.769,2.427,0.066,2.147-1.561l-1.938-11.295c-0.279-1.627,0.459-3.899,1.641-5.052l8.207-8.002
		c1.182-1.152,0.813-2.288-0.82-2.525l-11.343-1.646c-1.633-0.237-3.566-1.642-4.296-3.122L26.327,3.69z"/>
</g>
</svg>
