<?xml version="1.0" encoding="utf-8"?>
<!-- Generator: Adobe Illustrator 15.0.0, SVG Export Plug-In . SVG Version: 6.00 Build 0)  -->
<!DOCTYPE svg PUBLIC "-//W3C//DTD SVG 1.1//EN" "http://www.w3.org/Graphics/SVG/1.1/DTD/svg11.dtd">
<svg version="1.1" id="Layer_1" xmlns="http://www.w3.org/2000/svg" xmlns:xlink="http://www.w3.org/1999/xlink" x="0px" y="0px"
	 width="30px" height="30px" viewBox="0 0 30 30" enable-background="new 0 0 30 30" xml:space="preserve">
<g id="Layer_2_1_" display="none">
	<g id="Layer_1_2_" display="inline">
		<path fill="#25AEB0" d="M-0.003,30C14.998,30,14.998,0,29.999,0s15,30,30.001,30H-0.003z"/>
	</g>
</g>
<g>
	<path fill="#FFFFFF" d="M11.613,27c0,1.65-1.35,3-3,3H4.22c-1.65,0-3-1.35-3-3V3c0-1.65,1.35-3,3-3h4.393c1.65,0,3,1.35,3,3V27z"/>
</g>
<g>
	<path fill="#FFFFFF" d="M28.779,27c0,1.65-1.35,3-3,3h-4.393c-1.65,0-3-1.35-3-3V3c0-1.65,1.35-3,3-3h4.393c1.65,0,3,1.35,3,3V27z"
		/>
</g>
</svg>
