<?xml version="1.0" encoding="utf-8"?>
<!-- Generator: Adobe Illustrator 15.0.0, SVG Export Plug-In . SVG Version: 6.00 Build 0)  -->
<!DOCTYPE svg PUBLIC "-//W3C//DTD SVG 1.1//EN" "http://www.w3.org/Graphics/SVG/1.1/DTD/svg11.dtd">
<svg version="1.1" xmlns="http://www.w3.org/2000/svg" xmlns:xlink="http://www.w3.org/1999/xlink" x="0px" y="0px" width="50px"
	 height="50px" viewBox="0 0 50 50" enable-background="new 0 0 50 50" xml:space="preserve">
<g id="Layer_1" display="none">
	<g display="inline">
		<path fill="#C8C8C8" d="M26.327,3.69c-0.729-1.48-1.924-1.48-2.655,0l-5.071,10.277c-0.73,1.48-2.664,2.884-4.296,3.122
			L2.962,18.735c-1.633,0.237-2.002,1.374-0.821,2.525l8.208,8.001c1.181,1.152,1.92,3.426,1.641,5.053l-1.937,11.295
			c-0.279,1.625,0.688,2.328,2.148,1.561l10.145-5.333c1.46-0.769,3.851-0.769,5.31,0l10.146,5.333
			c1.461,0.77,2.428,0.066,2.147-1.561l-1.938-11.295c-0.279-1.627,0.459-3.899,1.641-5.053l8.207-8.001
			c1.183-1.152,0.813-2.288-0.819-2.525l-11.343-1.646c-1.633-0.237-3.566-1.642-4.297-3.122L26.327,3.69z"/>
	</g>
</g>
<g id="Layer_2">
	<path fill="#FFFFFF" d="M0,0v50h50V0H0z M35.682,31.019c-1.343,4.132,8.215,14.758,4.7,17.312
		C36.867,50.883,29.346,38.509,25,38.509S13.132,50.885,9.617,48.33c-3.515-2.554,5.934-13.507,4.591-17.639
		C12.865,26.559-1.233,23.2,0.109,19.067c1.343-4.132,14.793,1.387,18.308-1.167s2.239-16.918,6.584-16.918
		c4.345,0,3.157,14.429,6.672,16.983s16.874-3.031,18.217,1.102C51.233,23.2,37.024,26.886,35.682,31.019z"/>
</g>
<g id="Layer_3" display="none">
	<circle display="inline" fill="none" stroke="#009245" stroke-miterlimit="10" cx="25.001" cy="27.153" r="11.355"/>
</g>
</svg>
