<?xml version="1.0" encoding="utf-8"?>
<!-- Generator: Adobe Illustrator 15.0.0, SVG Export Plug-In . SVG Version: 6.00 Build 0)  -->
<!DOCTYPE svg PUBLIC "-//W3C//DTD SVG 1.1//EN" "http://www.w3.org/Graphics/SVG/1.1/DTD/svg11.dtd">
<svg version="1.1" id="Layer_1" xmlns="http://www.w3.org/2000/svg" xmlns:xlink="http://www.w3.org/1999/xlink" x="0px" y="0px"
	 width="298px" height="143.5px" viewBox="0 0 298 143.5" enable-background="new 0 0 298 143.5" xml:space="preserve">
<g>
	<path fill="#FFFFFF" d="M51.09,43.124c0,4.583-1.305,8.093-3.913,10.531c-2.609,2.438-6.376,3.656-11.302,3.656h-7.884V29.47h8.741
		c4.545,0,8.074,1.2,10.588,3.599S51.09,38.82,51.09,43.124z M44.958,43.276c0-5.979-2.641-8.969-7.922-8.969h-3.142v18.129h2.533
		C42.115,52.436,44.958,49.383,44.958,43.276z"/>
	<path fill="#FFFFFF" d="M62.764,46.628v10.683H56.86V29.47h8.112c3.783,0,6.583,0.689,8.398,2.066s2.723,3.469,2.723,6.274
		c0,1.638-0.451,3.095-1.352,4.37c-0.901,1.276-2.177,2.276-3.828,3c4.189,6.259,6.919,10.302,8.188,12.13h-6.551l-6.646-10.683
		H62.764z M62.764,41.829h1.904c1.866,0,3.244-0.311,4.132-0.933s1.333-1.6,1.333-2.933c0-1.32-0.454-2.26-1.361-2.818
		c-0.908-0.559-2.314-0.838-4.218-0.838h-1.79V41.829z"/>
	<path fill="#FFFFFF" d="M107.876,43.353c0,4.608-1.143,8.15-3.428,10.626s-5.561,3.713-9.826,3.713s-7.541-1.238-9.826-3.713
		s-3.428-6.03-3.428-10.664s1.146-8.172,3.438-10.617c2.291-2.443,5.576-3.666,9.854-3.666s7.551,1.231,9.816,3.694
		C106.744,35.189,107.876,38.731,107.876,43.353z M87.558,43.353c0,3.11,0.59,5.453,1.771,7.027s2.945,2.361,5.294,2.361
		c4.71,0,7.065-3.129,7.065-9.388c0-6.271-2.342-9.407-7.027-9.407c-2.349,0-4.12,0.791-5.313,2.371
		C88.154,37.897,87.558,40.242,87.558,43.353z"/>
	<path fill="#FFFFFF" d="M140.764,57.311h-6.722l-3.771-14.625c-0.14-0.521-0.378-1.596-0.714-3.228
		c-0.337-1.631-0.53-2.727-0.581-3.285c-0.076,0.686-0.267,1.787-0.571,3.304c-0.305,1.518-0.54,2.6-0.705,3.247l-3.751,14.587
		h-6.703l-7.103-27.841h5.808l3.561,15.196c0.622,2.806,1.073,5.237,1.352,7.293c0.076-0.724,0.25-1.844,0.523-3.361
		s0.53-2.695,0.771-3.533l4.056-15.596h5.58l4.056,15.596c0.178,0.698,0.4,1.765,0.667,3.199s0.47,2.666,0.609,3.694
		c0.127-0.99,0.33-2.225,0.609-3.704s0.533-2.676,0.762-3.59l3.542-15.196h5.808L140.764,57.311z"/>
	<path fill="#FFFFFF" d="M176.05,57.311h-7.503L156.436,36.25h-0.171c0.241,3.72,0.362,6.373,0.362,7.96v13.102h-5.275V29.47h7.446
		l12.092,20.852h0.133c-0.19-3.618-0.286-6.176-0.286-7.674V29.47h5.313V57.311z"/>
</g>
<g>
	<path fill="#FFFFFF" d="M185.414,42.248l25.708-10.378v-0.152c-1.574,0.102-3.187,0.152-4.837,0.152h-20.871v-1.866h27.841v3.009
		l-24.489,9.864v0.114l24.489,9.864v2.933h-27.841v-1.961h21.1c1.473,0,2.996,0.076,4.57,0.229v-0.152l-25.67-10.417V42.248z"/>
	<path fill="#FFFFFF" d="M195.24,88.758V77.447l-9.826-3.885V71.41l27.955,11.197v1.238l-27.955,10.969v-2.19L195.24,88.758z
		 M196.992,78.151v9.959l10.036-3.79c0.787-0.317,1.879-0.698,3.275-1.143c-1.219-0.343-2.323-0.717-3.313-1.124L196.992,78.151z"/>
	<path fill="#FFFFFF" d="M185.414,118.999v-1.961l24.718-16.491v-0.152c-2.945,0.152-5.167,0.229-6.665,0.229h-18.053v-1.866h27.841
		v1.942l-24.68,16.472v0.114c2.285-0.114,4.456-0.171,6.513-0.171h18.167v1.885H185.414z"/>
</g>
<g>
	<g>
		<g id="Layer_1_50_">
			<g>
				
					<path fill="none" stroke="#89CCCC" stroke-width="9" stroke-linecap="round" stroke-linejoin="round" stroke-miterlimit="10" d="
					M111.853,56.322c0,6.401-7.787,11.589-17.391,11.589"/>
				
					<path fill="none" stroke="#89CCCC" stroke-width="9" stroke-linecap="round" stroke-linejoin="round" stroke-miterlimit="10" d="
					M94.462,67.912"/>
			</g>
			<g id="Layer_2_49_">
			</g>
			<g id="Layer_3_49_" display="none">
				<g display="inline">
					
						<path fill="none" stroke="#89CCCC" stroke-width="9" stroke-linecap="round" stroke-linejoin="round" stroke-miterlimit="10" d="
						M59.681,56.322c5.418,0,7.803,4.934,8.686,5.786c1.217,1.173,3.307,5.803,8.705,5.803c4.709,0,6.872-3.514,8.695-5.794
						c1.484-1.859,3.78-5.8,8.695-5.8c3.84,0,6.612,2.612,8.695,5.8c2.844,4.351,5.651,5.794,8.695,5.794"/>
				</g>
			</g>
		</g>
		<g id="Layer_1_49_">
			<g>
				
					<path fill="none" stroke="#89CCCC" stroke-width="9" stroke-linecap="round" stroke-linejoin="round" stroke-miterlimit="10" d="
					M146.632,56.322c0,6.401-7.785,11.589-17.391,11.589"/>
				
					<path fill="none" stroke="#89CCCC" stroke-width="9" stroke-linecap="round" stroke-linejoin="round" stroke-miterlimit="10" d="
					M129.242,67.912c-9.604,0-17.389-5.188-17.389-11.589"/>
			</g>
			<g id="Layer_2_48_">
			</g>
			<g id="Layer_3_48_" display="none">
				<g display="inline">
					
						<path fill="none" stroke="#89CCCC" stroke-width="9" stroke-linecap="round" stroke-linejoin="round" stroke-miterlimit="10" d="
						M94.462,56.322c5.416,0,7.801,4.934,8.686,5.786c1.217,1.173,3.307,5.803,8.705,5.803c4.709,0,6.872-3.514,8.695-5.794
						c1.484-1.859,3.78-5.8,8.693-5.8c3.842,0,6.613,2.612,8.695,5.8c2.845,4.351,5.652,5.794,8.695,5.794"/>
				</g>
			</g>
		</g>
		<g id="Layer_1_48_">
			<g>
				
					<path fill="none" stroke="#89CCCC" stroke-width="9" stroke-linecap="round" stroke-linejoin="round" stroke-miterlimit="10" d="
					M164.023,67.912"/>
				
					<path fill="none" stroke="#89CCCC" stroke-width="9" stroke-linecap="round" stroke-linejoin="round" stroke-miterlimit="10" d="
					M164.023,67.912c-9.604,0-17.391-5.188-17.391-11.589"/>
			</g>
			<g id="Layer_2_47_">
			</g>
			<g id="Layer_3_47_" display="none">
				<g display="inline">
					
						<path fill="none" stroke="#89CCCC" stroke-width="9" stroke-linecap="round" stroke-linejoin="round" stroke-miterlimit="10" d="
						M129.242,56.322c5.418,0,7.803,4.934,8.688,5.786c1.216,1.173,3.306,5.803,8.703,5.803c4.711,0,6.873-3.514,8.695-5.794
						c1.486-1.859,3.781-5.8,8.695-5.8c3.84,0,6.611,2.612,8.695,5.8c2.844,4.351,5.652,5.794,8.695,5.794"/>
				</g>
			</g>
		</g>
	</g>
	<g>
		<g id="Layer_1_47_">
			<g>
				
					<path fill="none" stroke="#89CCCC" stroke-width="9" stroke-linecap="round" stroke-linejoin="round" stroke-miterlimit="10" d="
					M181.414,56.322c0,6.401-7.786,11.589-17.391,11.589"/>
				
					<path fill="none" stroke="#89CCCC" stroke-width="9" stroke-linecap="round" stroke-linejoin="round" stroke-miterlimit="10" d="
					M164.023,67.912"/>
			</g>
			<g id="Layer_2_46_">
			</g>
			<g id="Layer_3_46_" display="none">
				<g display="inline">
					
						<path fill="none" stroke="#89CCCC" stroke-width="9" stroke-linecap="round" stroke-linejoin="round" stroke-miterlimit="10" d="
						M129.242,56.322c5.418,0,7.803,4.934,8.688,5.786c1.216,1.173,3.306,5.803,8.703,5.803c4.711,0,6.873-3.514,8.695-5.794
						c1.486-1.859,3.781-5.8,8.695-5.8c3.84,0,6.611,2.612,8.695,5.8c2.844,4.351,5.652,5.794,8.695,5.794"/>
				</g>
			</g>
		</g>
		<g id="Layer_1_46_">
			<g>
				
					<path fill="none" stroke="#89CCCC" stroke-width="9" stroke-linecap="round" stroke-linejoin="round" stroke-miterlimit="10" d="
					M216.194,56.322c0,6.401-7.786,11.589-17.39,11.589"/>
				
					<path fill="none" stroke="#89CCCC" stroke-width="9" stroke-linecap="round" stroke-linejoin="round" stroke-miterlimit="10" d="
					M198.804,67.912c-9.604,0-17.391-5.188-17.391-11.589"/>
			</g>
			<g id="Layer_2_45_">
			</g>
			<g id="Layer_3_45_" display="none">
				<g display="inline">
					
						<path fill="none" stroke="#89CCCC" stroke-width="9" stroke-linecap="round" stroke-linejoin="round" stroke-miterlimit="10" d="
						M164.023,56.322c5.417,0,7.802,4.934,8.686,5.786c1.217,1.173,3.307,5.803,8.705,5.803c4.709,0,6.872-3.514,8.695-5.794
						c1.485-1.859,3.78-5.8,8.695-5.8c3.84,0,6.611,2.612,8.695,5.8c2.844,4.351,5.65,5.794,8.694,5.794"/>
				</g>
			</g>
		</g>
		<g id="Layer_1_45_">
			<g>
				
					<path fill="none" stroke="#89CCCC" stroke-width="9" stroke-linecap="round" stroke-linejoin="round" stroke-miterlimit="10" d="
					M233.584,67.912"/>
				
					<path fill="none" stroke="#89CCCC" stroke-width="9" stroke-linecap="round" stroke-linejoin="round" stroke-miterlimit="10" d="
					M233.584,67.912c-9.604,0-17.391-5.188-17.391-11.589"/>
			</g>
			<g id="Layer_2_44_">
			</g>
			<g id="Layer_3_44_" display="none">
				<g display="inline">
					
						<path fill="none" stroke="#89CCCC" stroke-width="9" stroke-linecap="round" stroke-linejoin="round" stroke-miterlimit="10" d="
						M198.804,56.322c5.416,0,7.801,4.934,8.686,5.786c1.216,1.173,3.306,5.803,8.704,5.803c4.71,0,6.873-3.514,8.695-5.794
						c1.485-1.859,3.78-5.8,8.695-5.8c3.84,0,6.612,2.612,8.694,5.8c2.845,4.351,5.652,5.794,8.696,5.794"/>
				</g>
			</g>
		</g>
	</g>
	<g>
		<g id="Layer_1_44_">
			<g>
				
					<path fill="none" stroke="#89CCCC" stroke-width="9" stroke-linecap="round" stroke-linejoin="round" stroke-miterlimit="10" d="
					M250.975,56.322c0,6.401-7.786,11.589-17.39,11.589"/>
				
					<path fill="none" stroke="#89CCCC" stroke-width="9" stroke-linecap="round" stroke-linejoin="round" stroke-miterlimit="10" d="
					M233.585,67.912"/>
			</g>
			<g id="Layer_2_43_">
			</g>
			<g id="Layer_3_43_" display="none">
				<g display="inline">
					
						<path fill="none" stroke="#89CCCC" stroke-width="9" stroke-linecap="round" stroke-linejoin="round" stroke-miterlimit="10" d="
						M198.804,56.322c5.416,0,7.802,4.934,8.686,5.786c1.217,1.173,3.307,5.803,8.705,5.803c4.709,0,6.872-3.514,8.695-5.794
						c1.484-1.859,3.779-5.8,8.695-5.8c3.839,0,6.611,2.612,8.693,5.8c2.845,4.351,5.652,5.794,8.696,5.794"/>
				</g>
			</g>
		</g>
		<g id="Layer_1_43_">
			<g>
				
					<path fill="none" stroke="#89CCCC" stroke-width="9" stroke-linecap="round" stroke-linejoin="round" stroke-miterlimit="10" d="
					M268.366,67.912"/>
				
					<path fill="none" stroke="#89CCCC" stroke-width="9" stroke-linecap="round" stroke-linejoin="round" stroke-miterlimit="10" d="
					M268.366,67.912c-9.604,0-17.391-5.188-17.391-11.589"/>
			</g>
			<g id="Layer_2_42_">
			</g>
			<g id="Layer_3_42_" display="none">
				<g display="inline">
					
						<path fill="none" stroke="#89CCCC" stroke-width="9" stroke-linecap="round" stroke-linejoin="round" stroke-miterlimit="10" d="
						M233.585,56.322c5.416,0,7.801,4.934,8.685,5.786c1.218,1.173,3.308,5.803,8.705,5.803c4.71,0,6.872-3.514,8.694-5.794
						c1.486-1.859,3.781-5.8,8.696-5.8c3.84,0,6.61,2.612,8.694,5.8c2.846,4.351,5.652,5.794,8.695,5.794"/>
				</g>
			</g>
		</g>
		<g id="Layer_1_42_">
			<g>
				
					<path fill="none" stroke="#89CCCC" stroke-width="9" stroke-linecap="round" stroke-linejoin="round" stroke-miterlimit="10" d="
					M303.145,67.912"/>
			</g>
			<g id="Layer_2_41_">
			</g>
			<g id="Layer_3_41_" display="none">
				<g display="inline">
					
						<path fill="none" stroke="#89CCCC" stroke-width="9" stroke-linecap="round" stroke-linejoin="round" stroke-miterlimit="10" d="
						M268.366,56.322c5.415,0,7.802,4.934,8.686,5.786c1.216,1.173,3.308,5.803,8.704,5.803c4.711,0,6.874-3.514,8.695-5.794
						c1.485-1.859,3.779-5.8,8.694-5.8c3.84,0,6.612,2.612,8.696,5.8c2.845,4.351,5.652,5.794,8.695,5.794"/>
				</g>
			</g>
		</g>
	</g>
</g>
</svg>
