<?xml version="1.0" encoding="utf-8"?>
<!-- Generator: Adobe Illustrator 21.1.0, SVG Export Plug-In . SVG Version: 6.00 Build 0)  -->
<svg version="1.1" id="Layer_1" xmlns="http://www.w3.org/2000/svg" xmlns:xlink="http://www.w3.org/1999/xlink" x="0px" y="0px"
	 viewBox="0 0 120 120" style="enable-background:new 0 0 120 120;" xml:space="preserve">
<style type="text/css">
	.st0{fill:#0E7DA2;}
	.st1{fill:#FFFFFF;}
	.st2{fill:#EDE708;}
</style>
<g>
	<g>
		<g>
			<g>
				<path class="st0" d="M95.2,82L83,55.3l-6.1-2.4l14.1,31c3.1,6.8,0.1,14.8-6.7,17.9l-27.5,12.5c-1.8,0.8-3.7,1.2-5.6,1.2
					c-5.1,0-10.1-2.9-12.3-7.9L6.4,36.1c-3.1-6.8-0.1-14.8,6.7-17.9L40.6,5.7c1.8-0.8,3.7-1.2,5.6-1.2c5.1,0,10.1,2.9,12.3,7.9
					l8.1,17.7l1.9-6.8l-5.9-12.8C59.7,4.1,53.2,0,46.2,0h0c-2.6,0-5.1,0.5-7.4,1.6L11.3,14.1c-4.4,2-7.7,5.6-9.4,10.1
					S0.4,33.6,2.4,38l32.6,71.5c2.9,6.4,9.4,10.5,16.4,10.5c2.6,0,5.1-0.5,7.4-1.6l27.5-12.5C95.3,101.7,99.3,91,95.2,82z"/>
				<g>
					<g>
						<g>
							<line class="st1" x1="8.7" y1="41" x2="60.7" y2="17.3"/>
						</g>
					</g>
					<g>
						<g>
							<path class="st0" d="M8.7,43.3c-0.9,0-1.7-0.5-2-1.3c-0.5-1.1,0-2.5,1.1-3l52-23.7c1.1-0.5,2.5,0,3,1.1c0.5,1.1,0,2.5-1.1,3
								l-52,23.7C9.3,43.2,9,43.3,8.7,43.3z"/>
						</g>
					</g>
				</g>
				<g>
					<g>
						<g>
							<line class="st1" x1="37.3" y1="103.8" x2="89.4" y2="80.1"/>
						</g>
					</g>
					<g>
						<g>
							<path class="st0" d="M37.3,106c-0.9,0-1.7-0.5-2-1.3c-0.5-1.1,0-2.5,1.1-3l52-23.7c1.1-0.5,2.5,0,3,1.1c0.5,1.1,0,2.5-1.1,3
								l-52,23.7C37.9,106,37.6,106,37.3,106z"/>
						</g>
					</g>
				</g>
				<g>
					<g>
						<g>
							<line class="st1" x1="22" y1="23.3" x2="38.6" y2="15.7"/>
						</g>
					</g>
					<g>
						<g>
							<path class="st0" d="M22,25.5c-0.9,0-1.7-0.5-2-1.3c-0.5-1.1,0-2.5,1.1-3l16.6-7.6c1.1-0.5,2.5,0,3,1.1c0.5,1.1,0,2.5-1.1,3
								l-16.6,7.6C22.6,25.5,22.3,25.5,22,25.5z"/>
						</g>
					</g>
				</g>
				<g>
					<g>
						<g>
							
								<ellipse transform="matrix(0.9098 -0.415 0.415 0.9098 -36.05 37.2749)" class="st0" cx="67.7" cy="101.6" rx="3.8" ry="3.8"/>
						</g>
					</g>
				</g>
			</g>
			<g>
				<g>
					<path class="st1" d="M48.7,54.5"/>
				</g>
			</g>
			<g>
				<g>
					<path class="st1" d="M48.9,70.1"/>
				</g>
			</g>
			<g>
				<g>
					<path class="st1" d="M48.7,54.5"/>
				</g>
			</g>
			<g>
				<g>
					<path class="st1" d="M48.7,54.5"/>
				</g>
			</g>
		</g>
	</g>
	<g>
		<g>
			<g>
				<g>
					<path class="st0" d="M91.8,59.3c-4,0-8-0.9-11.8-2.7c-13.6-6.5-19.4-23-12.8-36.6c6.5-13.6,23-19.4,36.6-12.8
						c13.6,6.5,19.4,23,12.8,36.6l0,0C111.9,53.6,102,59.3,91.8,59.3z M91.9,9.6c-8.3,0-16.3,4.7-20.2,12.7
						C66.4,33.3,71.1,46.7,82.2,52c11.1,5.3,24.5,0.6,29.8-10.5c5.3-11.1,0.6-24.5-10.5-29.8C98.4,10.3,95.1,9.6,91.9,9.6z"/>
				</g>
			</g>
		</g>
		<g>
			<g>
				<path class="st0" d="M91.9,37C91.8,37,91.8,37,91.9,37c-1.5,0-2.6-1.2-2.5-2.6L89.7,15c0-1.4,1.2-2.5,2.6-2.5
					c1.4,0,2.5,1.2,2.5,2.6l-0.4,19.4C94.4,35.9,93.2,37,91.9,37z"/>
			</g>
		</g>
		<g>
			<g>
				<path class="st0" d="M91.9,37c-1.4,0-2.5-1.1-2.5-2.5c0-1.4,1.1-2.5,2.5-2.6l14.1-0.1c0,0,0,0,0,0c1.4,0,2.5,1.1,2.5,2.5
					c0,1.4-1.1,2.5-2.5,2.6L91.9,37C91.9,37,91.9,37,91.9,37z"/>
			</g>
		</g>
	</g>
	<g>
		<g>
			<g>
				<path class="st2" d="M39.7,66.7c-0.4-1-0.7-1.9-0.6-2c0.1-0.1,2.2-1.1,4.8-2.3l4.7-2l0.5,0.9l0.2,0.5c0.7,1.6,1.4,4.5,1.5,6.3
					c0.3,4.2-2.8,7.9-6.8,9.6c-4.6,2-10.6,1.3-14-4.2c-0.4-0.7-0.8-1.5-1.2-2.3c-1.3-3-2.1-6.9-1.9-9.6c0.5-7.6,6.8-10.3,7.7-10.7
					l0,0c0.6-0.3,7.7-3.2,11.8,3.4c0.4,0.7,1,1.8,1.2,2.2L45,58l-4.2,2.2l-0.3-0.5c-0.5-1.1-1.9-1.5-3.2-0.9
					c-1.1,0.5-2.1,1.6-2.2,3.5c-0.1,1.7,0.3,3.5,0.9,5.1c0.9,2,2.2,3.6,3.5,3.8c0.6,0.1,1.2,0,1.7-0.3c1.4-0.6,2.2-1.9,1.6-3.2
					l-1.2,0.5l-1.2,0.4L39.7,66.7z"/>
			</g>
		</g>
		<g>
			<g>
				<path class="st2" d="M46.4,51.8c-0.7-1.7-1.2-2.8-1.2-2.9c0,0,2.3-1.6,6.3-3.3c5.9-2.5,11.2-4.8,13.7,1.1
					c0.7,1.7,1.3,4.2,0.3,5.7c2,0.3,4.2,1.3,5.4,4.3l0.1,0.2c2.1,4.9,0.5,7.8-3.1,9.8c-3,1.7-6.3,3.2-8.8,4.3
					c-1.8,0.8-3.2,1.3-3.5,1.4l-0.1,0C54.1,69.8,48.8,57.5,46.4,51.8z M59,50.9c-0.7-1.6-2.7-0.8-4-0.3l-0.1,0.1l-1.2,0.5l0.5,0.9
					l1.3,2.9C59.4,53.2,59.7,52.4,59,50.9z M58.9,59.5L57.7,60l1.1,2.3c1,2.1,1.1,2.1,1.7,1.9l0.2-0.1l0.4-0.2
					c1.1-0.5,3.5-1.7,2.5-4C63.1,58.5,62.2,58,58.9,59.5z"/>
			</g>
		</g>
	</g>
</g>
</svg>
