<?xml version="1.0" encoding="utf-8"?>
<!-- Generator: Adobe Illustrator 21.1.0, SVG Export Plug-In . SVG Version: 6.00 Build 0)  -->
<svg version="1.1" id="Layer_1" xmlns="http://www.w3.org/2000/svg" xmlns:xlink="http://www.w3.org/1999/xlink" x="0px" y="0px"
	 viewBox="0 0 120 120" style="enable-background:new 0 0 120 120;" xml:space="preserve">
<style type="text/css">
	.st0{fill:#0E7DA2;}
	.st1{fill:#EDE708;}
	.st2{fill:#FFFFFF;}
</style>
<g>
	<g>
		<path class="st0" d="M113.7,0H43.6c-3.5,0-6.3,2.8-6.3,6.3v23.4l4.3,2.1V6.3c0-1.1,0.9-2,2-2h70.1c1.1,0,2,0.9,2,2v70.5L90.4,102
			h-20c-0.6,1.5-1.6,3-3,4.3h23.9c0.6,0,1.1-0.2,1.5-0.6L120,78.6V6.3C120,2.8,117.2,0,113.7,0z"/>
		<path class="st0" d="M101.7,61.2H58.6l1.9,4.3h41.3c1.2,0,2.1-1,2.1-2.1C103.9,62.2,102.9,61.2,101.7,61.2z"/>
		<path class="st0" d="M101.7,53.4H55.5c-1.2,0-2.1-1-2.1-2.1c0-1.2,1-2.1,2.1-2.1h46.2c1.2,0,2.1,1,2.1,2.1
			C103.9,52.4,102.9,53.4,101.7,53.4"/>
		<path class="st0" d="M81.8,74H64.2l1.9,4.3h15.7c1.2,0,2.1-1,2.1-2.1S82.9,74,81.8,74z"/>
		<path class="st1" d="M92.2,35.6c0.2,0,3.8,0,3.9,0l0,1.8v0.1c0,0.9-0.2,1.6-0.2,1.6c0,0-1,0-1.4,0c-0.4,0-2.2,0-2.9,0l-3.3,0
			c0,0-0.1-0.5-0.1-1.3c0-0.2,0-0.4,0-0.6l0.1-1.6l3.3-5.8h-0.1c-0.8,0-2.5-0.1-3-0.1c-0.4,0-0.7,0-0.7,0c0,0-0.2-0.8-0.2-1.7v-0.2
			l0.1-1.5l7.7,0.2l0.1,1.1c0,0.3,0,0.6,0,0.9c0,0.5,0,0.9,0,0.9c-0.1,0.1-1,1.9-1.6,2.8c-0.2,0.3-1.1,1.9-1.8,3.4H92.2z"/>
		<path class="st1" d="M99,39.4c-1.3,0-2.5,0-2.5-0.1c0-0.1,0-2.2,0-5.1l-0.1,0.1l-0.6-1.2l0.7-0.3v-0.2l0-6.2h4.3l-0.1,2.4
			c0,0.8-0.1,0.9-0.1,1.3c0,0.2,0,0.5,0,0.7l2-1c0.7,1.2,0.5,0.8,0.7,1.1l-2.7,1.3v0.5c0,1.6,0.1,2.3,0.1,3.3
			c1.6-0.1,2.6-0.1,4.2-0.1l0.1,3.5C104.4,39.4,100.6,39.4,99,39.4"/>
		<line class="st2" x1="5.5" y1="58.4" x2="46" y2="40.7"/>
		<line class="st2" x1="26.8" y1="107.3" x2="67.4" y2="89.6"/>
		<line class="st2" x1="16" y1="44.8" x2="29" y2="39.2"/>
		<path class="st0" d="M34.1,31.4c5,0,9.7,2.9,11.8,7.7l22.3,51.2c2.8,6.5-0.2,14.1-6.7,17l-16.9,7.4c-1.7,0.7-3.4,1.1-5.1,1.1
			c-5,0-9.7-2.9-11.8-7.7L5.4,56.8c-2.8-6.5,0.2-14.1,6.7-17L29,32.5C30.6,31.7,32.4,31.4,34.1,31.4 M34.1,27.1L34.1,27.1
			c-2.4,0-4.7,0.5-6.8,1.4l-16.9,7.4c-4.2,1.8-7.4,5.2-9.1,9.5c-1.7,4.3-1.6,8.9,0.2,13.1l22.3,51.2c2.7,6.3,8.9,10.3,15.8,10.3
			c2.4,0,4.7-0.5,6.8-1.4l16.9-7.4c4.2-1.8,7.4-5.2,9.1-9.5c1.7-4.3,1.6-8.9-0.2-13.1L49.9,37.4C47.1,31.1,40.9,27.1,34.1,27.1"/>
		<path class="st0" d="M16.6,47c-0.8,0-1.6-0.5-2-1.3c-0.5-1.1,0-2.4,1.1-2.8l13-5.6c1.1-0.5,2.4,0,2.8,1.1c0.5,1.1,0,2.4-1.1,2.8
			l-13,5.6C17.2,46.9,16.9,47,16.6,47"/>
		<path class="st0" d="M53.7,104.7c0.7,1.5,0,3.2-1.5,3.9c-1.5,0.7-3.2,0-3.9-1.5c-0.7-1.5,0-3.2,1.5-3.9S53,103.2,53.7,104.7"/>
		<path class="st0" d="M6.1,60.5c-0.8,0-1.6-0.5-2-1.3c-0.5-1.1,0-2.4,1.1-2.8l40.5-17.7c1.1-0.5,2.4,0,2.8,1.1
			c0.5,1.1,0,2.4-1.1,2.8L6.9,60.3C6.7,60.5,6.4,60.5,6.1,60.5"/>
		<path class="st0" d="M27.4,109.4c-0.8,0-1.6-0.5-2-1.3c-0.5-1.1,0-2.4,1.1-2.8l40.5-17.7c1.1-0.5,2.4,0,2.8,1.1
			c0.5,1.1,0,2.4-1.1,2.8l-40.5,17.7C28,109.3,27.7,109.4,27.4,109.4"/>
		<g>
			<path class="st0" d="M115.7,76.8L90.4,102v-13c0-6.8,5.5-12.3,12.3-12.3H115.7 M115.7,72.5h-13c-9.1,0-16.5,7.4-16.5,16.5v13
				c0,1.7,1,3.3,2.6,3.9c0.5,0.2,1.1,0.3,1.6,0.3c1.1,0,2.2-0.4,3-1.2l25.3-25.3c1.2-1.2,1.6-3.1,0.9-4.6
				C119,73.6,117.4,72.5,115.7,72.5L115.7,72.5z"/>
		</g>
		<g>
			<path class="st1" d="M74.2,40.5c-2.8,0-5-0.8-6.6-2.5c-1.6-1.7-2.5-4-2.6-7c0-0.2,0-0.5,0-0.9c0-1.9,0.2-3.6,0.6-5
				c0.4-1.4,1-2.6,1.6-3.5c0.7-0.9,1.5-1.6,2.4-2.1c0.9-0.5,1.8-0.9,2.7-1.1c0.9-0.2,1.8-0.3,2.7-0.3c1.3,0,2.5,0.2,3.6,0.7
				c1,0.5,1.9,1.1,2.5,1.8c0.6,0.7,1.1,1.6,1.6,2.5c0.4,1,0.7,1.9,0.8,2.8c0.2,0.9,0.2,1.8,0.2,2.7c0,1.5-0.2,2.9-0.5,4.3
				c-0.3,1.3-0.9,2.6-1.6,3.7c-0.7,1.2-1.7,2.1-3,2.7C77.3,40.1,75.9,40.5,74.2,40.5z M71.8,29.2c0,0.5,0.1,1.2,0.2,1.9
				c0.2,0.7,0.4,1.4,0.8,2c0.4,0.6,0.8,1,1.3,1h0.2c0.6,0,1.1-0.2,1.5-0.5c0.4-0.4,0.7-0.8,1-1.3c0.2-0.5,0.4-1,0.5-1.5
				c0.1-0.5,0.2-0.9,0.2-1.3c0-1.3-0.2-2.5-0.7-3.4c-0.5-0.9-1.1-1.4-1.9-1.4C72.8,24.5,71.8,26.1,71.8,29.2z"/>
		</g>
	</g>
	<path class="st1" d="M33.6,87.1c-7.6-1.5-12.6-9-11.1-16.6c1.5-7.6,9-12.6,16.6-11.1c7.6,1.5,12.6,9,11.1,16.6
		C48.7,83.7,41.2,88.7,33.6,87.1 M38.6,62.2c-6.1-1.2-12.1,2.8-13.3,8.9C24,77.2,28,83.2,34.1,84.4c6.1,1.2,12.1-2.8,13.3-8.9
		C48.7,69.4,44.7,63.4,38.6,62.2"/>
	<path class="st1" d="M29.2,85.3c-0.1,0-0.3-0.1-0.4-0.2c-0.5-0.3-0.6-1-0.3-1.5l15-21.4c0.3-0.5,1-0.6,1.5-0.3
		c0.5,0.3,0.6,1,0.3,1.5l-15,21.4C30.1,85.2,29.6,85.4,29.2,85.3"/>
</g>
</svg>
