<?xml version="1.0" encoding="utf-8"?>
<!-- Generator: Adobe Illustrator 21.1.0, SVG Export Plug-In . SVG Version: 6.00 Build 0)  -->
<svg version="1.1" id="Layer_1" xmlns="http://www.w3.org/2000/svg" xmlns:xlink="http://www.w3.org/1999/xlink" x="0px" y="0px"
	 viewBox="0 0 120 120" style="enable-background:new 0 0 120 120;" xml:space="preserve">
<style type="text/css">
	.st0{fill:#007CA5;}
	.st1{fill:#F2E400;}
</style>
<g>
	<g>
		<g>
			<g>
				<path class="st1" d="M79.6,4.8c0,0.4-0.2,0.8-0.5,1.1l-2,1.5l0.8,2.4c0.2,0.5,0,1.1-0.4,1.5c-0.2,0.2-0.5,0.3-0.8,0.3
					c-0.3,0-0.5-0.1-0.8-0.2l-2.1-1.5l-2,1.6c-0.2,0.2-0.5,0.3-0.8,0.3c-0.3,0-0.5-0.1-0.8-0.2c-0.5-0.3-0.7-0.9-0.5-1.5l0.7-2.4
					l-2.1-1.5c-0.5-0.3-0.7-0.9-0.5-1.4c0.2-0.5,0.7-0.9,1.2-0.9l2.5-0.1l0.7-2.4c0.2-0.5,0.7-0.9,1.2-0.9l0,0
					c0.6,0,1.1,0.3,1.3,0.9l0.8,2.4l2.6-0.1C79,3.5,79.6,4,79.6,4.8z"/>
			</g>
			<g>
				<path class="st0" d="M73.6,1.4l1.2,3.5l3.7-0.1L75.6,7l1.2,3.5l-3-2.1l-2.9,2.2l1.1-3.5l-3-2.1l3.7-0.1L73.6,1.4 M78.5,4.7
					L78.5,4.7 M73.6,0L73.6,0c-0.6,0-1.1,0.4-1.3,1l-0.8,2.6l-2.7,0.1c-0.6,0-1.1,0.4-1.3,1c-0.2,0.6,0,1.2,0.5,1.5l2.2,1.5
					l-0.8,2.6c-0.2,0.6,0,1.2,0.5,1.5c0.2,0.2,0.5,0.2,0.8,0.2c0.3,0,0.6-0.1,0.8-0.3l2.1-1.6l2.2,1.5c0.2,0.2,0.5,0.2,0.8,0.2
					c0.3,0,0.6-0.1,0.8-0.3c0.5-0.4,0.7-1,0.5-1.5l-0.9-2.5l2.1-1.6c0.4-0.3,0.6-0.7,0.6-1.1c0-0.8-0.6-1.4-1.4-1.3l0,0l-2.7,0.1
					l-0.9-2.5C74.7,0.4,74.2,0,73.6,0"/>
			</g>
		</g>
		<g>
			<g>
				<path class="st1" d="M94.4,8.8c0,0.4-0.2,0.8-0.5,1.1L92,11.3l0.8,2.3c0.2,0.5,0,1.1-0.4,1.4c-0.2,0.2-0.5,0.3-0.7,0.3
					c-0.3,0-0.5-0.1-0.8-0.2l-2-1.4l-2,1.5c-0.2,0.2-0.5,0.3-0.7,0.3c-0.3,0-0.5-0.1-0.8-0.2c-0.5-0.3-0.7-0.9-0.5-1.4l0.7-2.4
					l-2-1.4c-0.5-0.3-0.7-0.9-0.5-1.4c0.2-0.5,0.6-0.9,1.2-0.9l2.5-0.1l0.7-2.4c0.2-0.5,0.6-0.9,1.2-0.9c0.6,0,1.1,0.3,1.2,0.9
					l0.8,2.3l2.5-0.1C93.8,7.5,94.4,8.1,94.4,8.8z"/>
			</g>
			<g>
				<path class="st0" d="M88.6,5.4l1.2,3.5l3.7-0.1L90.6,11l1.2,3.5l-3-2.1l-2.9,2.2l1.1-3.5l-3-2.1l3.7-0.1L88.6,5.4 M93.5,8.7
					L93.5,8.7 M88.6,4c-0.6,0-1.1,0.4-1.3,1l-0.8,2.6l-2.7,0.1c-0.6,0-1.1,0.4-1.3,1c-0.2,0.6,0,1.2,0.5,1.5l2.2,1.5l-0.8,2.6
					c-0.2,0.6,0,1.2,0.5,1.5c0.2,0.2,0.5,0.2,0.8,0.2c0.3,0,0.6-0.1,0.8-0.3l2.1-1.6l2.2,1.5c0.2,0.2,0.5,0.2,0.8,0.2
					c0.3,0,0.6-0.1,0.8-0.3c0.5-0.4,0.7-1,0.5-1.5l-0.9-2.5l2.1-1.6c0.4-0.3,0.6-0.7,0.6-1.1c0-0.8-0.6-1.4-1.4-1.3l0,0l-2.7,0.1
					l-0.9-2.5C89.7,4.3,89.2,4,88.6,4"/>
			</g>
		</g>
		<g>
			<g>
				<path class="st1" d="M93.5,58.3c0,0.4-0.2,0.8-0.5,1.1l-2,1.5l0.8,2.4c0.2,0.5,0,1.1-0.4,1.4c-0.2,0.2-0.5,0.3-0.8,0.3
					c-0.3,0-0.5-0.1-0.8-0.2l-2.1-1.4l-2,1.5c-0.2,0.2-0.5,0.3-0.7,0.3c-0.3,0-0.5-0.1-0.8-0.2c-0.5-0.3-0.7-0.9-0.5-1.4l0.7-2.4
					l-2.1-1.4c-0.5-0.3-0.7-0.9-0.5-1.4c0.2-0.5,0.6-0.9,1.2-0.9l2.5-0.1l0.7-2.4c0.2-0.5,0.6-0.9,1.2-0.9c0.6,0,1.1,0.3,1.2,0.9
					l0.8,2.4l2.5-0.1C92.9,57,93.5,57.6,93.5,58.3z"/>
			</g>
			<g>
				<path class="st0" d="M87.7,54.9l1.2,3.5l3.7-0.1l-2.9,2.2l1.2,3.5l-3-2.1l-2.9,2.2l1.1-3.5l-3-2.1l3.7-0.1L87.7,54.9 M92.5,58.2
					L92.5,58.2 M87.6,53.5c-0.6,0-1.1,0.4-1.3,1L85.6,57l-2.7,0.1c-0.6,0-1.1,0.4-1.3,1c-0.2,0.6,0,1.2,0.5,1.5l2.2,1.5l-0.8,2.6
					c-0.2,0.6,0,1.2,0.5,1.5c0.2,0.2,0.5,0.3,0.8,0.2c0.3,0,0.6-0.1,0.8-0.3l2.1-1.6l2.2,1.5c0.2,0.2,0.5,0.3,0.8,0.2
					c0.3,0,0.6-0.1,0.8-0.3c0.5-0.4,0.7-1,0.5-1.5l-0.9-2.5l2.1-1.6c0.4-0.3,0.6-0.7,0.6-1.1c0-0.8-0.6-1.4-1.4-1.3l0,0l-2.7,0.1
					L89,54.4C88.8,53.8,88.2,53.5,87.6,53.5L87.6,53.5z"/>
			</g>
		</g>
		<g>
			<g>
				<path class="st1" d="M104.3,48.7l-2.1,1.6l0.9,2.5c0.2,0.5,0,1.1-0.4,1.5c-0.2,0.2-0.5,0.3-0.8,0.3c-0.3,0-0.6-0.1-0.8-0.2
					L99,52.8l-2.1,1.6c-0.2,0.2-0.5,0.3-0.8,0.3c-0.3,0-0.5-0.1-0.8-0.2c-0.5-0.3-0.7-0.9-0.5-1.5l0.7-2.5L93.4,49
					c-0.5-0.3-0.7-0.9-0.5-1.5c0.2-0.6,0.7-0.9,1.2-1l2.6-0.1l0.7-2.5c0.2-0.6,0.7-0.9,1.3-1c0.6,0,1.1,0.3,1.3,0.9l0.9,2.5l2.6-0.1
					c0.6,0,1.1,0.3,1.3,0.9C105,47.7,104.8,48.4,104.3,48.7z"/>
			</g>
			<g>
				<path class="st0" d="M98.8,44.2l1.2,3.5l3.7-0.1l-2.9,2.2l1.2,3.5l-3-2.1L96,53.4l1.1-3.5l-3-2.1l3.7-0.1L98.8,44.2 M98.7,42.9
					c-0.6,0-1.1,0.4-1.3,1l-0.8,2.6L94,46.5c-0.6,0-1.1,0.4-1.3,1c-0.2,0.6,0,1.2,0.5,1.5l2.2,1.5L94.7,53c-0.2,0.6,0,1.2,0.5,1.5
					c0.2,0.2,0.5,0.2,0.8,0.2c0.3,0,0.6-0.1,0.8-0.3l2.1-1.6l2.2,1.5c0.2,0.2,0.5,0.3,0.8,0.2c0.3,0,0.6-0.1,0.8-0.3
					c0.5-0.4,0.7-1,0.5-1.5l-0.9-2.5l2.1-1.6c0.5-0.4,0.7-1,0.5-1.5c-0.2-0.6-0.7-0.9-1.3-0.9l-2.7,0.1l-0.9-2.5
					C99.9,43.2,99.3,42.9,98.7,42.9"/>
			</g>
		</g>
		<g>
			<g>
				<path class="st1" d="M107.1,34.9l-2,1.5l0.8,2.3c0.2,0.5,0,1.1-0.4,1.4c-0.2,0.2-0.5,0.3-0.7,0.3c-0.3,0-0.5-0.1-0.8-0.2l-2-1.4
					l-2,1.5c-0.2,0.2-0.5,0.3-0.7,0.3c-0.3,0-0.5-0.1-0.7-0.2c-0.4-0.3-0.7-0.9-0.5-1.4l0.7-2.4l-2-1.4c-0.4-0.3-0.6-0.9-0.5-1.4
					c0.2-0.5,0.6-0.9,1.2-0.9l2.5-0.1l0.7-2.4c0.2-0.5,0.6-0.9,1.2-0.9c0.5,0,1,0.3,1.2,0.8l0.8,2.3l2.5-0.1c0.5,0,1,0.3,1.2,0.8
					C107.7,34,107.6,34.5,107.1,34.9z"/>
			</g>
			<g>
				<path class="st0" d="M101.9,30.4l1.2,3.5l3.7-0.1l-2.9,2.2l1.2,3.5l-3-2.1l-2.9,2.2l1.1-3.5l-3-2.1l3.7-0.1L101.9,30.4
					 M101.8,29c-0.6,0-1.1,0.4-1.3,1l-0.8,2.6l-2.7,0.1c-0.6,0-1.1,0.4-1.3,1c-0.2,0.6,0,1.2,0.5,1.5l2.2,1.5l-0.8,2.6
					c-0.2,0.6,0,1.2,0.5,1.5c0.2,0.2,0.5,0.3,0.8,0.2c0.3,0,0.6-0.1,0.8-0.3l2.1-1.6l2.2,1.5c0.2,0.2,0.5,0.2,0.8,0.2
					c0.3,0,0.6-0.1,0.8-0.3c0.5-0.4,0.7-1,0.5-1.5l-0.9-2.5l2.1-1.6c0.5-0.4,0.7-1,0.5-1.5c-0.2-0.6-0.7-0.9-1.3-0.9l-2.7,0.1
					l-0.9-2.5C103,29.4,102.4,29,101.8,29"/>
			</g>
		</g>
		<g>
			<g>
				<path class="st1" d="M96.6,25.9c-0.2,0.2-0.5,0.3-0.8,0.3c-0.3,0-0.5-0.1-0.8-0.2c-0.5-0.3-0.7-0.9-0.5-1.4l0.7-2.4l-2.1-1.4
					c-0.5-0.3-0.7-0.9-0.5-1.4c0.2-0.5,0.7-0.9,1.2-0.9l2.5-0.1l0.7-2.4c0.2-0.5,0.7-0.9,1.2-0.9c0.6,0,1.1,0.3,1.3,0.9l0.8,2.4
					l2.5-0.1c0.6,0,1.1,0.3,1.3,0.9c0.2,0.5,0,1.1-0.4,1.5l-2,1.5l0.8,2.4c0.2,0.5,0,1.1-0.4,1.5c-0.2,0.2-0.5,0.3-0.8,0.3
					c-0.3,0-0.5-0.1-0.8-0.2l-2.1-1.4L96.6,25.9z"/>
			</g>
			<g>
				<path class="st0" d="M98.4,16l1.2,3.5l3.7-0.1l-2.9,2.2l1.2,3.5l-3-2.1l-2.9,2.2l1.1-3.5l-3-2.1l3.7-0.1L98.4,16 M98.4,14.6
					c-0.6,0-1.1,0.4-1.3,1l-0.8,2.6l-2.7,0.1c-0.6,0-1.1,0.4-1.3,1c-0.2,0.6,0,1.2,0.5,1.5l2.2,1.5l-0.8,2.6c-0.2,0.6,0,1.2,0.5,1.5
					c0.2,0.2,0.5,0.2,0.8,0.2s0.6-0.1,0.8-0.3l2.1-1.6l2.2,1.5c0.2,0.2,0.5,0.2,0.8,0.2c0.3,0,0.6-0.1,0.8-0.3
					c0.5-0.4,0.7-1,0.5-1.5L102,22l2.1-1.6c0.5-0.4,0.7-1,0.5-1.5c-0.2-0.6-0.7-0.9-1.3-0.9l-2.7,0.1l-0.9-2.5
					C99.5,14.9,99,14.6,98.4,14.6"/>
			</g>
		</g>
		<g>
			<g>
				<path class="st1" d="M64.8,7.9c0,0.4-0.2,0.8-0.5,1.1l-2,1.5l0.8,2.4c0.2,0.5,0,1.1-0.4,1.4c-0.2,0.2-0.5,0.3-0.7,0.3
					c-0.3,0-0.5-0.1-0.8-0.2l-2-1.4l-2,1.5c-0.2,0.2-0.5,0.3-0.7,0.3c-0.3,0-0.5-0.1-0.8-0.2c-0.5-0.3-0.7-0.9-0.5-1.4l0.7-2.4
					l-2.1-1.4c-0.5-0.3-0.7-0.9-0.5-1.4c0.2-0.5,0.6-0.9,1.2-0.9L57,6.8l0.7-2.4c0.2-0.5,0.6-0.9,1.2-0.9c0.6,0,1.1,0.3,1.2,0.9
					L61,6.7l2.5-0.1C64.2,6.6,64.8,7.2,64.8,7.9z"/>
			</g>
			<g>
				<path class="st0" d="M59,4.5l1.2,3.5l3.7-0.1l-2.9,2.2l1.2,3.5l-3-2.1l-2.9,2.2l1.1-3.5l-3-2.1L57.9,8L59,4.5 M63.8,7.8
					L63.8,7.8 M58.9,3.1c-0.6,0-1.1,0.4-1.3,1l-0.8,2.6l-2.7,0.1c-0.6,0-1.1,0.4-1.3,1c-0.2,0.6,0,1.2,0.5,1.5l2.2,1.5l-0.8,2.6
					c-0.2,0.6,0,1.2,0.5,1.5C55.7,15,56,15,56.2,15c0.3,0,0.6-0.1,0.8-0.3l2.1-1.6l2.2,1.5c0.2,0.2,0.5,0.2,0.8,0.2
					c0.3,0,0.6-0.1,0.8-0.3c0.5-0.4,0.7-1,0.5-1.5l-0.9-2.5l2.1-1.6c0.4-0.3,0.6-0.7,0.6-1.1c0-0.8-0.6-1.4-1.4-1.3l0,0l-2.7,0.1
					L60.3,4C60.1,3.4,59.5,3.1,58.9,3.1"/>
			</g>
		</g>
		<g>
			<g>
				<path class="st1" d="M43.3,40.4c-0.2,0.2-0.5,0.3-0.8,0.3c-0.3,0-0.5-0.1-0.8-0.2c-0.5-0.3-0.7-0.9-0.5-1.4l0.7-2.4l-2.1-1.4
					c-0.5-0.3-0.7-0.9-0.5-1.4c0.2-0.5,0.7-0.9,1.2-0.9l2.5-0.1l0.7-2.4c0.2-0.5,0.7-0.9,1.2-0.9c0.6,0,1.1,0.3,1.3,0.9l0.8,2.4
					l2.5-0.1c0.6,0,1.1,0.3,1.3,0.9c0.2,0.5,0,1.1-0.4,1.5l-2,1.5l0.8,2.4c0.2,0.5,0,1.1-0.4,1.5c-0.2,0.2-0.5,0.3-0.8,0.3
					c-0.3,0-0.5-0.1-0.8-0.2l-2.1-1.4L43.3,40.4z"/>
			</g>
			<g>
				<path class="st0" d="M45.1,30.5l1.2,3.5l3.7-0.1l-2.9,2.2l1.2,3.5l-3-2.1l-2.9,2.2l1.1-3.5l-3-2.1L44,34L45.1,30.5 M45.1,29.1
					c-0.6,0-1.1,0.4-1.3,1L43,32.6l-2.7,0.1c-0.6,0-1.1,0.4-1.3,1c-0.2,0.6,0,1.2,0.5,1.5l2.2,1.5L41,39.3c-0.2,0.6,0,1.2,0.5,1.5
					c0.2,0.2,0.5,0.2,0.8,0.2c0.3,0,0.6-0.1,0.8-0.3l2.1-1.6l2.2,1.5c0.2,0.2,0.5,0.2,0.8,0.2c0.3,0,0.6-0.1,0.8-0.3
					c0.5-0.4,0.7-1,0.5-1.5l-0.9-2.5l2.1-1.6c0.5-0.4,0.7-1,0.5-1.5c-0.2-0.6-0.7-0.9-1.3-0.9l-2.7,0.1L46.4,30
					C46.2,29.5,45.6,29.1,45.1,29.1"/>
			</g>
		</g>
		<g>
			<g>
				<path class="st1" d="M47.2,25.3c-0.2,0.2-0.5,0.3-0.8,0.3c-0.3,0-0.5-0.1-0.8-0.2c-0.5-0.3-0.7-0.9-0.5-1.4l0.7-2.4L43.8,20
					c-0.5-0.3-0.7-0.9-0.5-1.4c0.2-0.5,0.7-0.9,1.2-0.9l2.5-0.1l0.7-2.4c0.2-0.5,0.7-0.9,1.2-0.9c0.6,0,1.1,0.3,1.3,0.9l0.8,2.4
					l2.5-0.1c0.6,0,1.1,0.3,1.3,0.9c0.2,0.5,0,1.1-0.4,1.5l-2,1.5l0.8,2.4c0.2,0.5,0,1.1-0.4,1.5c-0.2,0.2-0.5,0.3-0.8,0.3
					c-0.3,0-0.5-0.1-0.8-0.2l-2.1-1.4L47.2,25.3z"/>
			</g>
			<g>
				<path class="st0" d="M49,15.3l1.2,3.5l3.7-0.1L51,20.9l1.2,3.5l-3-2.1l-2.9,2.2l1.1-3.5l-3-2.1l3.7-0.1L49,15.3 M49,14
					c-0.6,0-1.1,0.4-1.3,1l-0.8,2.6l-2.7,0.1c-0.6,0-1.1,0.4-1.3,1c-0.2,0.6,0,1.2,0.5,1.5l2.2,1.5L45,24.1c-0.2,0.6,0,1.2,0.5,1.5
					c0.2,0.2,0.5,0.2,0.8,0.2c0.3,0,0.6-0.1,0.8-0.3l2.1-1.6l2.2,1.5c0.2,0.2,0.5,0.2,0.8,0.2c0.3,0,0.6-0.1,0.8-0.3
					c0.5-0.4,0.7-1,0.5-1.5l-0.9-2.5l2.1-1.6c0.5-0.4,0.7-1,0.5-1.5c-0.2-0.6-0.7-0.9-1.3-0.9l-2.7,0.1l-0.9-2.5
					C50.1,14.3,49.6,13.9,49,14"/>
			</g>
		</g>
		<g>
			<g>
				<path class="st1" d="M58.1,63.9c-0.2,0.2-0.5,0.3-0.8,0.3c-0.3,0-0.5-0.1-0.8-0.2c-0.5-0.3-0.7-0.9-0.5-1.4l0.7-2.4l-2.1-1.4
					c-0.5-0.3-0.7-0.9-0.5-1.4c0.2-0.5,0.7-0.9,1.2-0.9l2.5-0.1l0.7-2.4c0.2-0.5,0.7-0.9,1.2-0.9c0.6,0,1.1,0.3,1.3,0.9l0.8,2.4
					l2.5-0.1c0.6,0,1.1,0.3,1.3,0.9c0.2,0.5,0,1.1-0.4,1.5l-2,1.5l0.8,2.4c0.2,0.5,0,1.1-0.4,1.5c-0.2,0.2-0.5,0.3-0.8,0.3
					c-0.3,0-0.5-0.1-0.8-0.2l-2.1-1.4L58.1,63.9z"/>
			</g>
			<g>
				<path class="st0" d="M59.9,54l1.2,3.5l3.7-0.1l-2.9,2.2l1.2,3.5l-3-2.1l-2.9,2.2l1.1-3.5l-3-2.1l3.7-0.1L59.9,54 M59.9,52.6
					c-0.6,0-1.1,0.4-1.3,1l-0.8,2.6l-2.7,0.1c-0.6,0-1.1,0.4-1.3,1c-0.2,0.6,0,1.2,0.5,1.5l2.2,1.5l-0.8,2.6c-0.2,0.6,0,1.2,0.5,1.5
					c0.2,0.2,0.5,0.2,0.8,0.2s0.6-0.1,0.8-0.3l2.1-1.6l2.2,1.5c0.2,0.2,0.5,0.2,0.8,0.2c0.3,0,0.6-0.1,0.8-0.3
					c0.5-0.4,0.7-1,0.5-1.5l-0.9-2.5l2.1-1.6c0.5-0.4,0.7-1,0.5-1.5c-0.2-0.6-0.7-0.9-1.3-0.9L62.1,56l-0.9-2.5
					C61,53,60.5,52.6,59.9,52.6"/>
			</g>
		</g>
		<g>
			<g>
				<path class="st1" d="M72.4,68.6c-0.2,0.2-0.5,0.3-0.8,0.3c-0.3,0-0.5-0.1-0.8-0.2c-0.5-0.3-0.7-0.9-0.5-1.4l0.7-2.4L69,63.4
					c-0.5-0.3-0.7-0.9-0.5-1.4c0.2-0.5,0.7-0.9,1.2-0.9l2.5-0.1l0.7-2.4c0.2-0.5,0.7-0.9,1.2-0.9c0.6,0,1.1,0.3,1.3,0.9l0.8,2.4
					l2.5-0.1c0.6,0,1.1,0.3,1.3,0.9c0.2,0.5,0,1.1-0.4,1.5l-2,1.5l0.8,2.4c0.2,0.5,0,1.1-0.4,1.5c-0.2,0.2-0.5,0.3-0.8,0.3
					c-0.3,0-0.5-0.1-0.8-0.2l-2.1-1.4L72.4,68.6z"/>
			</g>
			<g>
				<path class="st0" d="M74.2,58.6l1.2,3.5l3.7-0.1l-2.9,2.2l1.2,3.5l-3-2.1l-2.9,2.2l1.1-3.5l-3-2.1l3.7-0.1L74.2,58.6 M74.2,57.3
					c-0.6,0-1.1,0.4-1.3,1l-0.8,2.6l-2.7,0.1c-0.6,0-1.1,0.4-1.3,1c-0.2,0.6,0,1.2,0.5,1.5l2.2,1.5l-0.8,2.6c-0.2,0.6,0,1.2,0.5,1.5
					c0.2,0.2,0.5,0.2,0.8,0.2c0.3,0,0.6-0.1,0.8-0.3l2.1-1.6l2.2,1.5c0.2,0.2,0.5,0.2,0.8,0.2c0.3,0,0.6-0.1,0.8-0.3
					c0.5-0.4,0.7-1,0.5-1.5l-0.9-2.5l2.1-1.6c0.5-0.4,0.7-1,0.5-1.5c-0.2-0.6-0.7-0.9-1.3-0.9l-2.7,0.1l-0.9-2.5
					C75.3,57.6,74.8,57.3,74.2,57.3"/>
			</g>
		</g>
		<g>
			<g>
				<path class="st1" d="M48,54.5c-0.2,0.2-0.5,0.3-0.8,0.3c-0.3,0-0.5-0.1-0.8-0.2c-0.5-0.3-0.7-0.9-0.5-1.4l0.7-2.4l-2.1-1.4
					c-0.5-0.3-0.7-0.9-0.5-1.4c0.2-0.5,0.7-0.9,1.2-0.9l2.5-0.1l0.7-2.4c0.2-0.5,0.7-0.9,1.2-0.9c0.6,0,1.1,0.3,1.3,0.9l0.8,2.4
					l2.5-0.1c0.6,0,1.1,0.3,1.3,0.9c0.2,0.5,0,1.1-0.4,1.5l-2,1.5l0.8,2.4c0.2,0.5,0,1.1-0.4,1.5c-0.2,0.2-0.5,0.3-0.8,0.3
					c-0.3,0-0.5-0.1-0.8-0.2L50,53L48,54.5z"/>
			</g>
			<g>
				<path class="st0" d="M49.8,44.5L51,48l3.7-0.1l-2.9,2.2l1.2,3.5l-3-2.1l-2.9,2.2l1.1-3.5l-3-2.1l3.7-0.1L49.8,44.5 M49.8,43.1
					c-0.6,0-1.1,0.4-1.3,1l-0.8,2.6l-2.7,0.1c-0.6,0-1.1,0.4-1.3,1c-0.2,0.6,0,1.2,0.5,1.5l2.2,1.5l-0.8,2.6c-0.2,0.6,0,1.2,0.5,1.5
					c0.2,0.2,0.5,0.2,0.8,0.2c0.3,0,0.6-0.1,0.8-0.3l2.1-1.6l2.2,1.5c0.2,0.2,0.5,0.2,0.8,0.2c0.3,0,0.6-0.1,0.8-0.3
					c0.5-0.4,0.7-1,0.5-1.5l-0.9-2.5l2.1-1.6c0.5-0.4,0.7-1,0.5-1.5c-0.2-0.6-0.7-0.9-1.3-0.9L52,46.6l-0.9-2.5
					C50.9,43.5,50.4,43.1,49.8,43.1"/>
			</g>
		</g>
	</g>
	<g>
		
		<g>
			<path class="st0" d="M72.4,69.8c-0.3,0.2-0.7,0.3-1.1,0.3c0,0,0,0-0.1,0c-0.5,0-0.9-0.1-1.3-0.4c-0.8-0.6-1.2-1.6-0.9-2.5
				l0.6-1.9l-1.4-1l0.1,33.3l0,0l-52.2,0.1L16,38.8v0l24.1,0l0.5-1.7L40,36.7l0,0l-1.1-0.8c-0.5-0.3-0.8-0.8-0.9-1.3l-22,0l0-2.8
				c0-6.8,5.5-12.3,12.3-12.4l13.6,0c-0.1-0.4-0.1-0.8,0-1.2c0.3-0.9,1.1-1.6,2.1-1.6l2,0l0.4-1.3l-18.2,0c-4.4,0-8.5,1.7-11.6,4.8
				c-3.1,3.1-4.8,7.2-4.8,11.6l0.1,71.7c0,6.4,3.8,12.3,9.7,15c2.1,1,4.4,1.5,6.8,1.5l27.6,0c9.1,0,16.4-7.4,16.4-16.5L72.4,69.8z
				 M56,115.8l-27.6,0c-1.8,0-3.5-0.4-5.1-1.1c-4.3-1.9-7.3-6.2-7.3-11.2l0-1.8l52.2-0.1l0,1.8C68.4,110.3,62.8,115.8,56,115.8z"/>
			<path class="st0" d="M68.3,38.5l0,0.2l0,21.5c0.3-0.2,0.6-0.2,1-0.2l2,0l0.6-1.9c0.1-0.3,0.3-0.7,0.5-0.9l0-25.3
				c0-6.4-3.8-12.3-9.7-15l0,0c-1.7-0.8-3.4-1.2-5.2-1.4l-0.1,0c-0.4,0.3-0.8,0.5-1.3,0.5c0,0,0,0-0.1,0c-0.5,0-0.9-0.1-1.3-0.4
				c-0.1-0.1-0.2-0.1-0.2-0.2l-3.3,0l0.4,1.1l2,0c1,0,1.9,0.6,2.2,1.5c0.2,0.5,0.2,1,0,1.5c1.8,0,3.5,0.4,5.1,1.1
				c4.3,1.9,7.3,6.2,7.3,11.2l0,2.8l0,0.1l-16.3-0.1c-0.1,0.4-0.4,0.7-0.7,1l-1.4,1.1l-0.2,0.2l0.7,1.9L68.3,38.5z"/>
		</g>
		
			<ellipse transform="matrix(1 -1.605119e-03 1.605119e-03 1 -0.1756 6.798938e-02)" class="st0" cx="42.3" cy="109.4" rx="3.5" ry="3.5"/>
	</g>
</g>
</svg>
