<?xml version="1.0" encoding="utf-8"?>
<!-- Generator: Adobe Illustrator 21.1.0, SVG Export Plug-In . SVG Version: 6.00 Build 0)  -->
<svg version="1.1" id="Layer_1" xmlns="http://www.w3.org/2000/svg" xmlns:xlink="http://www.w3.org/1999/xlink" x="0px" y="0px"
	 viewBox="0 0 120 120" style="enable-background:new 0 0 120 120;" xml:space="preserve">
<style type="text/css">
	.st0{fill:#0E7DA2;}
	.st1{fill:#FFFFFF;}
	.st2{fill:#D1C829;}
	.st3{fill:#EDE708;}
</style>
<g>
	<g>
		<path class="st0" d="M58.1,4.5c5.2,0,10.2,3,12.4,8.1l31.4,71.9c3,6.8-0.2,14.8-7,17.8l-27.6,12.1c-1.7,0.8-3.6,1.1-5.4,1.1
			c-5.2,0-10.2-3-12.4-8.1L18.1,35.5c-3-6.8,0.2-14.8,7-17.8L52.7,5.6C54.5,4.9,56.3,4.5,58.1,4.5 M58.1,0L58.1,0
			c-2.5,0-4.9,0.5-7.2,1.5L23.3,13.6c-4.4,1.9-7.8,5.4-9.5,9.9C12,28,12.1,32.9,14,37.3l31.4,71.9c2.9,6.6,9.4,10.8,16.5,10.8
			c2.5,0,4.9-0.5,7.2-1.5l27.6-12.1c4.4-1.9,7.8-5.4,9.5-9.9c1.8-4.5,1.7-9.4-0.2-13.8L74.6,10.8C71.8,4.2,65.3,0,58.1,0"/>
		<line class="st1" x1="20.3" y1="40.4" x2="72.7" y2="17.5"/>
		<path class="st0" d="M20.3,42.6c-0.9,0-1.7-0.5-2.1-1.4c-0.5-1.1,0-2.5,1.2-3l52.4-22.9c1.1-0.5,2.5,0,3,1.2c0.5,1.1,0,2.5-1.2,3
			L21.2,42.4C20.9,42.6,20.6,42.6,20.3,42.6"/>
		<line class="st1" x1="47.8" y1="103.6" x2="100.2" y2="80.7"/>
		<path class="st0" d="M47.8,105.8c-0.9,0-1.7-0.5-2.1-1.4c-0.5-1.1,0-2.5,1.2-3l52.4-22.9c1.1-0.5,2.5,0,3,1.2c0.5,1.1,0,2.5-1.2,3
			l-52.4,22.9C48.4,105.8,48.1,105.8,47.8,105.8"/>
		<line class="st1" x1="33.8" y1="22.9" x2="50.6" y2="15.6"/>
		<path class="st0" d="M33.8,25.1c-0.9,0-1.7-0.5-2.1-1.4c-0.5-1.1,0-2.5,1.2-3l16.7-7.3c1.1-0.5,2.5,0,3,1.2c0.5,1.1,0,2.5-1.2,3
			l-16.7,7.3C34.4,25.1,34.1,25.1,33.8,25.1"/>
		<path class="st0" d="M81.8,100.3c0.8,1.9,0,4.2-2,5c-1.9,0.8-4.2,0-5-2c-0.8-1.9,0-4.2,2-5C78.7,97.5,80.9,98.4,81.8,100.3"/>
	</g>
	<g>
		<path class="st2" d="M67.6,67.3l-1.7-4l-4.7,2c-2.2,0.2-4.8,0.9-7.4,2c-2.6,1.1-4.9,2.5-6.6,4l-4.7,2l1.7,4
			c1.2,2.7,7.4,2.7,13.8,0C64.5,74.5,68.8,70.1,67.6,67.3"/>
		<path class="st3" d="M56.5,73.9c-6.5,2.8-12.8,2.5-14.1-0.6c-1.3-3.1,2.9-7.8,9.4-10.6c6.5-2.8,12.8-2.5,14.1,0.6
			C67.2,66.4,63,71.2,56.5,73.9"/>
	</g>
	<g>
		<path class="st2" d="M65.4,62.2l-1.7-4l-4.7,2c-2.2,0.2-4.8,0.9-7.4,2c-2.6,1.1-4.9,2.5-6.6,4l-4.7,2l1.7,4
			c1.2,2.7,7.4,2.7,13.8,0C62.2,69.4,66.5,65,65.4,62.2"/>
		<path class="st3" d="M54.3,68.8c-6.5,2.8-12.8,2.5-14.1-0.6c-1.3-3.1,2.9-7.8,9.4-10.6c6.5-2.8,12.8-2.5,14.1,0.6
			C65,61.3,60.8,66.1,54.3,68.8"/>
	</g>
	<g>
		<path class="st2" d="M63.1,56.9l-1.7-4l-4.7,2c-2.2,0.2-4.8,0.9-7.4,2c-2.6,1.1-4.9,2.5-6.6,4l-4.7,2l1.7,4
			c1.2,2.7,7.4,2.7,13.8,0C60,64.1,64.3,59.7,63.1,56.9"/>
		<path class="st3" d="M52.1,63.5C45.6,66.3,39.3,66,38,62.9c-1.3-3.1,2.9-7.8,9.4-10.6c6.5-2.8,12.8-2.5,14.1,0.6
			C62.7,56,58.5,60.8,52.1,63.5"/>
	</g>
	<g>
		<path class="st2" d="M63.2,49.1l-1.7-4l-4.7,2c-2.2,0.2-4.8,0.9-7.4,2c-2.6,1.1-4.9,2.5-6.6,4l-4.7,2l1.7,4
			c1.2,2.7,7.4,2.7,13.8,0C60.1,56.3,64.4,51.9,63.2,49.1"/>
		<path class="st3" d="M52.2,55.7c-6.5,2.8-12.8,2.5-14.1-0.6c-1.3-3.1,2.9-7.8,9.4-10.6c6.5-2.8,12.8-2.5,14.1,0.6
			C62.9,48.2,58.7,53,52.2,55.7"/>
	</g>
	<g>
		<path class="st2" d="M87.3,70.2l-1.7-4l-4.7,2c-2.2,0.2-4.8,0.9-7.4,2c-2.6,1.1-4.9,2.5-6.6,4l-4.7,2l1.7,4
			c1.2,2.7,7.4,2.7,13.8,0C84.2,77.4,88.5,72.9,87.3,70.2"/>
		<path class="st3" d="M76.2,76.8c-6.5,2.8-12.8,2.5-14.1-0.6c-1.3-3.1,2.9-7.8,9.4-10.6c6.5-2.8,12.8-2.5,14.1,0.6
			C86.9,69.3,82.7,74.1,76.2,76.8"/>
	</g>
</g>
</svg>
