<?xml version="1.0" encoding="utf-8"?>
<!-- Generator: Adobe Illustrator 21.1.0, SVG Export Plug-In . SVG Version: 6.00 Build 0)  -->
<svg version="1.1" id="Layer_1" xmlns="http://www.w3.org/2000/svg" xmlns:xlink="http://www.w3.org/1999/xlink" x="0px" y="0px"
	 viewBox="0 0 120 120" style="enable-background:new 0 0 120 120;" xml:space="preserve">
<style type="text/css">
	.st0{fill:#0C7DA2;}
	.st1{fill:#F2E400;}
</style>
<g>
	<path class="st0" d="M10.5,104.7c-1.1,0-2.2-0.6-2.9-1.7C2.6,94.2,0,84.2,0,74.1c0-32.4,26.4-58.8,58.8-58.8s58.8,26.4,58.8,58.8
		c0,3.8-0.4,7.7-1.1,11.5c-0.4,1.8-2.1,2.9-3.8,2.6c-1.8-0.4-2.9-2.1-2.6-3.8c0.7-3.4,1-6.8,1-10.2c0-28.8-23.4-52.2-52.2-52.2
		S6.5,45.3,6.5,74.1c0,9,2.3,17.9,6.8,25.7c0.9,1.6,0.3,3.6-1.2,4.5C11.6,104.6,11,104.7,10.5,104.7z"/>
	<path class="st1" d="M59.2,79L94,81.5l-31-16c-0.4-0.3-0.9-0.6-1.5-0.8c-3.1-0.9-6.4,1.6-7.5,5.5c-1.1,3.9,0.5,7.8,3.6,8.6
		C58.1,79.1,58.6,79.1,59.2,79z"/>
	<circle class="st1" cx="113.2" cy="85.4" r="6.8"/>
	<path class="st0" d="M92.1,52.4c-1.1,0-2.1-0.5-2.7-1.5c-1-1.5-0.6-3.5,0.9-4.5l11.2-7.4c1.5-1,3.5-0.6,4.5,0.9
		c1,1.5,0.6,3.5-0.9,4.5l-11.2,7.4C93.3,52.2,92.7,52.4,92.1,52.4z"/>
	<path class="st0" d="M58.8,36.2c-1.8,0-3.3-1.5-3.3-3.3V18.6c0-1.8,1.5-3.3,3.3-3.3c1.8,0,3.3,1.5,3.3,3.3v14.3
		C62.1,34.7,60.6,36.2,58.8,36.2z"/>
	<path class="st0" d="M24.5,54.9c-0.6,0-1.2-0.2-1.8-0.5L11.5,47c-1.5-1-1.9-3-0.9-4.5c1-1.5,3-1.9,4.5-0.9l11.2,7.4
		c1.5,1,1.9,3,0.9,4.5C26.6,54.4,25.6,54.9,24.5,54.9z"/>
	<path class="st0" d="M10.5,104.3c-1.1,0-2.3-0.6-2.9-1.7C6.8,101,7.3,99,8.9,98.2l13.5-7.5c1.6-0.9,3.6-0.3,4.5,1.3
		c0.9,1.6,0.3,3.6-1.3,4.5l-13.5,7.5C11.6,104.2,11,104.3,10.5,104.3z"/>
</g>
</svg>
