<?xml version="1.0" encoding="utf-8"?>
<!-- Generator: Adobe Illustrator 21.1.0, SVG Export Plug-In . SVG Version: 6.00 Build 0)  -->
<svg version="1.1" id="Layer_1" xmlns="http://www.w3.org/2000/svg" xmlns:xlink="http://www.w3.org/1999/xlink" x="0px" y="0px"
	 viewBox="0 0 120 120" style="enable-background:new 0 0 120 120;" xml:space="preserve">
<style type="text/css">
	.st0{fill:#007CA5;}
	.st1{fill:#F2E400;}
</style>
<g>
	<path class="st0" d="M115.8,38.1C115.8,38.1,115.8,38.1,115.8,38.1L4.7,37.6c-2.3,0-4.2-1.9-4.2-4.2c0-2.3,1.9-4.2,4.2-4.2
		c0,0,0,0,0,0l100.9,0.4L87.2,11.2c-1.6-1.6-1.6-4.3,0-5.9c1.6-1.6,4.3-1.6,5.9,0l25.6,25.6c1.2,1.2,1.6,3,0.9,4.6
		C119,37.1,117.5,38.1,115.8,38.1z"/>
	<path class="st0" d="M90.2,63.2c-1.1,0-2.2-0.4-3-1.3c-1.6-1.7-1.6-4.3,0.1-5.9c8.9-8.5,23.3-22.5,25.1-24.6c0.8-1.1,2-1.8,3.4-1.8
		c2.3,0,4.2,1.9,4.2,4.2c0,2.1,0,2.1-14.1,15.8c-6.4,6.2-12.8,12.4-12.8,12.4C92.3,62.9,91.2,63.2,90.2,63.2z M111.6,33.9
		C111.6,33.9,111.6,33.9,111.6,33.9C111.6,33.9,111.6,33.9,111.6,33.9z M111.6,33.9C111.6,33.9,111.6,33.9,111.6,33.9
		C111.6,33.9,111.6,33.9,111.6,33.9z M111.6,33.9C111.6,33.9,111.6,33.9,111.6,33.9C111.6,33.9,111.6,33.9,111.6,33.9z M111.6,33.8
		C111.6,33.9,111.6,33.9,111.6,33.8C111.6,33.9,111.6,33.9,111.6,33.8z M111.6,33.8C111.6,33.8,111.6,33.8,111.6,33.8
		C111.6,33.8,111.6,33.8,111.6,33.8z M111.6,33.8C111.6,33.8,111.6,33.8,111.6,33.8C111.6,33.8,111.6,33.8,111.6,33.8z M111.6,33.8
		C111.6,33.8,111.6,33.8,111.6,33.8C111.6,33.8,111.6,33.8,111.6,33.8z M111.6,33.8C111.6,33.8,111.6,33.8,111.6,33.8
		C111.6,33.8,111.6,33.8,111.6,33.8z M111.6,33.8C111.6,33.8,111.6,33.8,111.6,33.8C111.6,33.8,111.6,33.8,111.6,33.8z M111.6,33.8
		C111.6,33.8,111.6,33.8,111.6,33.8C111.6,33.8,111.6,33.8,111.6,33.8z M111.6,33.7C111.6,33.8,111.6,33.8,111.6,33.7
		C111.6,33.8,111.6,33.8,111.6,33.7z M111.6,33.7C111.6,33.7,111.6,33.7,111.6,33.7C111.6,33.7,111.6,33.7,111.6,33.7z M111.6,33.7
		C111.6,33.7,111.6,33.7,111.6,33.7C111.6,33.7,111.6,33.7,111.6,33.7z M111.6,33.7C111.6,33.7,111.6,33.7,111.6,33.7
		C111.6,33.7,111.6,33.7,111.6,33.7z M111.6,33.7C111.6,33.7,111.6,33.7,111.6,33.7C111.6,33.7,111.6,33.7,111.6,33.7z M111.6,33.7
		C111.6,33.7,111.6,33.7,111.6,33.7C111.6,33.7,111.6,33.7,111.6,33.7z M111.6,33.7C111.6,33.7,111.6,33.7,111.6,33.7
		C111.6,33.7,111.6,33.7,111.6,33.7z M111.6,33.7C111.6,33.7,111.6,33.7,111.6,33.7C111.6,33.7,111.6,33.7,111.6,33.7z M111.6,33.7
		C111.6,33.7,111.6,33.7,111.6,33.7C111.6,33.7,111.6,33.7,111.6,33.7z"/>
	<path class="st1" d="M29.4,116c-1,0-1.9-0.4-2.6-1.1L1.1,89.2c-1.1-1.1-1.4-2.7-0.8-4.1c0.6-1.4,1.9-2.3,3.5-2.3c0,0,0,0,0,0
		l111.1,0.5c2.1,0,3.7,1.7,3.7,3.8c0,2.1-1.7,3.7-3.7,3.7c0,0,0,0,0,0l-102-0.4L32,109.6c1.5,1.5,1.5,3.8,0,5.3
		C31.3,115.6,30.3,116,29.4,116z"/>
	<path class="st1" d="M3.7,90.3c-2.1,0-3.7-1.7-3.7-3.7c0-1.9,0-1.9,14-15.4c6.4-6.2,12.8-12.4,12.8-12.4c1.5-1.4,3.9-1.4,5.3,0.1
		c1.4,1.5,1.4,3.9-0.1,5.3C23.1,72.7,8.6,86.7,6.8,88.7C6.1,89.7,5,90.3,3.7,90.3z M7.5,86.9L7.5,86.9z M7.5,86.9
		C7.5,86.9,7.5,86.9,7.5,86.9C7.5,86.9,7.5,86.9,7.5,86.9z M7.5,86.9C7.5,86.9,7.5,86.9,7.5,86.9C7.5,86.9,7.5,86.9,7.5,86.9z
		 M7.5,86.6c0,0.1,0,0.2,0,0.3C7.5,86.8,7.5,86.7,7.5,86.6z M7.5,86.6C7.5,86.6,7.5,86.6,7.5,86.6C7.5,86.6,7.5,86.6,7.5,86.6z
		 M7.5,86.6C7.5,86.6,7.5,86.6,7.5,86.6C7.5,86.6,7.5,86.6,7.5,86.6z M7.5,86.6C7.5,86.6,7.5,86.6,7.5,86.6
		C7.5,86.6,7.5,86.6,7.5,86.6z M7.5,86.6C7.5,86.6,7.5,86.6,7.5,86.6C7.5,86.6,7.5,86.6,7.5,86.6z"/>
</g>
</svg>
