<?xml version="1.0" encoding="utf-8"?>
<!-- Generator: Adobe Illustrator 21.1.0, SVG Export Plug-In . SVG Version: 6.00 Build 0)  -->
<svg version="1.1" id="Layer_1" xmlns="http://www.w3.org/2000/svg" xmlns:xlink="http://www.w3.org/1999/xlink" x="0px" y="0px"
	 viewBox="0 0 120 120" style="enable-background:new 0 0 120 120;" xml:space="preserve">
<style type="text/css">
	.st0{fill:#0E7DA2;}
	.st1{fill:#EDE708;}
</style>
<g>
	<path class="st0" d="M86.5,78.4V114c0,1.1-0.9,2-2,2H10.9c-1.1,0-2-0.9-2-2V6c0-1.1,0.9-2,2-2h73.6c1.1,0,2,0.9,2,2v18.3
		c1.4-3.3,2.8-6.7,4-9.5V6c0-3.3-2.7-6-6-6H10.9c-3.3,0-6,2.7-6,6V114c0,3.3,2.7,6,6,6h73.6c3.3,0,6-2.7,6-6V68.4L86.5,78.4z"/>
	<path class="st0" d="M34.7,44.2H22.1c-3.3,0-6-2.7-6-6V25.6c0-3.3,2.7-6,6-6h12.6c3.3,0,6,2.7,6,6v12.6
		C40.6,41.5,38,44.2,34.7,44.2z M22.1,23.6c-1.1,0-2,0.9-2,2v12.6c0,1.1,0.9,2,2,2h12.6c1.1,0,2-0.9,2-2V25.6c0-1.1-0.9-2-2-2H22.1z
		"/>
	<path class="st0" d="M34.7,75.8H22.1c-3.3,0-6-2.7-6-6V57.2c0-3.3,2.7-6,6-6h12.6c3.3,0,6,2.7,6,6v12.6
		C40.6,73.1,38,75.8,34.7,75.8z M22.1,55.2c-1.1,0-2,0.9-2,2v12.6c0,1.1,0.9,2,2,2h12.6c1.1,0,2-0.9,2-2V57.2c0-1.1-0.9-2-2-2H22.1z
		"/>
	<path class="st0" d="M65.9,106c-0.2,0-0.5,0-0.7-0.1c-0.7-0.3-1.1-0.9-1.2-1.6L61.3,86c-0.1-1,0-2,0.3-3L92.9,3.7
		c1.2-3,4.6-4.4,7.5-3.3l11,4.3c3,1.2,4.4,4.6,3.3,7.5L83.4,91.6c-0.4,0.9-1,1.8-1.8,2.4c0,0,0,0,0,0l-14.5,11.6
		C66.8,105.9,66.4,106,65.9,106z M98.3,4c-0.7,0-1.4,0.4-1.7,1.2L65.3,84.4c-0.1,0.3-0.2,0.6-0.1,0.9l2.2,14.9l11.8-9.4
		c0.2-0.2,0.4-0.5,0.6-0.8L111,10.8c0.4-0.9-0.1-2-1-2.4L99,4.1C98.8,4,98.5,4,98.3,4z M80.4,92.4L80.4,92.4L80.4,92.4z"/>
	<path class="st0" d="M64.7,106H18.1c-1.1,0-2-0.9-2-2c0-1.1,0.9-2,2-2h46.6c1.1,0,2,0.9,2,2C66.6,105.1,65.8,106,64.7,106z"/>
	<path class="st0" d="M52.5,98.3H18.1c-1.1,0-2-0.9-2-2c0-1.1,0.9-2,2-2h34.4c1.1,0,2,0.9,2,2C54.5,97.4,53.6,98.3,52.5,98.3z"/>
	<path class="st0" d="M81.6,92.8c-0.2,0-0.5,0-0.7-0.1l-18.1-7.1c-1-0.4-1.5-1.6-1.1-2.6c0.4-1,1.6-1.5,2.6-1.1L82.3,89
		c1,0.4,1.5,1.6,1.1,2.6C83.1,92.3,82.4,92.8,81.6,92.8z"/>
	<path class="st0" d="M76.1,90.7c-0.2,0-0.5,0-0.7-0.1l-7.1-2.8c-0.5-0.2-0.9-0.6-1.1-1.1s-0.2-1,0-1.5L99.7,2.7
		c0.4-1,1.6-1.5,2.6-1.1c1,0.4,1.5,1.6,1.1,2.6L71.6,84.8l3.4,1.3l32.6-80.3c0.4-1,1.6-1.5,2.6-1.1c1,0.4,1.5,1.6,1.1,2.6L77.9,89.4
		C77.6,90.2,76.9,90.7,76.1,90.7z"/>
	<path class="st1" d="M29.7,70.5C29.7,70.5,29.6,70.5,29.7,70.5c-0.7,0-1.2-0.3-1.6-0.8l-6.3-8.5c-0.7-0.9-0.5-2.1,0.4-2.8
		c0.9-0.7,2.1-0.5,2.8,0.4l4.9,6.6l14.5-16.1c0.7-0.8,2-0.9,2.8-0.1c0.8,0.7,0.9,2,0.1,2.8L31.2,69.9C30.8,70.3,30.3,70.5,29.7,70.5
		z"/>
	<polygon class="st0" points="65,97.7 70.9,100.1 65.9,104 	"/>
</g>
</svg>
