<?xml version="1.0" encoding="UTF-8" standalone="no"?>
<!DOCTYPE svg PUBLIC "-//W3C//DTD SVG 1.1//EN" "http://www.w3.org/Graphics/SVG/1.1/DTD/svg11.dtd">
<svg xmlns="http://www.w3.org/2000/svg">
<metadata/>
<defs>
<font id="crocanteregular" horiz-adv-x="1273">
<font-face units-per-em="2048" ascent="1638" descent="-410"/>
<missing-glyph horiz-adv-x="628"/>
<glyph horiz-adv-x="0"/>
<glyph horiz-adv-x="682"/>
<glyph unicode=" " horiz-adv-x="628"/>
<glyph unicode="	" horiz-adv-x="628"/>
<glyph unicode=" " horiz-adv-x="628"/>
<glyph unicode="!" horiz-adv-x="491" d="M12 260q13 86 21 289t10 332t2 194v2l-4 436h45q56 0 112.5 2t135.5 6.5t115 6.5v-479q0 -67 3 -375.5t3 -372.5q0 -36 -6 -47.5t-29 -11.5h-12zM20 -33q0 97 61 154t165 57q61 0 104.5 -21t65 -55t30.5 -68t9 -71q0 -66 -56.5 -123t-154.5 -57q-51 0 -100 18t-86.5 62 t-37.5 104z"/>
<glyph unicode="&quot;" horiz-adv-x="927" d="M41 1458l113 8h22h3.5h4t8 0.5t13.5 1t23.5 1t34.5 1t49.5 1.5t66.5 2q0 -72 3 -255.5t3 -203.5q0 -37 -6 -48.5t-29 -11.5h-12l-281 19q0 6 -6 96t-10 389zM502 1477q223 0 334 -4q0 -72 3 -255.5t3 -203.5q0 -37 -6 -48.5t-29 -11.5h-12l-283 15q-1 41 -2.5 70.5 t-2.5 51.5t-2.5 116t-2.5 270z"/>
<glyph unicode="#" horiz-adv-x="989" d="M35 582h149h19l35 182l-168 -2v43q0 21 1 50t1 40q0 34 -11 68l-6 20h150h84l102 440q99 -16 156 -16q29 0 65 4l-100 -426l100 2l95 438h36q73 0 166 7l21 2l-94 -445l174 2l-21 -229q-15 1 -93.5 2t-104.5 2l-5 -14l-30 -164l233 2l-20 -230q-16 1 -61 1.5t-104.5 1.5 t-92.5 2l-66 -365l-229 -2q5 20 17 84t28 150t26 135q-17 0 -52 -1t-52 -1l-61 -369l-234 -4q3 16 29.5 159t40.5 211l-109 -2v43q0 21 1 50.5t1 40.5q0 36 -10 67zM422 584h108l33 159l4 25h-43q-42 0 -65 -2z"/>
<glyph unicode="$" horiz-adv-x="1304" d="M27 485l92 11q82 10 248 10q109 0 133 -4.5t24 -24.5q0 -46 49.5 -86.5t110.5 -40.5q66 0 120 38t54 89q0 112 -188 135l-228 29q-184 26 -276 120t-92 204q0 210 110.5 334.5t329.5 150.5q0 39 1 88t1 59h41q59 0 186 5v-35v-115q76 -8 142.5 -27t132.5 -57t113.5 -91.5 t76.5 -135.5t29 -183h-434q-8 20 -13.5 32t-19 30t-29 28t-41.5 17.5t-59 7.5q-27 0 -41 -2q-57 -6 -88 -37t-31 -82q0 -48 43.5 -64.5t196.5 -40.5q91 -14 147 -24q226 -39 322 -132.5t96 -231.5q0 -103 -38 -188t-95 -139t-133.5 -94.5t-142 -60t-132.5 -30.5 q1 -37 2 -78.5t2 -66t1 -29.5v-2l-238 34v144q-205 31 -328.5 150.5t-146.5 312.5z"/>
<glyph unicode="%" horiz-adv-x="1376" d="M10 1106q0 132 58.5 244t156.5 145q30 12 94 12q40 0 77.5 -7.5t78.5 -29.5t70.5 -56.5t49 -93t19.5 -134.5q0 -27 -8 -101q-22 -151 -104 -233t-211 -82q-94 0 -159.5 49t-93.5 123t-28 164zM207 0q2 7 29 72q3 6 21 43.5t40 86t56 127t84.5 202.5t109.5 276l262 676 q62 -4 80 -4q34 0 104 4l119 4h4q21 0 21 -12q0 -5 -4 -21l-283 -731l-29 -76l-145 -405l-88 -242h-381zM217 1102q0 -37 8 -68q4 -25 21.5 -38t40.5 -13q49 0 75 53q31 64 31 152q0 61 -22 86q-27 24 -54 24q-43 0 -71.5 -58.5t-28.5 -137.5zM762 303q0 131 59 243.5 t156 145.5q38 15 94 15q40 0 77.5 -8t78 -30.5t70.5 -57t49.5 -93t19.5 -133.5q0 -47 -6 -102q-22 -150 -105 -232t-213 -82q-93 0 -158 48.5t-93.5 122t-28.5 163.5zM971 299q0 -46 6 -66q4 -25 21 -39t40 -14t43.5 14t32.5 39q31 68 31 152q0 66 -23 86q-25 25 -53 25 q-42 0 -70 -59t-28 -138z"/>
<glyph unicode="&amp;" horiz-adv-x="1525" d="M12 344q0 157 103 266q28 33 60.5 51.5t85 36.5t75.5 29q-11 17 -39.5 39.5t-57 46.5t-56.5 56.5t-46 83.5t-18 114q1 114 43 198.5t117.5 134.5t173.5 74.5t219 24.5q93 0 169.5 -14.5t128 -37.5t91 -56t62 -66.5t36.5 -73.5t19 -71.5t6 -65.5q-3 -122 -99 -223 q-98 -113 -204 -178l143 -152q28 29 47 54.5t26.5 42t11.5 29.5t4 20t2 10.5t7 3.5l369 -16q-1 -15 -7 -33t-11.5 -30.5t-21 -43t-24.5 -49.5q-57 -118 -129 -207q53 -36 103 -51q62 -19 102 -19q6 0 10 2l-43 -331q-56 0 -139 12.5t-143 32.5q-72 20 -112.5 40t-76.5 58 q-83 -71 -225.5 -104t-284.5 -35q-89 0 -182 29.5t-155 82.5q-137 110 -140 285zM426 410q0 -52 55.5 -93t112.5 -41q40 0 86 13t72 26l26 13q-36 50 -58 77.5t-66 69.5t-97 78q-28 -11 -47.5 -21.5t-40.5 -27.5t-32 -40.5t-11 -53.5zM549 1114q0 -33 14 -64.5t31 -51.5 t38.5 -46t31.5 -43q7 10 32.5 42t38 50.5t25.5 50t14 62.5q-6 103 -102 109q-26 -2 -55 -10.5t-39 -20.5q-29 -33 -29 -78z"/>
<glyph unicode="'" horiz-adv-x="491" d="M41 1458l113 8h28q3 0 240 7q0 -72 3 -255.5t3 -203.5q0 -37 -6 -48.5t-29 -11.5h-12l-324 19q0 6 -6 96t-10 389z"/>
<glyph unicode="(" horiz-adv-x="667" d="M20 750q0 259 37 385q16 84 57 148t93.5 102.5t121.5 63t135.5 33.5t141.5 9h43l-6 -311q-35 0 -74.5 -13.5t-73.5 -41.5t-42 -64q-7 -54 -14 -189t-7 -200q0 -61 7 -172.5t14 -167.5q17 -72 70 -142.5t120 -70.5l-29 -369q-126 0 -239.5 50t-201 156t-116.5 253 q-12 58 -24.5 219.5t-12.5 321.5z"/>
<glyph unicode=")" horiz-adv-x="659" d="M12 1491h41q481 0 551 -356q37 -126 37 -385q0 -160 -12.5 -321.5t-24.5 -219.5q-29 -147 -116.5 -253t-201 -156t-239.5 -50l-29 369q35 0 68.5 22t57.5 56.5t40.5 69t24.5 65.5q14 108 20 340q-7 293 -20 389q-14 53 -74.5 86t-116.5 33z"/>
<glyph unicode="*" horiz-adv-x="770" d="M20 1122l66 197l188 -62l27 17l-14 182q74 -8 112 -8q49 0 88 8l-12 -180l27 -19l182 52l66 -197l-201 -31l-12 -24l131 -176l-176 -115l-89 199l-30 -4l-107 -187q-22 20 -49 38.5t-69 43t-56 33.5l127 160l-8 28z"/>
<glyph unicode="+" horiz-adv-x="872" d="M20 868h148h106v33l-4 186q142 5 201 9l127 6v-148v-82l254 5l-21 -336q-94 4 -229 4l4 -258l-336 4q4 98 4 254h-53l-186 -4q-6 173 -8 200z"/>
<glyph unicode="," horiz-adv-x="387" d="M20 12l9 387h4q42 0 114 -3t107 -3q52 0 113 6l-7 -325q-37 -51 -62 -97.5t-49.5 -104.5t-35.5 -81l-184 21q22 31 61.5 101t61.5 116z"/>
<glyph unicode="-" horiz-adv-x="731" d="M20 868h148h12l531 9l-21 -336q-189 6 -250 6q-26 0 -98 -1t-121 -1l-186 -4q-6 173 -8 200z"/>
<glyph unicode="." horiz-adv-x="405" d="M20 195q0 93 52.5 141.5t138.5 48.5q49 0 84.5 -18t54 -48t27 -62t8.5 -67q0 -32 -8 -61.5t-26.5 -57.5t-55 -44.5t-86.5 -16.5q-78 0 -133.5 47t-55.5 138z"/>
<glyph unicode="/" horiz-adv-x="935" d="M4 0q11 33 29 72q2 4 20.5 43.5t40 86.5t55.5 126.5t84 203t109 275.5l264 676q62 -4 80 -4q35 0 105 4l118 4h4q21 0 21 -12q0 -9 -6 -21l-281 -731l-31 -76l-143 -405l-90 -242h-379z"/>
<glyph unicode="0" horiz-adv-x="1277" d="M20 668q0 135 22 248t59 193.5t89.5 142.5t110 100.5t125 62.5t129 33.5t127.5 9.5q96 0 177 -24t139 -64.5t103.5 -97t74.5 -118t47.5 -131t26 -133t7.5 -126.5q0 -119 -19.5 -228t-66.5 -211t-117 -176.5t-178 -119.5t-243 -45q-281 0 -440 164t-170 462q-3 27 -3 58z M471 731q0 -38 10 -90t29 -105.5t51.5 -90.5t71.5 -37h8q55 0 97.5 35t64 88t31.5 102t10 90q0 134 -44.5 224.5t-123.5 90.5q-90 0 -147.5 -71t-57.5 -236z"/>
<glyph unicode="1" horiz-adv-x="759" d="M20 954l9 293q12 2 45.5 4.5t66.5 9t66 21.5q34 14 67 39.5t46.5 40t35.5 39.5h353q-7 -793 -7 -918q0 -184 3.5 -296t3.5 -130q0 -9 -1 -40t-1 -54l-500 21q18 324 18 839v148z"/>
<glyph unicode="2" horiz-adv-x="1097" d="M20 -6v336q0 68 32.5 129.5t81.5 104.5t119 86.5t132.5 72.5t135 65.5t114.5 63.5q43 28 62.5 72t19.5 84q0 61 -37.5 96t-106.5 35q-40 0 -67 -25.5t-39 -68.5t-16.5 -79.5t-4.5 -76.5h-401q0 102 16 184.5t43 140.5t67.5 101.5t84 69.5t98 42t104.5 21.5t109 5.5 q138 0 241 -35.5t163.5 -100t89.5 -145t29 -178.5q0 -97 -29 -175t-75.5 -127t-102 -86.5t-111.5 -61.5t-102.5 -43.5t-75.5 -40.5t-29 -45v-23q24 0 62 -1t53 -1q61 0 165.5 4t203.5 4q9 0 12 -98l2 -4q0 -6 -2 -8q2 -27 2 -90v-203h-344h-653q-42 0 -46 -2z"/>
<glyph unicode="3" horiz-adv-x="1239" d="M20 434q44 1 134.5 8t136.5 7q41 0 102 -7q0 -52 12 -86.5t33 -49t38.5 -19t39.5 -4.5h25q90 1 137 34.5t47 92.5q0 49 -19.5 81t-58 47.5t-80 21t-100.5 5.5h-94l20 242q127 -25 166 -25q65 0 99.5 36t37.5 126q0 137 -131 137q-61 0 -102 -35.5t-41 -107.5h-356 q0 242 132.5 377t391.5 135q107 0 190 -10.5t159 -38.5t126 -75t80.5 -122.5t32.5 -177.5q-1 -29 -5 -59t-19 -75t-38.5 -80t-69.5 -66t-106 -41v-5q72 -11 124.5 -39t81 -61.5t46 -79.5t22 -81.5t5.5 -78.5q-2 -77 -24.5 -141t-59 -109.5t-88.5 -80.5t-108.5 -56.5 t-124 -35t-129.5 -18.5t-130 -5q-115 0 -207 28.5t-152.5 76.5t-100.5 115.5t-57.5 141.5t-17.5 158z"/>
<glyph unicode="4" horiz-adv-x="1382" d="M20 602q69 132 177 287t209 294t147 222l623 20q-5 -230 -5 -297q0 -278 13 -587h164l14 -275l-195 25v-316l-485 25l6 315l-663 13zM377 590l323 -33l-16 426h-4z"/>
<glyph unicode="5" horiz-adv-x="1257" d="M18 461l394 -10q70 -152 178 -152q61 0 99.5 30.5t51.5 70.5t13 89q0 99 -31 145t-117 46h-16q-45 0 -82 -29q-45 -42 -66 -82l-424 107l23 719l1128 63l-22 -373q-143 11 -297 11q-130 0 -344 -11q-19 -87 -19 -163q0 -31 2 -45q77 57 197 57q156 -1 263.5 -30.5 t170.5 -88t90 -138.5t27 -192q0 -115 -34.5 -210t-94.5 -161t-141.5 -111.5t-173.5 -67t-193 -21.5q-114 0 -202.5 16.5t-161.5 55.5t-120 101.5t-72.5 156t-25.5 217.5z"/>
<glyph unicode="6" horiz-adv-x="1294" d="M20 659v15q0 122 21.5 231.5t73 213t129.5 178.5t200.5 120t276.5 45q239 0 375.5 -112t136.5 -281q-72 -5 -138.5 -13t-146.5 -19t-133 -17q-6 66 -36 88t-107 25q-42 0 -73.5 -19t-50 -48.5t-29.5 -70.5t-15 -79t-4 -80v-15q84 33 143 44.5t137 13.5q108 0 193.5 -24.5 t141 -65t92 -97.5t52 -118.5t15.5 -131.5q0 -77 -19.5 -150t-62.5 -139.5t-104.5 -117t-152 -80t-198.5 -29.5q-136 0 -246.5 27.5t-184 70.5t-128 107.5t-84 127t-47 140t-22.5 135.5t-5 125zM498 516q25 -254 166 -254q86 0 124.5 37t38.5 117q0 74 -41 122t-108 48 q-38 0 -91 -22.5t-89 -47.5z"/>
<glyph unicode="7" horiz-adv-x="1167" d="M29 1389q15 0 42 -1.5t40 -1.5q164 0 470.5 24t456.5 24q72 0 109 -2v-263q-118 -185 -188 -311.5t-119 -259.5q-60 -162 -94 -314t-44 -341q-182 24 -432 24h-147q29 148 73.5 274t124 264.5t130.5 217t174 252.5q13 19 20 29q-18 2 -59 2q-166 0 -508 -60z"/>
<glyph unicode="8" horiz-adv-x="1308" d="M20 360q0 59 27 115t65 93.5t76.5 67t65.5 42.5l27 14q-105 74 -153.5 153t-49.5 199q0 83 34 152t92.5 116.5t138 80.5t168.5 48t185 15v-2q266 0 406 -90.5t143 -269.5q-1 -69 -24.5 -127t-56.5 -92t-65.5 -57.5t-55.5 -34.5t-23 -13q142 -40 204.5 -137.5t65.5 -257.5 q0 -104 -38.5 -188.5t-101.5 -139t-148.5 -91.5t-174.5 -53t-184 -16q-67 0 -135.5 11.5t-139 34t-132 61.5t-109.5 89.5t-77 121.5t-30 155zM471 381q0 -59 51 -96t146 -37q54 0 115 41.5t61 101.5q0 28 -8.5 51t-19.5 38.5t-34.5 33t-40.5 26.5l-51 27t-53 29 q-16 -20 -63.5 -60.5t-75 -77t-27.5 -77.5zM483 1026q0 -29 4.5 -51t16 -38.5t21 -27t30.5 -20t33.5 -14.5t40.5 -13.5t41 -13.5q85 37 131.5 84.5t46.5 114.5q0 114 -184 118q-77 0 -129 -33t-52 -106z"/>
<glyph unicode="9" horiz-adv-x="1306" d="M20 948q0 76 21 149.5t66 139.5t108.5 116t154.5 79.5t199 29.5q136 0 246.5 -27.5t184 -70.5t128 -107t84 -126t47 -139.5t22.5 -135.5t5 -125v-14q0 -86 -10.5 -167t-35.5 -161t-62 -148t-93.5 -126.5t-127 -100t-165.5 -65t-206 -23.5q-160 0 -281.5 62t-184.5 164.5 t-63 228.5l432 -6q5 -105 146 -105q36 0 64.5 10t55 35t40.5 75.5t14 123.5q0 35 -2 55q-81 -32 -141.5 -43.5t-139.5 -13.5q-134 0 -234.5 36t-158.5 98.5t-85.5 138t-27.5 163.5zM471 969q0 -95 39.5 -132.5t153.5 -37.5q82 0 161 55q-5 115 -49 178.5t-151 63.5 q-65 0 -109.5 -30t-44.5 -97z"/>
<glyph unicode=":" horiz-adv-x="405" d="M20 403q0 93 52.5 142t138.5 49q49 0 84.5 -18t54 -48t27 -62t8.5 -67q0 -32 -8 -61.5t-26.5 -57.5t-55 -44.5t-86.5 -16.5q-78 0 -133.5 46.5t-55.5 137.5zM20 926q0 93 52.5 141.5t138.5 48.5q49 0 84.5 -17.5t54 -47.5t27 -62t8.5 -67q0 -32 -8 -61.5t-26.5 -57.5 t-55 -45t-86.5 -17q-78 0 -133.5 47t-55.5 138z"/>
<glyph unicode=";" horiz-adv-x="387" d="M20 12l9 387h4q42 0 114 -3t107 -3q52 0 113 6l-7 -325q-37 -51 -62 -97.5t-49.5 -104.5t-35.5 -81l-184 21q22 31 61.5 101t61.5 116zM20 713q0 93 52.5 141.5t138.5 48.5q49 0 84.5 -17.5t54 -47.5t27 -62t8.5 -67q0 -32 -8 -61.5t-26.5 -57.5t-55 -45t-86.5 -17 q-78 0 -133.5 47t-55.5 138z"/>
<glyph unicode="&lt;" horiz-adv-x="956" d="M20 881q0 127 9 133q13 8 124.5 29.5t339 68t445.5 98.5v-430l-16 -4q-11 0 -205 -44t-223 -52q-17 -3 -17 -10q0 -37 461 -109v-395q-154 35 -395 87.5t-367.5 81t-130.5 32.5q-7 7 -16 190t-9 324z"/>
<glyph unicode="=" horiz-adv-x="731" d="M20 406h148h4q88 0 217 7t214 14l85 7l2 -336q-94 6 -250 6q-129 0 -219 -2l-186 -4q-5 131 -8 181zM20 868h148h12l531 9l-21 -336q-189 6 -250 6q-26 0 -98 -1t-121 -1l-186 -4q-6 173 -8 200z"/>
<glyph unicode="&gt;" horiz-adv-x="956" d="M20 166v395q461 72 461 109q0 7 -16 10q-29 8 -223 52t-205 44l-17 4v430q218 -52 445 -98.5t339 -68t126 -29.5q8 -5 8 -133q0 -141 -9 -324t-16 -190q-4 -4 -130.5 -32.5t-367.5 -81t-395 -87.5z"/>
<glyph unicode="?" horiz-adv-x="1208" d="M20 961v38q0 225 158 365.5t438 140.5q123 0 222.5 -29.5t163.5 -76.5t107 -110t61 -127t18 -130q0 -251 -104 -345q-60 -55 -194 -80q-23 -5 -73 -13q-82 -14 -108.5 -40t-26.5 -73q0 -13 2 -105t2 -110h-397q0 102 21 185t55 136.5t78 97t89.5 69.5t89.5 50.5t78 43 t55 44.5t21 58q0 180 -131 180q-79 0 -116 -52t-37 -134zM268 4q0 97 61 154t165 57q61 0 104.5 -21t64.5 -55t30 -68t9 -71q0 -67 -56 -123.5t-154 -56.5q-51 0 -100 18t-86.5 62t-37.5 104z"/>
<glyph unicode="@" horiz-adv-x="1536" d="M41 666q0 179 52 324.5t132.5 236t184 152t200.5 86t189 24.5q123 0 226.5 -23.5t173.5 -62t124.5 -91.5t86 -107t51.5 -114t27 -107t7 -91q0 -231 -119 -352t-321 -121q-108 0 -230 35q-16 -21 -45 -32t-55 -11q-119 0 -182 71.5t-68 202.5v25q0 176 66.5 257t167.5 81 q61 0 122 -25v45h50q44 0 106 4l55 2v-254q0 -79 1 -119.5t6 -62t10 -25.5t18 -4h6q23 0 44 6t43.5 21t36.5 49t14 82q0 37 -17 117q-3 31 -21 70.5t-53 82t-79.5 78.5t-108 59t-131.5 23q-101 0 -187.5 -41.5t-144 -111t-90.5 -160t-33 -187.5v-6q0 -34 1.5 -58.5t10 -71.5 t24.5 -81.5t49.5 -75.5t79 -68t117.5 -45t163 -18q97 0 209.5 25.5t187.5 69.5q30 -15 81 -43.5t92 -46.5t95 -33q-170 -262 -723 -262q-189 0 -344 72.5t-252 216.5t-104 337q-2 18 -2 56zM670 737q0 -40 19 -89.5t52 -49.5h2q32 0 53.5 27t28 55.5t6.5 54.5 q0 58 -18.5 96.5t-52.5 38.5q-90 0 -90 -133z"/>
<glyph unicode="A" d="M-4 2q0 6 10 56.5t28.5 134.5t37.5 159q63 251 117.5 514.5t80.5 394.5t35 146q5 8 133 8q142 0 324.5 -8.5t189.5 -15.5q5 -5 64 -275t137 -610.5t121 -478.5q2 -2 2 -9q0 -32 -158 -32h-35h-252l-28 241q-31 11 -125 11q-78 0 -193 -11l-30 -209l-230 -12zM543 514 q0 -12 121 -12q84 0 84 8l-95 485q-8 0 -14 -24q-8 -28 -52 -236.5t-44 -220.5z"/>
<glyph unicode="B" horiz-adv-x="1140" d="M25 184q0 192 5 494.5t11 519.5t8 219q116 4 354 4q95 0 150.5 -1.5t136 -9t127.5 -22t102 -42.5t84.5 -68.5t49.5 -101.5t20 -140q0 -75 -40.5 -148.5t-102.5 -111.5q196 -115 196 -334v-14q0 -210 -85.5 -308.5t-260.5 -119.5q-218 -27 -536 -27q-48 0 -95.5 0.5 t-77.5 1t-36 0.5h-6q-4 82 -4 209zM406 1126l4 -55l6 -174q118 0 176 13.5t75 39t17 76.5q0 28 -13.5 48t-31.5 30t-49 15t-51 6t-52 1h-8h-73zM410 563l2 -145l10 -78q63 -16 131 -16q162 0 162 112q0 34 -8 55.5t-32 39t-70.5 25t-119.5 7.5h-75z"/>
<glyph unicode="C" horiz-adv-x="1327" d="M12 664q0 138 23 253t62.5 197.5t95 146.5t116.5 103.5t132 65t136 35.5t134 10q121 0 222.5 -36.5t169 -95.5t115 -135t68.5 -153t21 -152l-433 -8q-35 127 -137 127q-63 0 -108 -26t-70 -72.5t-36 -102t-11 -123.5q0 -75 14.5 -132.5t36.5 -90t51.5 -53t54.5 -27 t52 -6.5q51 0 92 28t59 81l19 59h156q182 0 213 -2l47 -2l-2 -43q-7 -120 -48 -217.5t-103.5 -162t-144.5 -108t-168.5 -62.5t-178.5 -19q-313 0 -481.5 189t-168.5 534z"/>
<glyph unicode="D" horiz-adv-x="1267" d="M12 6q33 602 33 942v60l-4 413l117 2q173 0 243 2h52q155 0 269.5 -13t205.5 -44.5t150.5 -80.5t98.5 -124t55.5 -172.5t16.5 -228.5q0 -133 -13 -233.5t-45 -189t-86.5 -149.5t-135.5 -105t-194.5 -64.5t-262.5 -20.5h-104q-244 0 -396 6zM524 1012q0 -140 13 -572h41 q68 0 95 11.5t64 60.5q56 74 56 223q0 76 -17 142.5t-47 97.5q-37 41 -135 41q-16 0 -70 -4z"/>
<glyph unicode="E" horiz-adv-x="999" d="M12 -2q0 5 2 34.5t5 93.5t6.5 160.5t5.5 269t2 386.5v62l-2 487q31 -8 295 -8q125 0 279.5 1.5t257.5 3.5t116 3l-10 -152l-8 -186q0 -3 -50 -4.5t-157.5 -9.5t-214.5 -25v-106q0 -50 4 -66t14 -18q16 -4 41 -4q34 0 184 12l133 10l-4 -328l-354 -28l-4 -197l195 10 q74 4 198 4h12q15 0 15 -200v-203l-477 -2q-101 -1 -207.5 -2.5t-172.5 -2.5t-87 -1h-15q-2 0 -2 6z"/>
<glyph unicode="F" horiz-adv-x="997" d="M27 53q0 25 1.5 138t3 327.5t1.5 485.5l2 432q21 4 477.5 7t464.5 3l-10 -184l-11 -156h-2q-3 0 -35 5.5t-87 11t-113 5.5q-90 0 -182 -14v-106q0 -111 18 -111q240 -12 395 -14l15 -305l-449 4l4 -129l12 -453q-240 -8 -421 -8h-27t-22 0.5t-16 1t-11 0.5h-4q-4 8 -4 59 z"/>
<glyph unicode="G" horiz-adv-x="1241" d="M6 678q0 130 22 256t62 211q26 55 60.5 102t70 80t78 60t79.5 44t80 29.5t74 18.5t66 9.5t52.5 4t37.5 0.5q16 0 36.5 -1.5t63 -10.5t82.5 -24t88 -45t86.5 -71t71 -105.5t47.5 -143.5q17 -97 17 -131q0 -15 -2 -15q-129 -8 -156 -8q-24 0 -118 -6t-105 -6 q-14 0 -18.5 4.5t-4.5 19.5q-1 51 -40 84t-93 33q-49 0 -95 -32t-75 -97q-47 -108 -47 -252q0 -101 26 -182t72 -109q39 -24 94 -24q74 0 127.5 33.5t53.5 95.5l-125 -2l-4 112v33q0 111 8 119q9 6 272 10l262 2l7 -55q2 -14 2 -53q0 -83 -13 -194.5t-32 -172.5 q-46 -158 -194 -248t-333 -90q-105 0 -205 31.5t-186.5 92t-149 161.5t-85.5 229q-17 100 -17 203z"/>
<glyph unicode="H" horiz-adv-x="1257" d="M12 6l27 490q0 14 3 168t3 262v82l-4 381q35 3 112.5 9t118 9t103 6t117.5 4v-426v-59h4q11 0 57.5 -2t79.5 -2q55 0 86 4l61 8q0 12 -1 34t-1 34l-4 450q39 3 110.5 9t114 9.5t103.5 6.5t115 4v-496q1 -247 6 -451.5t9.5 -319t4.5 -148.5v-37q0 -29 -6 -35l-486 6 l27 490q0 8 1 47t1 69l-278 -22q3 -161 9.5 -323.5t6.5 -194.5q0 -60 -12 -72z"/>
<glyph unicode="I" horiz-adv-x="579" d="M20 6l27 490q0 14 3 168t3 262v82l-4 381h117q104 0 244 8l127 6v-424q0 -248 4.5 -453t9 -320.5t4.5 -146.5q0 -60 -10 -73z"/>
<glyph unicode="J" horiz-adv-x="1224" d="M-10 614q129 -12 256 -12q102 0 207 6q0 -14 4 -30q13 -58 44.5 -99t73.5 -41q144 0 144 398q0 125 -30 319.5t-30 218.5q0 19 5 29q10 10 245 20l250 11q51 -252 51 -557q0 -127 -9.5 -245t-20.5 -179.5t-19 -63.5q-22 -111 -77.5 -197.5t-132 -139.5t-165 -80 t-182.5 -27q-163 0 -302.5 74.5t-207.5 209.5q-78 154 -104 385z"/>
<glyph unicode="K" horiz-adv-x="1214" d="M23 29l2 723q1 119 1.5 233.5t1 193.5t1 140t0.5 92v31q0 2 26 2q25 0 437 -23q-7 -49 -7 -245q0 -95 2 -134l7 -96q15 -6 36 -6q56 0 93.5 18t55.5 51.5t25 68.5t7 81q0 71 -6 169.5t-7 133.5l222 -6l229 -8q3 -48 8.5 -133t8.5 -141t3 -93q0 -83 -20.5 -147t-49.5 -97 t-58 -53t-49.5 -28.5t-20.5 -10.5t12.5 -4t32 -10t43 -24.5t47.5 -54.5t43.5 -92t32 -145t12.5 -206v-148q0 -65 -4 -69q0 -2 -12 -2q-4 0 -29 1t-45 1h-96h-54h-231q6 171 6 174q0 119 -18 229.5t-47 145.5q-46 55 -99 55q-31 0 -51 -4q-15 -5 -20 -18.5t-5 -63.5 q0 -84 7 -256l10 -254z"/>
<glyph unicode="L" horiz-adv-x="958" d="M27 520q0 38 1 119.5t1 124.5l6 674l495 45l-10 -275l-6 -147q-8 -172 -8 -295q0 -95 6 -193.5t6 -150.5q61 -5 141.5 -14t134.5 -12t142 -3l8 -409q-128 -11 -625 -11q-286 0 -286 9l-1 14q0 15 -0.5 41t-1 61.5t-1 82.5t-1 98.5t-1 114.5t-0.5 126z"/>
<glyph unicode="M" horiz-adv-x="1769" d="M8 16v2q0 1 1 4.5t1 4.5q24 134 36.5 415t12.5 572q0 76 -1 189t-1 145q0 88 4 92t68 4q65 0 261 -5t251 -5q127 0 133 -9q6 -10 20.5 -99.5t41.5 -251.5t57 -300q31 145 59.5 303.5t43 253.5t14.5 111q0 3 12 7t37.5 7.5t56.5 3.5q551 0 561 -10q5 -5 14 -289.5 t28 -645.5t46 -515q-140 -8 -215 -8l-313 -10q29 476 29 768q0 196 -23 196q-17 0 -84 -320.5t-110 -555.5l-119 -13l-209 -14q-8 16 -12 49l-168 834q-49 0 -49 -774v-41q-3 -33 -9 -49.5t-22 -29.5t-47.5 -17t-81 -6t-125.5 -3h-25q-43 -2 -104 -2q-33 0 -48.5 1.5 t-18.5 3.5t-3 7z"/>
<glyph unicode="N" horiz-adv-x="1398" d="M27 10v2q0 1412 16 1428q4 4 68 4q65 0 251.5 -5t241.5 -5q127 0 133 -9q12 -21 90 -336.5t127 -551.5v43q0 122 -6 258.5t-6 140.5l-16 481q440 0 450 -10q2 -2 2 -61q0 -64 -9 -466.5t-9 -615.5q0 -315 -23 -315h-96l-303 8l-213 16q-8 16 -12 47l-191 895 q-49 0 -49 -806v-41q-5 -61 -7 -67q-8 -24 -50 -30q-33 -6 -199 -8q-43 -2 -104 -2h-56q-23 0 -26.5 0.5t-3.5 5.5z"/>
<glyph unicode="O" horiz-adv-x="1226" d="M8 651q0 170 50 330t149 283.5t229 167.5q76 26 189 26q80 0 155.5 -16t156.5 -60.5t140.5 -113.5t98 -186.5t38.5 -268.5q0 -99 -14 -203q-41 -298 -206.5 -462t-426.5 -164q-114 0 -208 36.5t-158 99t-108.5 148t-64.5 182t-20 201.5zM422 645q0 -72 14 -135 q10 -49 44 -75.5t79 -26.5t87 27t67 77q25 54 42 139.5t17 165.5q0 130 -43 170q-54 51 -106 51q-57 0 -103.5 -56t-72 -145.5t-25.5 -191.5z"/>
<glyph unicode="P" horiz-adv-x="1146" d="M8 1415q0 33 2 35q225 31 465 31q336 0 469 -78q93 -54 146 -160t53 -229q0 -71 -18 -138t-56.5 -129.5t-95 -110.5t-138.5 -81t-182 -41q-95 -7 -104 -20q-2 0 -1 -13q0 -35 25 -225t25 -221v-10q-9 -7 -183 -18t-278 -11q-59 0 -63 4q-13 13 -17 135.5t-11.5 409.5 t-22.5 551q-15 268 -15 319zM467 1135l4 -144q5 -110 15 -142t46 -32q18 0 66 10q78 15 112.5 49.5t34.5 100.5v8q0 22 -2 37.5t-13 38.5t-31 37.5t-60.5 25.5t-97.5 11h-74z"/>
<glyph unicode="Q" horiz-adv-x="1222" d="M4 653q0 84 8 160q31 298 190.5 462.5t420.5 164.5q118 0 216 -39.5t164.5 -106t112.5 -157.5t67 -192t21 -210q0 -166 -49 -322.5t-139 -267.5l6 -6l108 -108l-196 -166l-127 129l-4 -2q-79 -27 -187 -27q-57 0 -113 8.5t-117.5 30t-115.5 55t-103.5 88t-85 124 t-56.5 167.5t-21 215zM446 631q0 -75 15 -127t41 -76t50 -33.5t52 -9.5q54 0 96.5 52t65 134.5t22.5 178.5q0 95 -18 163q-12 49 -46 76t-79 27q-43 0 -84 -27.5t-65 -77.5q-22 -50 -36 -127t-14 -153z"/>
<glyph unicode="R" horiz-adv-x="1265" d="M20 1186q0 193 13 203q3 2 57.5 4.5t148 4t191.5 1.5q431 0 539 -39q100 -37 166.5 -99.5t94 -130.5t27.5 -143q0 -48 -9 -91.5t-24 -76t-34.5 -61.5t-41.5 -49.5t-43.5 -37t-41.5 -27t-35 -17.5t-25 -11l-10 -4q1 0 4.5 0.5t9.5 1t11 0.5q21 0 41.5 -7t49 -36.5 t49.5 -79t37 -145t17 -223.5l2 -209q-46 -6 -106 -6q-88 0 -170 6l-174 10l-2 158q-1 96 -10 162t-22 103.5t-37 59.5t-44.5 29t-56.5 13l-55 10l10 -226q6 -117 6 -163q0 -40 -5 -51t-18 -11q-3 0 -245 -8l-219 -8l-9 69q-1 3 -10 201.5t-18 477.5t-9 446zM489 915 q0 -128 11 -143q3 -8 41 -8q67 0 115.5 16.5t72 44t33.5 54.5t10 57q0 35 -14.5 59.5t-33 36.5t-49.5 18.5t-50.5 7.5t-49.5 1q-60 0 -73 -22.5t-13 -106.5v-15z"/>
<glyph unicode="S" horiz-adv-x="1286" d="M8 961q0 95 43.5 183.5t120.5 157.5t195 110.5t256 41.5q83 0 160.5 -13t159 -47.5t141.5 -88.5t98.5 -144.5t38.5 -206.5h-435q-10 25 -18.5 40.5t-26.5 35t-47.5 29.5t-70.5 10q-25 0 -41 -2q-56 -6 -87.5 -37t-31.5 -82q0 -48 43.5 -64.5t197.5 -40.5q92 -15 148 -24 q226 -39 322 -132.5t96 -231.5q0 -88 -27.5 -163.5t-72.5 -127.5t-104 -93.5t-119 -66.5t-122 -41.5t-108.5 -22.5t-81.5 -6q-262 0 -416 124t-182 350l-12 73l483 -8q0 -46 49.5 -86.5t110.5 -40.5q66 0 119 38t53 89q0 42 -41 60t-156 32q-14 2 -81 10t-85.5 11t-73 11 t-79 15.5t-64.5 18.5t-69 25t-56 32q-55 36 -91 120t-36 153z"/>
<glyph unicode="T" horiz-adv-x="1177" d="M-10 1432q10 -2 59 -2q47 0 152 1t123 1h624h221l-8 -152l-10 -223q0 -2 -285 -2h-32h-35v-121q0 -114 5 -444t5 -424q0 -21 -1 -48t-1 -32l-524 20l26 490q8 236 8 387q0 53 -2 80v90q-86 -2 -217 -2q-90 0 -90 2q0 92 -8 225z"/>
<glyph unicode="U" horiz-adv-x="1200" d="M18 897q0 245 19 432l10 111l229 -6q226 -7 232 -13t4 -20q-1 -6 -15.5 -119t-24 -230t-9.5 -223q0 -240 57 -297q26 -26 76 -26q51 0 74 26q64 70 67 592l4 320l199 4q37 2 102 2q103 0 109 -6q35 -22 35 -424q0 -198 -15 -348q-23 -236 -72 -359t-155 -209 q-81 -66 -182.5 -99.5t-206.5 -33.5q-102 0 -193 30t-155 85q-78 68 -117.5 158t-55.5 238t-16 415z"/>
<glyph unicode="V" d="M-10 1374q0 15 88 15q40 0 104 -3q187 -3 220 -10q35 -8 42 -35q3 -10 7 -59q112 -848 165 -848q8 0 11 17q8 29 52 223t44 205l57 286l31 209l229 -12q225 -7 230 -12q0 -6 -76 -310q-63 -251 -117.5 -514t-80.5 -394t-35 -146q-6 -9 -134 -9q-141 0 -324 9t-190 16 q-5 5 -63.5 275t-136.5 610.5t-121 478.5q-2 2 -2 8z"/>
<glyph unicode="W" horiz-adv-x="1908" d="M-10 1374q0 15 88 15q40 0 104 -3q192 -3 227 -10q40 -9 50 -38q5 -15 8 -56q96 -782 149 -782q7 0 28.5 95t39.5 189l18 95l86 479q2 15 5 27t5 17l3 5l209 -14l118 -13l89 -495q88 -426 106 -426q24 0 52.5 238t44.5 476l16 238l254 -2q75 0 215 -8q-41 -143 -113 -493 t-126.5 -626.5t-59.5 -281.5q-7 -7 -133 -12.5t-277 -5.5q-31 0 -56.5 3.5t-37.5 7.5t-12 7q0 13 -12.5 72.5t-46.5 213t-58 263.5q-18 -82 -37.5 -175.5t-30.5 -147t-22 -103.5t-17.5 -75t-11.5 -32q-5 -8 -133 -8q-61 0 -195 -5t-170 -5q-39 0 -43 4q-5 5 -63.5 275 t-136.5 610.5t-121 478.5q-2 2 -2 8z"/>
<glyph unicode="X" horiz-adv-x="1400" d="M10 18q0 7 2 11l316 452l149 217l-448 727h471l198 -360l207 348q79 8 160 8q68 0 172.5 -5.5t159.5 -6.5l-479 -721q23 -40 52.5 -93.5t48 -86.5t28.5 -47l337 -504l-538 47l-144 338l-153 -342l-502 4q-37 0 -37 14z"/>
<glyph unicode="Y" horiz-adv-x="1150" d="M0 1419l397 11q155 -512 183 -512q7 0 10 16q1 4 110 496l451 -21q-217 -642 -322 -891v-119l-6 -409l-213 18l-258 2q0 208 10 443v75q-12 15 -75 147t-151 351.5t-136 392.5z"/>
<glyph unicode="Z" horiz-adv-x="964" d="M12 1434q16 -4 406 -4q44 0 142 1t114 1l260 -2l12 -130q4 -39 4 -104l-4 -102l-151 -312q-77 -118 -236 -432h12q359 0 367 2l4 -155v-15q0 -29 -2 -58t-4.5 -50t-5 -38t-4.5 -26l-2 -10q0 -2 -84 -2q-22 0 -158.5 2t-181.5 2l-451 -2q-10 61 -10 141q0 26 4 80l12 129 q9 69 391 613l43 90q-82 -2 -372 -2q-84 0 -84 2z"/>
<glyph unicode="[" horiz-adv-x="788" d="M27 336v532q0 63 0.5 130t1 125t1 113t1 98t1 75.5t0.5 50.5l1 19q0 8 205 8q409 0 526 -10l-8 -228q-85 0 -120 -3t-80 -11t-120 -14q0 -50 -5 -258t-5 -332q0 -119 2 -180q8 -296 8 -402q75 -6 120 -14t80 -11.5t120 -3.5l8 -221q-117 -10 -526 -10q-205 0 -205 8 l-1 15q0 14 -0.5 40t-1 61.5t-1 83t-1 99t-1 114.5t-0.5 126z"/>
<glyph unicode="\" horiz-adv-x="935" d="M4 1475q0 12 21 12h4l118 -4q70 -4 105 -4q18 0 80 4l262 -676q59 -152 109.5 -275.5t85 -202.5t56 -127t40 -86.5t20.5 -43.5q27 -65 29 -72h-379l-90 242l-146 405l-28 76l-281 731q-6 12 -6 21z"/>
<glyph unicode="]" horiz-adv-x="815" d="M35 -201l8 197q85 0 120.5 3.5t81 11.5t120.5 14q0 241 10 426q2 61 2 180q0 124 -6 344t-6 270q-75 6 -120.5 14t-81 11.5t-120.5 3.5l-8 203q117 10 446 10q287 0 287 -8v-19q1 -18 1.5 -50.5t1 -75.5t1 -98t1 -113t1 -125t0.5 -130v-532q0 -63 -0.5 -126t-1 -114.5 t-1 -99t-1 -83t-1 -61.5t-1.5 -40v-15q0 -8 -287 -8q-329 0 -446 10z"/>
<glyph unicode="^" d="M238 1147q31 49 109.5 154t94.5 133l189 -7l198 7q16 -33 75.5 -136.5t74.5 -136.5h-4q-17 0 -94 -11t-156 -13q-48 71 -92 153l-105 -153q-61 2 -156.5 6t-123.5 4h-10z"/>
<glyph unicode="_" horiz-adv-x="1159" d="M20 -16h148h14l957 8l-21 -174q-189 6 -567 6q-150 0 -330 -4l-186 -4q-1 23 -1.5 30.5t-1.5 12t-4 36.5t-8 89z"/>
<glyph unicode="`" d="M141 1448h13q71 0 403 10q98 -196 98 -264q0 -27 -18 -27l-270 -6q-80 113 -226 287z"/>
<glyph unicode="a" d="M-10 -6l2 6q43 139 121 497.5t136.5 647t63.5 293.5q7 7 189.5 15.5t324.5 8.5q129 0 134 -8q9 -15 35 -146t80.5 -394.5t117.5 -514.5q19 -75 37.5 -166.5t28.5 -150t10 -66.5l-30 -2q-30 -1 -87.5 -4t-112.5 -6l-229 -10l-31 280l-155 -10q-155 -7 -162 -14l-25 -260z M518 557q0 -8 84 -8q43 0 82 4t39 8q0 12 -44 222t-52 237q-6 22 -15 22q-27 0 -60.5 -222t-33.5 -263z"/>
<glyph unicode="b" horiz-adv-x="1181" d="M27 1221q0 170 2 170q151 30 389 30q78 0 117.5 -0.5t108.5 -3.5t105.5 -9t91.5 -18t84.5 -29.5t65.5 -44t53.5 -61t30 -81.5t12.5 -105q0 -89 -26 -173.5t-82 -119.5q184 -108 184 -334v-12q0 -107 -25.5 -186t-75 -128.5t-114.5 -77t-153 -38.5q-218 -27 -537 -27 q-48 0 -95.5 0.5t-77.5 1t-36 0.5h-6q-7 116 -11.5 529.5t-4.5 716.5zM412 1098l4 -56l6 -174q118 0 176 13.5t75 39t17 76.5q0 28 -13.5 48t-31.5 30t-48 15.5t-51 6.5t-52 1h-9h-73zM424 563l6 -143q2 -66 6 -91t12 -32.5t29 -7.5h12h27q32 0 61.5 4.5t67.5 18t61 45.5 t23 79q0 46 -15 71t-66 40.5t-148 15.5h-76z"/>
<glyph unicode="c" horiz-adv-x="1247" d="M6 680v57q2 125 26 229.5t63 179.5t93.5 133.5t113 94.5t125.5 59.5t128 32.5t123 9q137 0 257 -54t201.5 -160t92.5 -243l10 -144l-424 -8v4q0 80 -39.5 133.5t-97.5 53.5q-49 0 -85.5 -34.5t-56 -92t-28.5 -119t-10 -127.5v-16q0 -59 7.5 -111t23 -98.5t44 -73.5 t66.5 -27q21 0 39 3.5t31.5 7.5t25.5 14t20 16.5t16.5 21.5t12.5 23t10 27t8 27l7.5 30t7.5 29q23 -2 74 -2q58 0 176.5 4t159.5 4h2q0 -132 -34.5 -238.5t-93 -177t-138 -118t-166 -68t-181.5 -20.5q-271 0 -428 172.5t-180 492.5q-2 25 -2 74z"/>
<glyph unicode="d" horiz-adv-x="1282" d="M12 -25l27 521q8 228 8 401q0 74 -2 111l-6 440l115 2q61 0 180.5 4t177.5 4q170 0 298 -26.5t224 -98.5q106 -79 163.5 -245t57.5 -363q0 -194 -57.5 -363.5t-163.5 -257.5q-100 -82 -224.5 -105.5t-367.5 -23.5h-299h-131zM528 1081q1 -45 2.5 -219t2.5 -312.5 t4 -187.5q63 0 109 18t75.5 51t46.5 86t24 114.5t7 144.5q0 170 -63.5 237.5t-207.5 67.5z"/>
<glyph unicode="e" horiz-adv-x="1021" d="M12 -2q0 6 2 38t5.5 100t6.5 171t5.5 286.5t3.5 410.5v432q24 4 468.5 45t477.5 43l-10 -185l-8 -186q0 -3 -50 -4.5t-157.5 -9.5t-214.5 -25l-4 -221q81 0 264 14l131 11l-6 -256l-391 -31l-5 -242l220 10q63 3 119.5 6t84.5 5t31 2q14 0 14 -201v-203l-501 -10 q-414 -8 -443 -8l-41 2q-2 0 -2 6z"/>
<glyph unicode="f" horiz-adv-x="915" d="M18 74q0 33 5 146.5t10 318t6 452.5v496l127 -8q191 -11 366 -11q172 0 359 9l6 -473q-16 -13 -74 -13q-24 0 -72 1.5t-126 4t-150 4.5v-26v-43v-105l129 9l246 14l2 -338l-373 -12q1 -26 2.5 -50t1.5 -36l-6 -398l-446 -16q-13 13 -13 74z"/>
<glyph unicode="g" horiz-adv-x="1290" d="M10 618q0 139 29.5 284t79.5 243q39 76 91.5 138t103.5 100t111.5 66t105.5 41t95.5 20.5t71.5 8.5t43 1h2q18 0 38.5 -1t70.5 -10t94 -24t99.5 -47t98 -75.5t77.5 -113.5t49 -157q12 -86 12 -138l-168 -16l-262 -20l-2 32q0 50 -41.5 83.5t-99.5 33.5q-53 0 -103.5 -32 t-83.5 -97q-61 -122 -61 -276q0 -94 25 -166.5t71 -100.5q47 -24 94 -24q63 0 107.5 35.5t44.5 91.5l-74 2l-70 4v106q0 108 15 115q10 6 293 10l280 2l6 -55v-29q0 -72 -17.5 -178.5t-41.5 -175.5q-57 -159 -210.5 -248.5t-342.5 -89.5q-85 0 -166.5 19t-157 60 t-135.5 100.5t-103 145.5t-59 189q-10 72 -10 143z"/>
<glyph unicode="h" horiz-adv-x="1210" d="M20 74q0 33 5 146.5t10 318t6 452.5v496q90 -1 245.5 -14t194.5 -15l-4 -483v-21v-45l129 9q26 2 66 10t49 8h4v59v426h27q76 0 215 17t209 20l-7 -446v-82q0 -371 2 -430l19 -527l-473 -6q-12 12 -12 72q0 31 2.5 106t6.5 200.5t7 248.5l-240 -12q3 -71 4 -86l23 -490 l-475 -6q-13 13 -13 74z"/>
<glyph unicode="i" horiz-adv-x="583" d="M43 6q0 194 1 423.5t2.5 514t2.5 445.5h117q104 0 244 8l126 6v-424q0 -248 5 -453t9.5 -320.5t4.5 -146.5q0 -60 -10 -73z"/>
<glyph unicode="j" horiz-adv-x="1249" d="M-4 541q37 7 254 37l209 28q15 -67 49 -127.5t74 -60.5q192 0 192 446q0 118 -15 263t-25.5 211t-18.5 108q4 4 76 4q89 0 237.5 -6t181.5 -10q25 -190 25 -408q0 -160 -13.5 -314t-29 -237t-25.5 -86q-22 -111 -77.5 -197.5t-132 -139.5t-165 -80t-182.5 -27 q-141 0 -250.5 41t-174 102t-107.5 145.5t-60 157t-22 150.5z"/>
<glyph unicode="k" horiz-adv-x="1220" d="M29 -20l2 772q1 119 1.5 236t1 199t1 146.5t0.5 97v33.5q0 11 287 11l153 -5l31 -542q15 -6 31 -6q45 0 78.5 14.5t52.5 37t30.5 55.5t15 63t3.5 67q0 67 -2 158t-2 158q7 0 23.5 -1t25.5 -1q60 0 193 7t180 7h28q-2 -27 -2 -82q0 -67 4 -182t4 -142q0 -83 -20 -141.5 t-48.5 -83.5t-57 -37.5t-48.5 -15t-20 -4.5t12.5 -7t32.5 -16.5t44 -31.5t48.5 -59t44.5 -91t32.5 -136t12.5 -186q0 -10 -1 -30.5t-1 -32.5v-41q0 -57 2.5 -103.5t5 -71t2.5 -28.5l-2 -4q-3 -6 -98 -6q-96 0 -140.5 -1t-95.5 -3t-124 -4q1 25 2.5 68.5t2.5 80t1 70.5 q0 118 -18 228t-48 145q-21 25 -54.5 40t-64.5 15q-10 0 -30 -4q-15 -5 -20 -18.5t-5 -63.5q0 -107 6 -254l10 -254z"/>
<glyph unicode="l" horiz-adv-x="1038" d="M27 1483h503l-10 -275l-6 -147q-8 -172 -8 -303q0 -104 6 -217t6 -165q67 2 160 7t169.5 7.5t162.5 2.5l8 -409q-48 -4 -294 -7.5t-405 -3.5q-286 0 -286 9q0 1 -0.5 103t-1.5 297.5t-2 381.5z"/>
<glyph unicode="m" horiz-adv-x="1693" d="M-10 18q0 7 2 9q67 213 67 987q0 76 -1 189t-1 145q0 88 4 92q8 8 231 23.5t331 15.5q96 0 102 -9q11 -10 31 -185t43 -343t43 -168h2q30 0 73.5 304.5t43.5 363.5l626 8q6 -6 22.5 -298t37 -695.5t28.5 -534.5q-140 -8 -215 -8l-258 -10q-2 538 -2 852q0 223 -12 223 q-17 -4 -84.5 -328.5t-110.5 -562.5q-43 0 -144 2t-149 2q-8 16 -12 49l-168 817q-17 0 -29.5 -212t-16.5 -424l-3 -211l-6 -111q-23 0 -199 2t-188 2q-88 0 -88 14z"/>
<glyph unicode="n" horiz-adv-x="1390" d="M29 -10q0 1471 14 1485q4 2 12 2q25 0 241.5 -21.5t291.5 -21.5q127 0 133 -9q11 -20 97.5 -376t135.5 -596v57q0 328 -12 469l-33 432q439 0 449 -10q4 -4 4 -141q0 -74 -2 -338.5t-2 -415.5q0 -362 10 -506q-23 -2 -41 -4t-29.5 -3t-31.5 -1h-25l-303 8l-213 16 q-8 16 -12 47l-234 895q0 -49 -3 -400t-3 -449v-142q-20 0 -161.5 7.5t-196.5 7.5h-56q-23 0 -26.5 0.5t-3.5 5.5v2z"/>
<glyph unicode="o" horiz-adv-x="1384" d="M8 664q0 143 26.5 263.5t71 205t106.5 151t129 107t144 66.5t145 36t138 10q117 0 211 -28q126 -42 218 -151t136.5 -253t44.5 -305q0 -123 -27 -240.5t-85 -224.5t-141 -187t-204 -127.5t-264 -47.5q-298 0 -467 174t-180 491q-2 20 -2 60zM516 731q0 -153 37 -231 q22 -53 67 -82t97 -29q51 0 92 28t59 81q35 104 35 225q0 140 -50 237t-134 97q-63 0 -127 -53q-38 -31 -57 -106.5t-19 -166.5z"/>
<glyph unicode="p" horiz-adv-x="1138" d="M4 -47l10 113q2 26 9 88t9.5 105.5t6.5 197.5t8 411l6 607l18 1q18 1 48.5 3t69 4t89 3t99.5 1q445 0 573 -92q90 -61 138.5 -171t48.5 -235q0 -103 -35.5 -199t-102.5 -163q-111 -111 -294 -129l-156 -17l8 -159q1 -33 2.5 -88.5t2.5 -96t1 -61.5l2 -88l-159 -8 q-177 -10 -302 -19zM516 1034q0 -73 6 -149.5t13 -85.5q2 -2 22 -2q42 0 86 8q94 17 128 51.5t34 112.5q0 51 -11.5 82t-40.5 47t-64.5 21t-96.5 5q-48 0 -62 -16.5t-14 -73.5z"/>
<glyph unicode="q" horiz-adv-x="1224" d="M8 793q0 706 543 706q101 0 185.5 -21t147 -57t112 -90t82.5 -113.5t57 -134t36.5 -145.5t20.5 -154q4 -70 4 -106q0 -150 -38 -311t-101 -269l119 -176l-261 -41l-55 88q-73 -53 -170 -53q-84 0 -164 17t-169 65t-157 123t-119 202t-65 291q-8 126 -8 179zM451 676 q0 -42 4 -96q11 -120 53.5 -175.5t97.5 -66.5l-84 141l209 33q4 -7 15.5 -40t15.5 -40q29 88 29 275q0 16 -3.5 44t-3.5 33q-4 52 -14 96t-28.5 87t-51 67.5t-76.5 24.5q-37 0 -65.5 -14.5t-45.5 -43.5t-28 -61t-16 -81t-6.5 -87.5t-1.5 -95.5z"/>
<glyph unicode="r" horiz-adv-x="1247" d="M29 -20l2 733q1 188 2 375t1 282l1 94q0 9 287 9q354 0 471 -13q167 -17 286.5 -90.5t141.5 -171.5q16 -68 16 -117q0 -93 -24.5 -170t-59.5 -122t-70 -75.5t-59.5 -45t-24.5 -15.5q0 -3 12.5 -5t32 -9t43.5 -21.5t48 -48t43.5 -81.5t32 -130.5t12.5 -187.5 q0 -56 -4 -102t-8.5 -66.5t-8.5 -24.5t-86 -4q-94 0 -151 2l-226 11l4 131q1 7 2 4v6q0 113 -17 198.5t-48 120.5q-45 58 -109 58q-15 0 -30 -6q-15 -5 -20 -18t-5 -62q0 -56 6 -203l10 -235h-503zM500 797h90q108 0 154.5 36.5t46.5 120.5q0 36 -7 60.5t-26 46t-57.5 31.5 t-96.5 10h-84q-20 -100 -20 -207v-98z"/>
<glyph unicode="s" horiz-adv-x="1263" d="M14 979q0 104 38.5 198t110 167.5t184.5 117t251 43.5q289 0 458 -129t169 -348v-76l-463 -16q0 90 -41 138t-96 48q-127 0 -127 -102q0 -70 40.5 -93.5t206.5 -60.5q266 -56 382 -169.5t116 -321.5q0 -67 -24.5 -130.5t-57.5 -106.5t-75 -81t-69 -55.5t-48 -28.5 q-71 -35 -161.5 -54t-172.5 -19q-120 0 -227 39.5t-188.5 111.5t-129 180.5t-47.5 237.5v43q51 -2 208 -6t247 -12q4 -12 11.5 -38.5t11.5 -37.5t12 -31.5t16.5 -29.5t21 -20t29 -15.5t37.5 -4.5q35 0 59.5 9t37 20t18.5 33t7 35.5t1 40.5q0 39 -22 65.5t-74.5 42t-80.5 20 t-97 12.5q-16 2 -23 3q-32 4 -70 12.5t-92 26t-102 47t-91 68.5t-68.5 98t-25.5 129z"/>
<glyph unicode="t" horiz-adv-x="1177" d="M-4 1456q6 -2 82 -2q49 0 143.5 1t108.5 1h624q53 0 100 0.5t73 1t28 0.5l12 -153q2 -20 2 -66q0 -40 -2.5 -85.5t-4.5 -71.5l-3 -25q0 -2 -41 -2q-14 0 -118.5 1t-194.5 1v-99q0 -114 5 -437t5 -417q0 -21 -1 -47.5t-1 -31.5l-473 -29q-3 176 -7.5 363.5t-6.5 304 t-2 243.5q0 41 -1 59.5t-1 88.5q-78 -2 -197 -2q-111 0 -111 2q0 115 -8 248z"/>
<glyph unicode="u" horiz-adv-x="1218" d="M14 1130q0 194 21 328l248 -10q217 -9 217 -21q0 -2 -1 -4.5t-1 -3.5q0 -4 -4.5 -252.5t-3.5 -392.5v-14q0 -48 0.5 -76t3.5 -69.5t11 -65.5t21 -48.5t35 -36t51 -11.5q46 0 72.5 24t38.5 78q16 73 16 274q0 117 -5.5 260.5t-11.5 228.5l-5 85q0 3 225 14l219 8 q7 -31 16 -92t19 -188.5t10 -255.5q0 -443 -121 -682q-70 -139 -190.5 -212t-276.5 -73q-119 0 -211 31.5t-155.5 81.5t-108 139.5t-69.5 179t-39 227t-17.5 256t-3.5 293.5z"/>
<glyph unicode="v" horiz-adv-x="1310" d="M-8 1399l229 -4l230 -15l30 -206l58 -289q0 -10 44 -220t52 -237q3 -14 10 -14q24 0 66 249.5t72 498.5l30 249l254 -2q100 0 240 -8q-43 -138 -121.5 -487.5t-138 -629t-64.5 -284.5q-7 -7 -157.5 -12.5t-307.5 -5.5q-210 0 -217 10q-9 15 -35 146t-81 395t-117 514 q-19 77 -37.5 160.5t-28.5 134.5t-10 57z"/>
<glyph unicode="w" horiz-adv-x="1943" d="M-10 1374q0 15 88 15q40 0 104 -3q187 -3 220 -10q35 -8 42 -35q3 -10 7 -59q112 -848 165 -848q7 0 28.5 111t39.5 223l18 111l86 479q2 15 5 27t5 17l3 5l209 -14l118 -13l89 -495q88 -471 106 -471q24 0 61 249.5t62 498.5l24 249l254 -2q75 0 215 -8 q-41 -143 -113 -493t-126.5 -626.5t-59.5 -281.5q-7 -7 -148 -12.5t-296 -5.5q-31 0 -56.5 3.5t-37.5 7.5t-12 7q0 13 -12.5 72.5t-46.5 213t-58 263.5q-18 -82 -37.5 -175.5t-30.5 -147t-22 -103.5t-17.5 -75t-11.5 -32q-5 -8 -133 -8q-61 0 -195 -5t-170 -5q-39 0 -43 4 q-5 5 -63.5 275t-136.5 610.5t-121 478.5q-2 2 -2 8z"/>
<glyph unicode="x" horiz-adv-x="1347" d="M4 70l256 385l135 217l-389 778h488l196 -365l189 390q113 0 469 -9l-424 -778q113 -212 123 -233l245 -492l-508 4l-127 295l-118 -221l-508 4q-16 -1 -25 5q-5 3 -5 9q0 5 3 11z"/>
<glyph unicode="y" horiz-adv-x="1163" d="M-16 1419l415 -14q24 -80 59 -234.5t59.5 -255t35.5 -100.5q7 0 10 16q3 11 27.5 129.5t53 258.5t38.5 186l463 41q-97 -289 -199 -564.5t-139 -363.5v-119v-399l-358 -20l-117 -5l4 396v82v75q-11 14 -72 146.5t-146.5 351.5t-133.5 393z"/>
<glyph unicode="z" horiz-adv-x="999" d="M-2 1284v27l8 176l889 -25l12 -129q4 -39 4 -104l-4 -103q-5 -10 -34.5 -65.5t-74 -135.5t-71.5 -126q-36 -54 -207 -391h12q443 0 451 2l4 -213v-15q0 -29 -2 -58t-4.5 -50t-5 -38t-4.5 -26l-2 -10q0 -2 -168 -2q-22 0 -158.5 2t-181.5 2l-385 -2q-8 63 -8 147 q0 49 2 74l12 180l377 668h-17q-53 0 -188 7t-154 7q-84 0 -84 2l-2 11q-2 12 -4.5 31.5t-5 43.5t-4.5 54.5t-2 58.5z"/>
<glyph unicode="{" horiz-adv-x="991" d="M20 532l17 250q4 0 26 -2t37 -2q105 0 117 84l41 326q0 58 21 108t53 82.5t71 55.5t74 33t64 10h413l17 -174l-127 -15q-50 -4 -66 -10q-25 -12 -37 -37q-18 -41 -18 -80v-10v-311q0 -49 -19 -87t-46 -58.5t-60 -34t-57.5 -17.5t-42.5 -4v-8q36 0 72 -8.5t72 -27.5 t58.5 -57t22.5 -89v-21l-27 -317q0 -75 50 -120t108 -48h109l-9 -152h-454q-31 0 -67 17t-70.5 50t-57 91t-22.5 131v326q0 17 -12 32.5t-25.5 26t-39 22t-37 15.5l-34.5 12q-79 21 -106 21q-6 0 -9 -3z"/>
<glyph unicode="|" horiz-adv-x="374" d="M20 -227l27 723q0 14 3 168t3 262v82l-4 524q48 2 90 4t62 3t26 1l127 6v-567q0 -248 -2.5 -511t-5 -437t-2.5 -205v-37q0 -31 -6 -37z"/>
<glyph unicode="}" horiz-adv-x="991" d="M20 -35l127 15q49 4 66 10q24 12 37 35q20 41 20 81v9v313q0 60 18.5 103.5t47 63.5t53 28t47.5 8v8q-73 0 -120.5 38.5t-47.5 131.5q0 21 2 31l25 317q0 75 -49.5 120t-106.5 48h-110l10 152h453q31 0 67 -17t70.5 -50t57 -91t22.5 -131v-326q0 -26 27 -49t54 -34.5 t59 -22.5q5 -1 7 -2q82 -21 109 -21h6l-17 -248q-4 0 -25 2t-38 2q-103 0 -115 -83l-41 -324q0 -59 -21 -109.5t-52.5 -83t-70.5 -55.5t-75 -33t-65 -10h-412z"/>
<glyph unicode="~" d="M299 1094q1 6 3 16t10.5 39.5t19 56t28.5 59t39 56t50.5 39.5t62.5 16q19 0 29 -2q50 -10 88 -29.5t57.5 -41t33 -41t24.5 -32.5t22 -13q16 0 30 20.5t20 40.5l7 20l193 -26v-17q0 -102 -77 -181t-159 -79q-64 0 -114 22.5t-73 49.5t-41.5 49.5t-25.5 22.5q-9 0 -16 -15 t-10 -30l-2 -15z"/>
<glyph unicode="¡" horiz-adv-x="491" d="M12 995l396 19h12q23 0 29 -11.5t6 -48.5q0 -64 -3 -258.5t-3 -261.5v-424l-226 6q-17 1 -25 2t-9 2t-1 2v1q-1 2 -30 2h-117l4 381q0 37 -2 121t-10 232t-21 236zM20 1288q0 46 21.5 83t55.5 58.5t72 32.5t75 11q98 0 154.5 -57t56.5 -124q0 -37 -9 -71t-30.5 -68 t-65 -55t-104.5 -21q-104 0 -165 57t-61 154z"/>
<glyph unicode="¢" horiz-adv-x="894" d="M20 477q0 124 30 221t77 154.5t111.5 95t125 51.5t125.5 15l23 174l123 2q0 -20 -8 -72l-19 -114q27 -5 54 -17q104 -43 154 -108t56 -168l2 -74l-284 -6q-8 32 -29 57l-51 -389q61 14 78 70l14 39h100q122 0 142 -2l30 -3l-2 -28q-4 -94 -40.5 -167t-94.5 -116.5 t-125 -66t-141 -25.5l-22 -172q-36 4 -80 4h-43q7 35 30 176q-162 26 -249 147.5t-87 321.5zM358 500q0 -119 45 -166l50 371q-14 -5 -22.5 -9.5t-24 -19t-24.5 -34.5t-16.5 -57t-7.5 -85z"/>
<glyph unicode="£" horiz-adv-x="1181" d="M8 836h123q-16 55 -16 129q0 493 469 493q85 0 151.5 -9.5t136.5 -39t116.5 -79.5t76 -136t29.5 -203l-346 -33q-8 20 -13.5 32t-19 30t-29 28t-41.5 17.5t-59 7.5q-27 0 -41 -2q-57 -6 -88 -37t-31 -82v-121l315 -4l9 -262q-24 1 -151.5 3t-156.5 3q6 -53 31 -89.5 t66 -56t88.5 -28t107.5 -8.5q55 0 118.5 6t144 17t108.5 14l39 -381q0 -45 -35 -45q-10 0 -16 2q-70 -4 -502 -4h-133l-416 2v203q2 41 4 182q0 7 12 12t29.5 13t34.5 23.5t29 50.5t12 85h-35l-104 -4q-1 15 -9 144z"/>
<glyph unicode="¥" d="M-16 1419l397 11q10 -33 39 -129.5t45.5 -151t39 -124t37 -103t21.5 -33.5t10 16q3 12 25 117t49 234t37 174l451 -21q-137 -405 -267 -747l254 2l-20 -175q-102 5 -289 5v-74l309 4l-20 -174q-82 4 -291 4l-4 -264l-213 18l-258 2q0 64 4 244q-18 0 -49 -1t-45 -1 l-187 -4q-1 24 -1.5 31t-1 11.5t-3.5 36.5t-8 89h148h14h137q2 12 2 37v41q-19 0 -52 -1t-48 -1l-187 -5q-1 24 -1.5 31t-1 11.5t-3.5 36.5t-8 89h148h14h76q-207 429 -299 764z"/>
<glyph unicode="§" horiz-adv-x="1075" d="M20 1030q0 76 36.5 147.5t101 126.5t160.5 88t206 33q66 0 128 -10t127 -37.5t113 -70.5t78.5 -115.5t30.5 -165.5h-346q-11 27 -21 43.5t-38.5 32.5t-71.5 16q-127 0 -127 -96q0 -11 2.5 -20t9.5 -16t15 -11.5t23.5 -9.5t31 -8.5t42 -8t50.5 -8t62.5 -10t73.5 -12.5 q93 -16 159.5 -44.5t103.5 -67t53.5 -82.5t16.5 -97q0 -74 -22 -138v-2h-2q-36 -90 -123 -157q164 -77 164 -244q0 -81 -29 -149t-77 -111.5t-103.5 -75.5t-114.5 -48.5t-104 -24t-78 -7.5q-214 0 -343 99.5t-151 279.5l-8 60l74 8q78 8 199 8q46 0 68.5 -0.5t36 -3.5 t16.5 -7t3 -12q0 -37 40 -69.5t89 -32.5q53 0 96.5 30t43.5 72q0 89 -160 109h-20q-126 0 -211 33q-129 30 -209 102t-80 146q0 91 52 174.5t144 140.5q-97 37 -154 99.5t-57 123.5zM469 590q0 -32 32.5 -57t55.5 -25t54 18t36 49q-1 14 -3 22.5t-9 22t-24 20.5t-42 7h-10 q-53 -5 -65 -10q-25 -22 -25 -47z"/>
<glyph unicode="¨" horiz-adv-x="587" d="M20 1348q0 59 34 89.5t89 30.5q59 0 85 -37.5t26 -87.5q0 -45 -26 -79.5t-87 -34.5q-50 0 -85.5 30t-35.5 89zM336 1348q0 59 34 89.5t89 30.5q58 0 84 -37.5t26 -87.5q0 -46 -25.5 -80t-86.5 -34q-50 0 -85.5 30t-35.5 89z"/>
<glyph unicode="©" horiz-adv-x="1662" d="M41 666q0 130 27 240.5t72.5 190t108 142.5t130 103t142.5 66.5t142 37t132 10.5q152 0 277.5 -31.5t208.5 -81t147 -118t99 -135t56.5 -140.5t28 -126t6.5 -99q0 -80 -9.5 -152t-34 -148.5t-63.5 -139.5t-102.5 -120t-146.5 -96t-199 -62t-256 -23q-142 0 -276 43 t-241 120.5t-174.5 198t-72.5 264.5q-2 18 -2 56zM311 692q0 -26 6 -60.5t22.5 -80.5t41 -90.5t66.5 -88.5t95 -77t130.5 -53.5t167.5 -20.5q106 2 188.5 21t135.5 44t90.5 69.5t56 80.5t28.5 96.5t11.5 96.5t1.5 100v12q0 97 -33.5 181t-98.5 151t-171.5 105.5t-241.5 38.5 q-134 0 -249.5 -75.5t-181 -195t-65.5 -248.5v-6zM528 659v27q0 90 22 159.5t56.5 111t81.5 67.5t90.5 35.5t89.5 9.5q74 0 119 -18q74 -31 110 -77.5t40 -119.5l2 -53l-205 -4q-16 59 -64 59q-40 0 -67 -27q-33 -36 -33 -127q0 -59 16 -92q9 -25 30 -39t46 -14q53 0 72 51 l8 29h74q86 0 100 -2h23v-21q-4 -71 -32 -124.5t-72 -84t-94 -45t-105 -14.5q-141 0 -221.5 82t-86.5 231z"/>
<glyph unicode="ª" horiz-adv-x="712" d="M20 1030v29q0 108 22.5 188t62 124.5t87 65.5t103.5 21q73 0 143 -31v48h60q51 0 125 4l63 4v-291q0 -133 1.5 -233t3 -149.5t1.5 -61.5q0 -27 -6 -33l-246 -6l-10 51q-17 -25 -51.5 -38t-65.5 -13q-140 0 -213.5 83t-79.5 238zM250 1092q0 -48 22 -106t60 -58h4 q37 0 62 31.5t33.5 65t8.5 62.5q0 69 -23 115.5t-63 46.5q-104 0 -104 -157z"/>
<glyph unicode="«" horiz-adv-x="1030" d="M20 575v123q0 82 7 86q15 9 92 61.5t190.5 134t184.5 138.5v-284l-11 -3q-4 0 -146 -98t-142 -102q0 -14 104 -71.5t190 -86.5v-313q-34 34 -148 107t-214 133l-100 59q-7 7 -7 116zM537 600v82q0 124 6 127q15 9 92 61.5t190.5 134t184.5 138.5v-285l-11 -2 q-4 0 -146 -98.5t-142 -102.5q0 -14 104 -71t191 -86v-314q-34 34 -148 107t-214 133l-101 59q-6 6 -6 117z"/>
<glyph unicode="¬" horiz-adv-x="731" d="M20 868h148h12l531 9q-9 -62 -9 -226l7 -340l-156 -4q1 21 3.5 39.5t2.5 85.5q0 72 -2 113q-33 2 -117 2q-26 0 -98 -1t-121 -1l-186 -4q-6 173 -8 200z"/>
<glyph unicode="®" horiz-adv-x="1662" d="M41 666q0 130 27 240.5t72.5 190t108 142.5t130 103t142.5 66.5t142 37t132 10.5q152 0 277.5 -31.5t208.5 -81t147 -118t99 -135t56.5 -140.5t28 -126t6.5 -99q0 -80 -9.5 -152t-34 -148.5t-63.5 -139.5t-102.5 -120t-146.5 -96t-199 -62t-256 -23q-142 0 -276 43 t-241 120.5t-174.5 198t-72.5 264.5q-2 18 -2 56zM270 692q0 -59 16.5 -123t58.5 -135t104 -126t163.5 -91.5t227.5 -36.5q107 3 193 24t142.5 52.5t98.5 79t64 92.5t35 105t16.5 105t3.5 103q0 96 -40 188t-112.5 166.5t-185.5 120.5t-248 46q-122 0 -226.5 -51.5 t-170.5 -133.5t-103 -181t-37 -198v-6zM555 352l2 369v375q0 4 143 4q182 0 238 -6q84 -9 143.5 -45.5t69.5 -85.5q8 -33 8 -58q0 -130 -92 -188q-27 -12 -27 -27q0 -9 21 -16q90 -22 90 -225q0 -81 -8 -97q-4 -2 -45 -2q-45 0 -74 2l-115 4l4 66v4q0 123 -32 160 q-20 28 -54 28q-12 0 -16 -2q-12 -3 -12 -39q0 -53 4 -102l4 -119h-252zM791 762h45q54 0 77 18.5t23 59.5q0 37 -18.5 55t-73.5 18h-43q-10 -40 -10 -102v-49z"/>
<glyph unicode="¯" horiz-adv-x="497" d="M29 1278v131v16h139h12h295l4 -147h-39h-219h-192z"/>
<glyph unicode="°" horiz-adv-x="555" d="M72 1241q0 60 15.5 106t38.5 73t55 44t60.5 23t59.5 6q36 0 64 -8q58 -19 89 -78t31 -135q0 -102 -56 -176t-161 -74q-90 0 -140.5 52.5t-53.5 148.5q-2 6 -2 18zM213 1262q0 -58 12 -88q18 -41 62 -41q45 0 57 41q14 41 14 86q0 53 -19 88.5t-50 35.5q-24 0 -47 -20 q-29 -23 -29 -102z"/>
<glyph unicode="±" horiz-adv-x="872" d="M20 1065h148h106v33l-4 186q175 6 201 8l127 6v-147v-82l254 4l-21 -336q-94 4 -229 4l4 -258l-336 4q4 98 4 254h-53l-186 -4q-6 175 -8 201zM123 406h147h4q88 0 217.5 7t214.5 14l85 7l2 -336q-94 6 -250 6q-129 0 -219 -2l-187 -4q-5 131 -8 181z"/>
<glyph unicode="´" d="M141 1194q0 66 99 264q332 -10 403 -10h12q-139 -166 -225 -287l-270 6q-19 0 -19 27z"/>
<glyph unicode="µ" horiz-adv-x="980" d="M20 971v57q0 153 11 205l184 -8q91 -4 135.5 -7.5t53 -6t8.5 -7.5v-2q0 -2 -4.5 -201t-4.5 -315q0 -113 7 -154q9 -54 33 -78t67 -24q70 0 90 82q12 64 12 219q0 94 -4.5 214t-9.5 193l-4 74q0 2 180 13l176 6q4 -22 8 -453l3 -727v-31q0 -23 -5 -28l-254 16l3 47 q-105 -51 -222 -51q-80 0 -123 88q-2 -152 -2 -383v-37q0 -31 -6 -37l-317 21z"/>
<glyph unicode="¶" horiz-adv-x="1318" d="M20 1014q0 234 199 350q90 52 174.5 71t214.5 19q60 0 282.5 -8.5t407.5 -9.5v-230q0 -248 -2.5 -511t-5 -437t-2.5 -205v-37q0 -30 -6 -36l-262 20l27 723q0 13 3 149t3 234h-2q-15 0 -46.5 4t-54.5 4h-2l-2 -18q-15 -264 -22.5 -552t-11.5 -411.5t-17 -136.5 q-4 -4 -64 -4q-63 0 -113.5 6.5t-73.5 13.5t-30 13v10q0 31 1 221t1 225q0 13 -2 13q-9 13 -104 20q-100 8 -182 41t-138.5 81t-95 110.5t-56.5 129.5t-18 138z"/>
<glyph unicode="·" horiz-adv-x="405" d="M20 688q0 93 52.5 142t138.5 49q49 0 84.5 -18t54 -48t27 -62t8.5 -67q0 -32 -8 -61.5t-26.5 -57.5t-55 -44.5t-86.5 -16.5q-78 0 -133.5 46.5t-55.5 137.5z"/>
<glyph unicode="¸" horiz-adv-x="802" d="M236 -207l126 -4q16 -61 54 -61q12 0 24 5t18 10l5 5q16 23 18 47q4 24 4 33q0 20 -6 35q-4 16 -30 16h-7h-6q-20 0 -33 -10q-15 -15 -24 -33l-131 43l41 207l139 -16q-7 -19 -14 -93q-2 -6 -2 -18q30 23 71 23q85 -1 122.5 -34.5t37.5 -99.5q0 -15 -4 -47 q-29 -200 -240 -200q-163 0 -163 192z"/>
<glyph unicode="º" horiz-adv-x="557" d="M20 1122v23q0 75 19 132.5t48.5 91.5t69 56t76 29.5t74.5 7.5q44 0 80 -12q71 -24 110.5 -98.5t39.5 -167.5q0 -125 -71 -218.5t-200 -93.5q-114 0 -177.5 65t-68.5 185zM213 1171q0 -58 12 -88q18 -43 62 -43q45 0 57 41q14 41 14 86q0 53 -19 90t-50 37q-20 0 -47 -20 q-29 -23 -29 -103z"/>
<glyph unicode="»" horiz-adv-x="1030" d="M20 858v285q71 -57 184.5 -138.5t190.5 -134t92 -61.5q7 -3 7 -127v-82q0 -110 -7 -117l-100 -59q-100 -60 -214 -133t-148 -107v314q86 29 190 86t104 71q0 4 -142 102.5t-146 98.5zM537 834v284q71 -57 184.5 -138.5t190.5 -134t92 -61.5q6 -3 6 -86v-123 q0 -110 -6 -116l-100 -59q-100 -60 -214.5 -133t-148.5 -107v313q86 29 190.5 86.5t104.5 71.5q0 4 -142.5 102t-146.5 98z"/>
<glyph unicode="¿" horiz-adv-x="1353" d="M68 326q0 109 23 196t60 143t91.5 96t110.5 61t124 32q82 14 108.5 40t26.5 73q0 13 -2 43t-2 49h398q0 -116 -27 -200.5t-70 -129t-95 -73t-104 -42t-95 -25.5t-70 -33.5t-27 -57.5q0 -23 2.5 -37.5t13.5 -37t40 -34.5t75 -12q64 0 109 29.5t45 97.5l471 -17v-38 q0 -225 -158 -365.5t-438 -140.5q-303 0 -456.5 107.5t-153.5 275.5zM592 1325q0 66 56.5 123t154.5 57q51 0 100 -18t86 -62t37 -104q0 -97 -60.5 -154t-164.5 -57q-61 0 -104.5 21t-65 55t-30.5 68t-9 71z"/>
<glyph unicode="À" d="M-4 2q0 6 10 56.5t28.5 134.5t37.5 159q63 251 117.5 514.5t80.5 394.5t35 146q5 8 133 8q142 0 324.5 -8.5t189.5 -15.5q5 -5 64 -275t137 -610.5t121 -478.5q2 -2 2 -9q0 -32 -158 -32h-35h-252l-28 241q-31 11 -125 11q-78 0 -193 -11l-30 -209l-230 -12zM274 1786h13 q68 0 405 10q99 -198 99 -264q0 -12 -6 -19.5t-15 -7.5l-270 -6q-99 140 -226 287zM543 514q0 -12 121 -12q84 0 84 8l-95 485q-8 0 -14 -24q-8 -28 -52 -236.5t-44 -220.5z"/>
<glyph unicode="Á" d="M-4 2q0 6 10 56.5t28.5 134.5t37.5 159q63 251 117.5 514.5t80.5 394.5t35 146q5 8 133 8q142 0 324.5 -8.5t189.5 -15.5q5 -5 64 -275t137 -610.5t121 -478.5q2 -2 2 -9q0 -32 -158 -32h-35h-252l-28 241q-31 11 -125 11q-78 0 -193 -11l-30 -209l-230 -12zM483 1532 q0 66 99 264q328 -10 401 -10h12q-10 -12 -50.5 -61.5t-58.5 -72t-52 -66.5t-64 -87l-270 6q-17 0 -17 27zM543 514q0 -12 121 -12q84 0 84 8l-95 485q-8 0 -14 -24q-8 -28 -52 -236.5t-44 -220.5z"/>
<glyph unicode="Â" d="M-4 2q0 6 10 56.5t28.5 134.5t37.5 159q63 251 117.5 514.5t80.5 394.5t35 146q5 8 133 8q142 0 324.5 -8.5t189.5 -15.5q5 -5 64 -275t137 -610.5t121 -478.5q2 -2 2 -9q0 -32 -158 -32h-35q-187 3 -219 10q-35 8 -42 35q-3 10 -7 59q-6 131 -12 137q-31 11 -125 11 q-78 0 -193 -11l-30 -209l-230 -12zM276 1485q31 49 110 154t95 133l189 -7l198 7q16 -33 75.5 -136.5t74.5 -136.5h-4q-17 0 -94 -11t-156 -13q-48 71 -92 153l-105 -153q-61 2 -156.5 6t-123.5 4h-11zM543 514q0 -12 121 -12q84 0 84 8q0 42 -33.5 263.5t-61.5 221.5 q-8 0 -14 -24q-8 -28 -52 -236.5t-44 -220.5z"/>
<glyph unicode="Ã" d="M-4 2q0 6 10 56.5t28.5 134.5t37.5 159q63 251 117.5 514.5t80.5 394.5t35 146q5 8 133 8q142 0 324.5 -8.5t189.5 -15.5q5 -5 64 -275t137 -610.5t121 -478.5q2 -2 2 -9q0 -32 -158 -32h-35q-187 3 -219 10q-35 8 -42 35q-3 10 -7 59q-6 131 -12 137q-31 11 -125 11 q-78 0 -193 -11l-30 -209l-230 -12zM338 1538q1 5 3 14.5t10.5 36t19 50.5t28.5 53.5t39 51t50.5 36t62.5 14.5q19 0 29 -2q50 -9 88 -26.5t57.5 -36.5t33 -37t24.5 -29.5t22 -11.5q16 0 30 18.5t21 36.5l6 18l193 -24v-14q0 -93 -77 -164.5t-159 -71.5q-52 0 -94.5 13.5 t-68 32t-43.5 37.5t-29.5 32.5t-18.5 13.5q-9 0 -16 -13.5t-9 -26.5l-3 -13zM543 514q0 -12 121 -12q84 0 84 8q0 42 -33.5 263.5t-61.5 221.5q-8 0 -14 -24q-8 -28 -52 -236.5t-44 -220.5z"/>
<glyph unicode="Ä" d="M-4 2q0 6 10 56.5t28.5 134.5t37.5 159q63 251 117.5 514.5t80.5 394.5t35 146q5 8 133 8q142 0 324.5 -8.5t189.5 -15.5q5 -5 64 -275t137 -610.5t121 -478.5q2 -2 2 -9q0 -32 -158 -32h-35q-187 3 -219 10q-35 8 -42 35q-3 10 -7 59q-6 131 -12 137q-31 11 -125 11 q-78 0 -193 -11l-30 -209l-230 -12zM348 1569q0 59 34 90t89 31q59 0 85 -37.5t26 -87.5q0 -46 -26 -80.5t-87 -34.5q-50 0 -85.5 30t-35.5 89zM543 514q0 -12 121 -12q84 0 84 8q0 42 -33.5 263.5t-61.5 221.5q-8 0 -14 -24q-8 -28 -52 -236.5t-44 -220.5zM664 1569 q0 59 33.5 90t88.5 31q59 0 85 -37.5t26 -87.5q0 -46 -26 -80.5t-87 -34.5q-50 0 -85 30t-35 89z"/>
<glyph unicode="Å" d="M-8 2q0 6 10 56.5t28.5 134.5t37.5 159q63 251 117.5 514.5t80.5 394.5t35 146q5 8 133 8h62q-38 50 -41 129v19q0 60 15.5 106.5t38.5 73.5t55 44.5t61 23.5t59 6q32 0 64 -9q56 -20 88 -80t32 -135q0 -116 -69 -188q142 -7 149 -14q5 -5 64 -275t137 -610.5t121 -478.5 q2 -2 2 -9q0 -32 -158 -32h-35q-187 3 -219 10q-35 8 -42 35q-3 10 -7 59q-6 131 -12 137q-31 11 -125 11q-78 0 -193 -11l-30 -209l-230 -12zM539 514q0 -12 120 -12q84 0 84 8q0 43 -33 264t-61 221q-8 0 -14 -24q-8 -28 -52 -236.5t-44 -220.5zM594 1585q0 -53 14 -88 q18 -43 62 -43q45 0 57 41q14 41 14 86q0 53 -19 90t-50 37q-19 0 -49 -20q-29 -26 -29 -103z"/>
<glyph unicode="Æ" horiz-adv-x="1679" d="M-8 2q0 6 10 56.5t28.5 134.5t37.5 159q63 254 117.5 531t80.5 425t35 162q6 9 133 9q42 0 183 2t387 2q125 0 279.5 1.5t257.5 3.5t116 3l-10 -152l-9 -186q0 -3 -50 -4.5t-157 -9.5t-214 -25v-106q0 -50 4 -66t14 -18q16 -4 41 -4q69 0 219 12l154 10l-4 -328l-435 -28 l-8 -58l31 -137l192 8q84 4 211 4q15 0 15 -200v-203l-344 -2h-19q-17 0 -81 -1.5t-199 -3t-324 -1.5h-14q-2 0 -2 6q0 5 3.5 28.5t9.5 80.5t11 131q-147 -5 -211 -11l-30 -209l-230 -12zM539 514q0 -12 166 -12q1 23 5.5 126t4.5 169q0 94 -4 145l-9 127v29q-12 12 -18 12 q-4 0 -4 -4q-9 -32 -75 -306.5t-66 -285.5z"/>
<glyph unicode="Ç" horiz-adv-x="1327" d="M12 664q0 138 23 253t62.5 197.5t95 146.5t116.5 103.5t132 65t136 35.5t134 10q121 0 222.5 -36.5t169 -95.5t115 -135t68.5 -153t21 -152l-433 -8q-35 127 -137 127q-63 0 -108 -26t-70 -72.5t-36 -102t-11 -123.5q0 -75 14.5 -132.5t36.5 -90t51.5 -53t54.5 -27 t52 -6.5q51 0 92 28t59 81l19 59h156q182 0 213 -2l47 -2l-2 -43q-7 -115 -45 -209t-96 -158t-135 -109t-159 -67t-170 -26q-5 -50 -6 -56q0 -3 -1 -9t-1 -9q28 22 72 22q85 -1 122.5 -34.5t37.5 -98.5q0 -15 -4 -47q-29 -201 -240 -201q-164 0 -164 193l127 -4 q16 -62 53 -62q12 0 24 5.5t18 10.5l5 5q16 20 21 47q0 5 1 16.5t1 16.5q0 20 -6 35q-4 16 -31 16h-6h-6q-21 0 -31 -10q-18 -15 -27 -33l-131 43l31 160q-264 29 -405.5 215.5t-141.5 501.5z"/>
<glyph unicode="È" horiz-adv-x="999" d="M12 -2q0 5 2 34.5t5 93.5t6.5 160.5t5.5 269t2 386.5v62l-2 487q31 -8 295 -8q125 0 279.5 1.5t257.5 3.5t116 3l-10 -152l-8 -186q0 -3 -50 -4.5t-157.5 -9.5t-214.5 -25v-106q0 -50 4 -66t14 -18q16 -4 41 -4q34 0 184 12l133 10l-4 -328l-354 -28l-4 -197l195 10 q74 4 198 4h12q15 0 15 -200v-203l-477 -2q-101 -1 -207.5 -2.5t-172.5 -2.5t-87 -1h-15q-2 0 -2 6zM135 1819h12q71 0 404 10q98 -196 98 -264q0 -27 -18 -27l-271 -6q-86 121 -225 287z"/>
<glyph unicode="É" horiz-adv-x="999" d="M12 -2q0 5 2 34.5t5 93.5t6.5 160.5t5.5 269t2 386.5v62l-2 487q31 -8 295 -8q125 0 279.5 1.5t257.5 3.5t116 3l-10 -152l-8 -186q0 -3 -50 -4.5t-157.5 -9.5t-214.5 -25v-106q0 -50 4 -66t14 -18q16 -4 41 -4q34 0 184 12l133 10l-4 -328l-354 -28l-4 -197l195 10 q74 4 198 4h12q15 0 15 -200v-203l-477 -2q-101 -1 -207.5 -2.5t-172.5 -2.5t-87 -1h-15q-2 0 -2 6zM342 1565q0 68 98 264q332 -10 404 -10h12q-139 -166 -225 -287l-271 6q-18 0 -18 27z"/>
<glyph unicode="Ê" horiz-adv-x="1015" d="M0 -2q0 5 4.5 34.5t11 93.5t12.5 160.5t10.5 269t4.5 386.5v62l-2 487q31 -8 295 -8q125 0 279.5 1.5t257.5 3.5t116 3l-10 -152l-8 -186q0 -3 -50 -4.5t-157.5 -9.5t-214.5 -25v-106q0 -50 4 -66t14 -18q16 -4 41 -4q69 0 219 12l154 10l-4 -328l-434 -28l-8 -60 q-1 -7 -2 -15.5t-2 -15t-1 -12.5q0 -3 1 -13t1 -17l7 -64l219 10q84 4 211 4q14 0 14 -200v-203l-477 -2q-101 -1 -213.5 -2.5t-183.5 -2.5t-93 -1h-14q-2 0 -2 6zM143 1542q29 45 108.5 150.5t96.5 136.5l189 -6l200 6q14 -29 74 -134t74 -139h-4q-17 0 -94 -11t-156 -13 q-34 51 -90 154l-107 -154q-59 2 -154.5 6t-123.5 4h-13z"/>
<glyph unicode="Ë" horiz-adv-x="1015" d="M0 -2q0 5 4.5 34.5t11 93.5t12.5 160.5t10.5 269t4.5 386.5v62l-2 487q31 -8 295 -8q125 0 279.5 1.5t257.5 3.5t116 3l-10 -152l-8 -186q0 -3 -50 -4.5t-157.5 -9.5t-214.5 -25v-106q0 -50 4 -66t14 -18q16 -4 41 -4q69 0 219 12l154 10l-4 -328l-434 -28l-8 -60 q-1 -7 -2 -15.5t-2 -15t-1 -12.5q0 -3 1 -13t1 -17l7 -64l219 10q84 4 211 4q14 0 14 -200v-203l-477 -2q-101 -1 -213.5 -2.5t-183.5 -2.5t-93 -1h-14q-2 0 -2 6zM242 1651q0 59 32.5 90t87.5 31q60 0 85.5 -37.5t25.5 -87.5q0 -46 -25.5 -80.5t-87.5 -34.5q-49 0 -83.5 30 t-34.5 89zM557 1651q0 59 33 90t88 31q60 0 85 -37t25 -88q0 -46 -25 -80.5t-87 -34.5q-49 0 -84 30t-35 89z"/>
<glyph unicode="Ì" horiz-adv-x="579" d="M-74 1786h13q68 0 405 10q98 -196 98 -264q0 -27 -20 -27l-270 -6q-99 140 -226 287zM20 6l27 490q0 14 3 168t3 262v82l-4 381h117q104 0 244 8l127 6v-424q0 -248 4.5 -453t9 -320.5t4.5 -146.5q0 -60 -10 -73z"/>
<glyph unicode="Í" horiz-adv-x="579" d="M20 6l27 490q0 14 3 168t3 262v82l-4 381h117q104 0 244 8l127 6v-424q0 -248 4.5 -453t9 -320.5t4.5 -146.5q0 -60 -10 -73zM135 1532q0 68 98 264q327 -10 402 -10h12q-10 -12 -50.5 -61.5t-58.5 -72t-52 -66.5t-64 -87l-270 6q-17 0 -17 27z"/>
<glyph unicode="Î" horiz-adv-x="567" d="M-6 1473q27 50 94.5 154.5t81.5 131.5l160 -6l170 6q12 -28 64 -133t65 -139h-4q-14 0 -79.5 -11.5t-133.5 -13.5q-19 29 -80 154l-88 -154q-56 2 -137 6.5t-105 4.5h-8zM12 6l27 490q0 14 3 168t3 262v82l-4 381h117q103 0 243 8l127 6v-424q0 -248 5 -453t9.5 -320.5 t4.5 -146.5q0 -60 -10 -73z"/>
<glyph unicode="Ï" horiz-adv-x="567" d="M2 1593q0 59 34 90t89 31q59 0 85 -37.5t26 -87.5q0 -45 -26 -79.5t-87 -34.5q-51 0 -86 29.5t-35 88.5zM12 6l27 490q0 14 3 168t3 262v82l-4 381h117q103 0 243 8l127 6v-424q0 -248 5 -453t9.5 -320.5t4.5 -146.5q0 -60 -10 -73zM317 1593q0 59 34 90t89 31 q59 0 85 -37.5t26 -87.5q0 -45 -26 -79.5t-87 -34.5q-51 0 -86 29.5t-35 88.5z"/>
<glyph unicode="Ð" horiz-adv-x="1267" d="M0 868h45v80v60l-4 409l117 2q33 0 243 6q175 9 224 9q85 0 153 -7.5t134.5 -27t116 -51.5t92.5 -83.5t70 -121.5t42.5 -165.5t15.5 -215.5q0 -133 -13 -233.5t-45 -189t-86.5 -149.5t-135.5 -105t-194.5 -64.5t-262.5 -20.5h-104q-244 0 -396 6l27 490v45h-35 q-2 49 -2 116v107q0 61 -2 104zM524 872l166 5l-20 -336q-78 4 -138 4l5 -105h41q68 0 95 11.5t64 60.5q56 74 56 223q0 76 -17 142.5t-47 97.5q-37 41 -135 41q-16 0 -70 -4v-140z"/>
<glyph unicode="Ñ" horiz-adv-x="1398" d="M27 10v2q0 1412 16 1428q4 4 68 4q65 0 261 -5t251 -5q127 0 133 -9q6 -11 38.5 -171.5t83.5 -418.5t76 -382v43q0 122 -6 300.5t-6 182.5l-16 481q440 0 450 -10q2 -2 2 -61q0 -64 -9 -466.5t-9 -615.5q0 -208 8 -307q-23 -2 -41 -4t-29.5 -3t-31.5 -1h-25l-303 8 l-213 16q-8 16 -12 47l-191 895q-49 0 -49 -806v-41q-5 -61 -7 -67q-8 -24 -50 -30q-33 -6 -199 -8q-43 -2 -104 -2h-56q-23 0 -26.5 0.5t-3.5 5.5zM328 1589q1 5 3 14.5t10.5 35.5t19 50t28.5 53.5t39 50.5t50.5 35.5t62.5 14.5q18 0 28 -2q50 -9 88 -26.5t57.5 -36.5 t33.5 -37t25 -29.5t22 -11.5q16 0 30 18.5t21 37.5l6 18l192 -25v-14q0 -91 -76.5 -162.5t-158.5 -71.5q-52 0 -94.5 13.5t-68 32.5t-43.5 37.5t-29.5 32t-18.5 13.5q-9 0 -16 -13t-10 -27l-3 -13z"/>
<glyph unicode="Ò" horiz-adv-x="1226" d="M8 651q0 170 50 330t149 283.5t229 167.5q76 26 189 26q80 0 155.5 -16t156.5 -60.5t140.5 -113.5t98 -186.5t38.5 -268.5q0 -99 -14 -203q-41 -298 -206.5 -462t-426.5 -164q-114 0 -208 36.5t-158 99t-108.5 148t-64.5 182t-20 201.5zM250 1786h12q69 0 406 10 q98 -196 98 -264q0 -12 -6 -19.5t-15 -7.5l-270 -6q-104 147 -225 287zM422 645q0 -72 14 -135q10 -49 44 -75.5t79 -26.5t87 27t67 77q25 54 42 139.5t17 165.5q0 130 -43 170q-54 51 -106 51q-57 0 -103.5 -56t-72 -145.5t-25.5 -191.5z"/>
<glyph unicode="Ó" horiz-adv-x="1226" d="M8 651q0 170 50 330t149 283.5t229 167.5q76 26 189 26q80 0 155.5 -16t156.5 -60.5t140.5 -113.5t98 -186.5t38.5 -268.5q0 -99 -14 -203q-41 -298 -206.5 -462t-426.5 -164q-114 0 -208 36.5t-158 99t-108.5 148t-64.5 182t-20 201.5zM422 645q0 -72 14 -135 q10 -49 44 -75.5t79 -26.5t87 27t67 77q25 54 42 139.5t17 165.5q0 130 -43 170q-54 51 -106 51q-57 0 -103.5 -56t-72 -145.5t-25.5 -191.5zM459 1532q0 68 98 264q328 -10 401 -10h13q-14 -18 -51 -62.5t-57.5 -70t-54 -69t-63.5 -85.5l-270 6q-16 0 -16 27z"/>
<glyph unicode="Ô" horiz-adv-x="1220" d="M2 651q0 170 50 330t149 283.5t229 167.5q76 26 188 26q56 0 110 -8t113.5 -28t111.5 -52t99.5 -83t81.5 -116t54 -157t20 -201q0 -99 -14 -203q-41 -298 -206.5 -462t-426.5 -164q-114 0 -208 36.5t-158 99t-108.5 148t-64.5 182t-20 201.5zM285 1509q31 49 109.5 154 t94.5 133l189 -6l199 6q16 -33 75 -136t74 -136h-4q-17 0 -94 -11.5t-156 -13.5q-45 67 -92 154l-105 -154q-61 2 -156.5 6t-123.5 4h-10zM416 645q0 -72 14 -135q10 -49 44 -75.5t79 -26.5t87 27t67 77q25 54 42 139.5t17 165.5q0 130 -43 170q-54 51 -107 51 q-85 0 -142.5 -118t-57.5 -275z"/>
<glyph unicode="Õ" horiz-adv-x="1226" d="M8 651q0 170 50 330t149 283.5t229 167.5q76 26 189 26q80 0 155.5 -16t156.5 -60.5t140.5 -113.5t98 -186.5t38.5 -268.5q0 -99 -14 -203q-41 -298 -206.5 -462t-426.5 -164q-114 0 -208 36.5t-158 99t-108.5 148t-64.5 182t-20 201.5zM254 1597q1 6 3 16t10.5 39.5 t18.5 56.5t28 59.5t39 56t51 39.5t63 16q17 0 29 -2q61 -12 104 -39.5t59.5 -53t32 -45.5t29.5 -20q15 0 29 20.5t21 41.5l7 20l193 -26v-17q0 -102 -77.5 -181t-160.5 -79q-63 0 -112.5 22.5t-73 49t-42 49t-26.5 22.5q-9 0 -16 -15t-9 -29l-3 -15zM422 645q0 -72 14 -135 q10 -49 44 -75.5t79 -26.5t87 27t67 77q25 54 42 139.5t17 165.5q0 130 -43 170q-54 51 -106 51q-57 0 -103.5 -56t-72 -145.5t-25.5 -191.5z"/>
<glyph unicode="Ö" horiz-adv-x="1220" d="M2 651q0 170 50 330t149 283.5t229 167.5q76 26 188 26q56 0 110 -8t113.5 -28t111.5 -52t99.5 -83t81.5 -116t54 -157t20 -201q0 -99 -14 -203q-41 -298 -206.5 -462t-426.5 -164q-114 0 -208 36.5t-158 99t-108.5 148t-64.5 182t-20 201.5zM344 1618q0 59 34 90t89 31 q59 0 85 -37.5t26 -87.5q0 -46 -26 -80.5t-87 -34.5q-50 0 -85.5 30t-35.5 89zM416 645q0 -72 14 -135q10 -49 44 -75.5t79 -26.5t87 27t67 77q25 54 42 139.5t17 165.5q0 130 -43 170q-54 51 -107 51q-85 0 -142.5 -118t-57.5 -275zM659 1618q0 59 34 90t89 31 q59 0 85 -37.5t26 -87.5q0 -46 -26 -80.5t-87 -34.5q-50 0 -85.5 30t-35.5 89z"/>
<glyph unicode="Ø" horiz-adv-x="1220" d="M2 651q0 170 50 330t149 283.5t229 167.5q76 26 188 26q122 0 226 -37l69 154l19 -6q20 -6 48.5 -15t53.5 -18l-76 -170q250 -158 250 -553q0 -99 -14 -203q-41 -298 -206.5 -462t-426.5 -164q-125 0 -227 45q-57 -117 -62 -117l-116 76l57 116q-105 91 -158 235t-53 312 zM416 645q0 -52 10 -117l53 107l187 387v4q-24 12 -50 12q-85 0 -142.5 -118t-57.5 -275zM516 412q24 -4 37 -4q45 0 87 27t67 77q25 54 42 139.5t17 165.5q0 59 -10 107z"/>
<glyph unicode="Ù" horiz-adv-x="1200" d="M18 897q0 245 19 432l10 111l229 -6q226 -7 232 -13t4 -20q-1 -6 -15.5 -119t-24 -230t-9.5 -223q0 -240 57 -297q26 -26 76 -26q51 0 74 26q64 70 67 592l4 320l199 4q37 2 102 2q103 0 109 -6q35 -22 35 -424q0 -198 -15 -348q-23 -236 -72 -359t-155 -209 q-81 -66 -182.5 -99.5t-206.5 -33.5q-102 0 -193 30t-155 85q-78 68 -117.5 158t-55.5 238t-16 415zM242 1786h12q71 0 403 10q99 -198 99 -264q0 -27 -19 -27l-270 -6q-86 121 -225 287z"/>
<glyph unicode="Ú" horiz-adv-x="1200" d="M18 897q0 245 19 432l10 111l229 -6q226 -7 232 -13t4 -20q-1 -6 -15.5 -119t-24 -230t-9.5 -223q0 -240 57 -297q26 -26 76 -26q51 0 74 26q64 70 67 592l4 320l199 4q37 2 102 2q103 0 109 -6q35 -22 35 -424q0 -198 -15 -348q-23 -236 -72 -359t-155 -209 q-81 -66 -182.5 -99.5t-206.5 -33.5q-102 0 -193 30t-155 85q-78 68 -117.5 158t-55.5 238t-16 415zM449 1532q0 68 98 264q333 -10 403 -10h13q-146 -174 -226 -287l-270 6q-18 0 -18 27z"/>
<glyph unicode="Û" horiz-adv-x="1200" d="M18 897q0 245 19 432l10 111l229 -6q226 -7 232 -13t4 -20q-1 -6 -15.5 -119t-24 -230t-9.5 -223q0 -240 57 -297q26 -26 76 -26q51 0 74 26q64 70 67 592l4 320l199 4q37 2 102 2q103 0 109 -6q35 -22 35 -424q0 -198 -15 -348q-23 -236 -72 -359t-155 -209 q-81 -66 -182.5 -99.5t-206.5 -33.5q-102 0 -193 30t-155 85q-78 68 -117.5 158t-55.5 238t-16 415zM248 1538q31 49 110 154t95 133l188 -6l199 6q16 -32 75 -136t74 -137h-4q-17 0 -94 -11t-156 -13q-48 71 -92 153l-104 -153q-61 2 -157 6t-124 4h-10z"/>
<glyph unicode="Ü" horiz-adv-x="1200" d="M18 897q0 245 19 432l10 111l229 -6q226 -7 232 -13t4 -20q-1 -6 -15.5 -119t-24 -230t-9.5 -223q0 -240 57 -297q26 -26 76 -26q51 0 74 26q64 70 67 592l4 320l199 4q37 2 102 2q103 0 109 -6q35 -22 35 -424q0 -198 -15 -348q-23 -236 -72 -359t-155 -209 q-81 -66 -182.5 -99.5t-206.5 -33.5q-102 0 -193 30t-155 85q-78 68 -117.5 158t-55.5 238t-16 415zM332 1647q0 59 34 89.5t89 30.5q58 0 84 -37.5t26 -87.5q0 -46 -25.5 -80t-86.5 -34q-50 0 -85.5 30t-35.5 89zM647 1647q0 59 34 89.5t89 30.5q59 0 85 -37.5t26 -87.5 q0 -45 -26 -79.5t-87 -34.5q-50 0 -85.5 30t-35.5 89z"/>
<glyph unicode="Ý" horiz-adv-x="1150" d="M0 1419l397 11q155 -512 183 -512q7 0 10 16q1 4 110 496l451 -21q-217 -642 -322 -891v-119l-6 -409l-213 18l-258 2q0 208 10 443v75q-12 15 -75 147t-151 351.5t-136 392.5zM422 1532q0 68 98 264q332 -10 404 -10h12q-139 -166 -225 -287l-271 6q-18 0 -18 27z"/>
<glyph unicode="Þ" horiz-adv-x="1146" d="M51 -53q0 114 7.5 602t7.5 516v82l-5 319h117q86 0 244 9l127 6v-267h4h59q102 0 161.5 -2.5t132.5 -15.5t116 -39q93 -54 146 -160t53 -229q0 -71 -18 -138t-56.5 -129.5t-95 -110.5t-138.5 -81t-182 -41q-12 -2 -47 -2q-87 0 -117 15q-8 -264 -8 -367v-10 q-6 -6 -115 -6q-52 0 -170.5 2t-158.5 2q-64 0 -64 4v41zM551 889q0 -43 1 -117t1 -106q5 -55 16.5 -75t40.5 -20q13 0 66 11q79 15 113 49.5t34 99.5v8q0 22 -2 37.5t-13 38.5t-31.5 37.5t-61 25.5t-97.5 11h-67z"/>
<glyph unicode="ß" horiz-adv-x="1376" d="M37 918v81q0 216 103.5 350t244.5 134h8l127 6v-2q2 0 55 1t156 1q89 0 158.5 -7.5t134 -25t111.5 -49t82.5 -77.5t54 -112.5t20.5 -152.5v-16v-21v-22q0 -37 -5 -74t-20.5 -90t-53 -93.5t-93.5 -56.5v-4q49 -7 87 -22.5t63 -35t42 -45.5t26 -51t13.5 -55.5t5.5 -55.5 t1 -53v-22q-2 -77 -27 -139t-63.5 -103t-97 -71.5t-115.5 -47t-132 -26t-133.5 -12t-132.5 -2.5l-28 286q124 0 180.5 48t56.5 116q0 39 -14.5 67t-34.5 43.5t-59 25.5t-68 13t-82 7l-28 2l4 221q43 -6 80 -6h36q60 0 97.5 58.5t40.5 154.5q0 168 -195 168q-34 0 -57.5 -12 t-36.5 -30t-19.5 -52t-8 -63t-1.5 -79v-28q0 -248 5 -449.5t9.5 -314t4.5 -143.5q0 -60 -11 -74l-483 14v90q0 138 -4 509t-4 399z"/>
<glyph unicode="à" d="M-10 -6l2 6q43 139 121 497.5t136.5 647t63.5 293.5q7 7 189.5 15.5t324.5 8.5q129 0 134 -8q9 -15 35 -146t80.5 -394.5t117.5 -514.5q19 -75 37.5 -166.5t28.5 -150t10 -66.5l-30 -2q-30 -1 -87.5 -4t-112.5 -6l-229 -10l-31 280l-155 -10q-155 -7 -162 -14l-25 -260z M270 1790h13q73 0 401 10q98 -196 98 -264q0 -27 -16 -27l-270 -6q-30 42 -63.5 85.5t-54 69t-57.5 70t-51 62.5zM518 557q0 -8 84 -8q43 0 82 4t39 8q0 12 -44 222t-52 237q-6 22 -15 22q-27 0 -60.5 -222t-33.5 -263z"/>
<glyph unicode="á" d="M-10 -6l2 6q43 139 121 497.5t136.5 647t63.5 293.5q7 7 189.5 15.5t324.5 8.5q129 0 134 -8q9 -15 35 -146t80.5 -394.5t117.5 -514.5q19 -75 37.5 -166.5t28.5 -150t10 -66.5l-30 -2q-30 -1 -87.5 -4t-112.5 -6l-229 -10l-31 280l-155 -10q-155 -7 -162 -14l-25 -260z M475 1536q0 68 98 264q338 -10 406 -10h12q-121 -140 -225 -287l-270 6q-9 0 -15 7.5t-6 19.5zM518 557q0 -8 84 -8q43 0 82 4t39 8q0 12 -44 222t-52 237q-6 22 -15 22q-27 0 -60.5 -222t-33.5 -263z"/>
<glyph unicode="â" d="M-10 -6q0 4 2 6q43 139 121 497.5t136.5 647t63.5 293.5q7 7 189.5 15.5t324.5 8.5q129 0 134 -8q9 -15 35 -146t80.5 -394.5t117.5 -514.5q19 -75 37.5 -166.5t28.5 -150t10 -66.5l-30 -2q-30 -1 -87.5 -4t-112.5 -6l-229 -10l-31 280l-155 -10q-155 -7 -162 -14 q-2 -1 -4 -30.5t-4.5 -73.5t-3.5 -62q0 -5 -1 -13q-5 -64 -33 -75.5t-194 -14.5q-27 -1 -41 -1q-24 0 -58 -1.5t-46 -1.5q-36 0 -55 2t-26 5.5t-7 9.5zM260 1513q31 49 110 154t95 133l188 -6l199 6q16 -33 75 -136t74 -136h-4q-17 0 -93.5 -11.5t-155.5 -13.5 q-50 75 -93 154l-104 -154q-61 2 -157 6t-124 4h-10zM518 557q0 -8 84 -8q43 0 82 4t39 8q0 12 -44 222t-52 237q-6 22 -15 22q-27 0 -60.5 -222t-33.5 -263z"/>
<glyph unicode="ã" d="M-10 -6q0 4 2 6q43 139 121 497.5t136.5 647t63.5 293.5q7 7 189.5 15.5t324.5 8.5q129 0 134 -8q9 -15 35 -146t80.5 -394.5t117.5 -514.5q19 -75 37.5 -166.5t28.5 -150t10 -66.5l-30 -2q-30 -1 -87.5 -4t-112.5 -6l-229 -10l-31 280l-155 -10q-155 -7 -162 -14 q-2 -1 -4 -30.5t-4.5 -73.5t-3.5 -62q0 -5 -1 -13q-5 -64 -33 -75.5t-194 -14.5q-27 -1 -41 -1q-24 0 -58 -1.5t-46 -1.5q-36 0 -55 2t-26 5.5t-7 9.5zM248 1610q2 9 6.5 25t22 56t39.5 71t61 56t84 25q18 0 28 -2q61 -10 104.5 -32.5t60.5 -44t32.5 -38t28.5 -16.5 q16 0 30 17.5t21 34.5l6 18l193 -23v-14q0 -84 -77 -149.5t-159 -65.5q-52 0 -94.5 12.5t-68 30t-43.5 34.5t-29.5 29.5t-18.5 12.5q-9 0 -16 -12.5t-10 -24.5l-3 -13zM518 557q0 -8 84 -8q43 0 82 4t39 8q0 12 -44 222t-52 237q-6 22 -15 22q-27 0 -60.5 -222t-33.5 -263z "/>
<glyph unicode="ä" d="M-10 -6q0 4 2 6q43 139 121 497.5t136.5 647t63.5 293.5q7 7 189.5 15.5t324.5 8.5q129 0 134 -8q9 -15 35 -146t80.5 -394.5t117.5 -514.5q19 -75 37.5 -166.5t28.5 -150t10 -66.5l-30 -2q-30 -1 -87.5 -4t-112.5 -6l-229 -10l-31 280l-155 -10q-155 -7 -162 -14 q-2 -1 -4 -30.5t-4.5 -73.5t-3.5 -62q0 -5 -1 -13q-5 -64 -33 -75.5t-194 -14.5q-27 -1 -41 -1q-24 0 -58 -1.5t-46 -1.5q-36 0 -55 2t-26 5.5t-7 9.5zM362 1634q0 59 34 90t89 31q59 0 85 -37.5t26 -87.5q0 -45 -26 -79.5t-87 -34.5q-51 0 -86 29.5t-35 88.5zM518 557 q0 -8 84 -8q43 0 82 4t39 8q0 12 -44 222t-52 237q-6 22 -15 22q-27 0 -60.5 -222t-33.5 -263zM678 1634q0 59 34 90t89 31q58 0 84 -37.5t26 -87.5q0 -46 -25.5 -80t-86.5 -34q-51 0 -86 29.5t-35 88.5z"/>
<glyph unicode="å" d="M-10 -6q0 4 2 6q43 139 121 497.5t136.5 647t63.5 293.5q9 9 199 16q-76 51 -82 170v18q0 60 15.5 106t38.5 73t55 44t60.5 23t59.5 6q36 0 64 -8q57 -20 89 -79t32 -134q0 -64 -24 -120.5t-70 -90.5h77q129 0 134 -8q9 -15 35 -146t80.5 -394.5t117.5 -514.5 q19 -75 37.5 -166.5t28.5 -150t10 -66.5l-30 -2q-30 -1 -87.5 -4t-112.5 -6l-229 -10l-31 280l-155 -10q-155 -7 -162 -14q-2 -1 -4 -30.5t-4.5 -73.5t-3.5 -62q0 -5 -1 -13q-5 -64 -33 -75.5t-194 -14.5q-27 -1 -41 -1q-24 0 -58 -1.5t-46 -1.5q-36 0 -55 2t-26 5.5t-7 9.5 zM518 557q0 -8 84 -8q43 0 82 4t39 8q0 12 -44 222t-52 237q-6 22 -15 22q-27 0 -60.5 -222t-33.5 -263zM569 1663q0 -51 15 -88q18 -41 61 -41q45 0 57 41q15 43 15 86q0 53 -19.5 89t-50.5 36q-22 0 -49 -21q-29 -23 -29 -102z"/>
<glyph unicode="æ" horiz-adv-x="1679" d="M-8 2q0 6 10 56.5t28.5 134.5t37.5 159q63 254 117.5 531t80.5 425t35 162q6 9 133 9q42 0 183 2t387 2q125 0 279.5 1.5t257.5 3.5t116 3l-10 -152l-9 -186q0 -3 -50 -4.5t-157 -9.5t-214 -25v-106q0 -50 4 -66t14 -18q16 -4 41 -4q69 0 219 12l154 10l-4 -328l-435 -28 l-8 -58l31 -137l192 8q84 4 211 4q15 0 15 -200v-203l-344 -2h-19q-17 0 -81 -1.5t-199 -3t-324 -1.5h-14q-2 0 -2 6q0 5 3.5 28.5t9.5 80.5t11 131q-147 -5 -211 -11l-30 -209l-230 -12zM539 514q0 -12 166 -12q1 23 5.5 126t4.5 169q0 94 -4 145l-9 127v29q-12 12 -18 12 q-4 0 -4 -4q-9 -32 -75 -306.5t-66 -285.5z"/>
<glyph unicode="ç" horiz-adv-x="1247" d="M6 680v57q2 125 26 229.5t63 179.5t93.5 133.5t113 94.5t125.5 59.5t128 32.5t123 9q137 0 257 -54t201.5 -160t92.5 -243l10 -144l-424 -8v4q0 80 -39.5 133.5t-97.5 53.5q-49 0 -85.5 -34.5t-56 -92t-28.5 -119t-10 -127.5v-16q0 -59 7.5 -111t23 -98.5t44 -73.5 t66.5 -27q21 0 39 3.5t31.5 7.5t25.5 14t20 16.5t16.5 21.5t12.5 23t10 27t8 27l7.5 30t7.5 29q23 -2 74 -2q58 0 176.5 4t159.5 4h2q0 -125 -31 -227t-83.5 -172t-125.5 -119t-153.5 -73t-169.5 -29q-4 -32 -4 -39q-1 -3 -2.5 -9.5t-2.5 -9.5q30 23 74 23 q85 -1 121.5 -33.5t36.5 -99.5q0 -31 -2 -47q-29 -201 -240 -201q-164 0 -164 192l127 -4q13 -61 54 -61q12 0 24 5t18 10l5 5q16 23 18 47q2 12 2 33q0 25 -4 35q-4 16 -31 16h-6h-6q-20 0 -33 -10q-13 -11 -24 -33l-131 43l26 142q-229 29 -361.5 199t-152.5 460 q-2 25 -2 74z"/>
<glyph unicode="è" horiz-adv-x="1021" d="M12 -2q0 6 2 38t5.5 100t6.5 171t5.5 286.5t3.5 410.5v432q24 4 468.5 45t477.5 43l-10 -185l-8 -186q0 -3 -50 -4.5t-157.5 -9.5t-214.5 -25l-4 -221q81 0 264 14l131 11l-6 -256l-391 -31l-5 -242l220 10q63 3 119.5 6t84.5 5t31 2q14 0 14 -201v-203l-501 -10 q-414 -8 -443 -8l-41 2q-2 0 -2 6zM145 1851h13q37 0 403 11q98 -196 98 -265q0 -26 -18 -26l-270 -6q-76 106 -226 286z"/>
<glyph unicode="é" horiz-adv-x="1021" d="M12 -2q0 6 2 38t5.5 100t6.5 171t5.5 286.5t3.5 410.5v432q24 4 468.5 45t477.5 43l-10 -185l-8 -186q0 -3 -50 -4.5t-157.5 -9.5t-214.5 -25l-4 -221q81 0 264 14l131 11l-6 -256l-391 -31l-5 -242l220 10q63 3 119.5 6t84.5 5t31 2q14 0 14 -201v-203l-501 -10 q-414 -8 -443 -8l-41 2q-2 0 -2 6zM352 1597q0 67 99 265q366 -11 403 -11h12q-144 -172 -225 -286l-270 6q-19 0 -19 26z"/>
<glyph unicode="ê" horiz-adv-x="1032" d="M4 -2q0 6 4 38t10.5 100t12.5 171t10.5 286.5t5.5 410.5v432q24 4 468.5 45t477.5 43l-10 -185l-8 -186q0 -3 -50 -4.5t-157.5 -9.5t-214.5 -25v-106q0 -105 20 -111q12 -4 35 -4q40 0 223 14l156 11l-6 -256l-434 -31l-8 -58q-4 -40 -4 -73q0 -10 1 -26t1 -21l6 -64 l219 10q63 3 119.5 6t84.5 5t31 2q15 0 15 -201v-203l-502 -10q-414 -8 -463 -8l-41 2q-2 0 -2 6zM174 1575q31 49 110 154t95 133l188 -7l199 7q16 -32 75 -136t74 -137h-4q-17 0 -93.5 -11t-155.5 -13q-53 80 -93 153l-104 -153q-61 2 -157 6t-124 4h-10z"/>
<glyph unicode="ë" horiz-adv-x="1032" d="M4 -2q0 6 4 38t10.5 100t12.5 171t10.5 286.5t5.5 410.5v432q24 4 468.5 45t477.5 43l-10 -185l-8 -186q0 -3 -50 -4.5t-157.5 -9.5t-214.5 -25v-106q0 -105 20 -111q12 -4 35 -4q40 0 223 14l156 11l-6 -256l-434 -31l-8 -58q-4 -40 -4 -73q0 -10 1 -26t1 -21l6 -64 l219 10q63 3 119.5 6t84.5 5t31 2q15 0 15 -201v-203l-502 -10q-414 -8 -463 -8l-41 2q-2 0 -2 6zM246 1683q0 59 34 90t89 31q58 0 84 -37.5t26 -87.5q0 -46 -25.5 -80t-86.5 -34q-51 0 -86 29.5t-35 88.5zM561 1683q0 59 34 90t89 31q59 0 85 -37.5t26 -87.5 q0 -45 -26 -79.5t-87 -34.5q-51 0 -86 29.5t-35 88.5z"/>
<glyph unicode="ì" horiz-adv-x="583" d="M-61 1786h12q67 0 405 10q99 -198 99 -264q0 -12 -6 -19.5t-15 -7.5l-270 -6q-104 147 -225 287zM43 6q0 194 1 423.5t2.5 514t2.5 445.5h117q104 0 244 8l127 6v-424q0 -248 4.5 -453t9 -320.5t4.5 -146.5q0 -60 -10 -73z"/>
<glyph unicode="í" horiz-adv-x="583" d="M43 6q0 194 1 423.5t2.5 514t2.5 445.5h117q104 0 244 8l127 6v-424q0 -248 4.5 -453t9 -320.5t4.5 -146.5q0 -60 -10 -73zM147 1532q0 66 99 264q328 -10 401 -10h12q-10 -12 -50.5 -61.5t-58.5 -72t-52 -66.5t-64 -87l-270 6q-17 0 -17 27z"/>
<glyph unicode="î" horiz-adv-x="600" d="M-63 1509q31 49 109.5 154t94.5 133l189 -6l198 6q16 -33 75.5 -136t74.5 -136h-4q-17 0 -94 -11.5t-156 -13.5q-45 67 -92 154l-105 -154q-61 2 -156.5 6t-123.5 4h-10zM33 6l26 490q0 14 3.5 168t3.5 262v82l-5 381h117q104 0 244 8l127 6v-424q0 -248 4.5 -453 t9 -320.5t4.5 -146.5q0 -60 -10 -73z"/>
<glyph unicode="ï" horiz-adv-x="600" d="M33 6l26 490q0 14 3.5 168t3.5 262v82l-5 381h117q104 0 244 8l127 6v-424q0 -248 4.5 -453t9 -320.5t4.5 -146.5q0 -60 -10 -73zM33 1618q0 59 34 90t89 31q58 0 84 -37.5t26 -87.5q0 -46 -25.5 -80.5t-86.5 -34.5q-50 0 -85.5 30t-35.5 89zM348 1618q0 59 34 90t89 31 q59 0 85 -37.5t26 -87.5q0 -46 -26 -80.5t-87 -34.5q-50 0 -85.5 30t-35.5 89z"/>
<glyph unicode="ð" horiz-adv-x="1267" d="M0 868h47v29q0 74 -2 111l-6 440l115 2q61 0 180.5 4t177.5 4q170 0 298 -26.5t224 -98.5q64 -47 111.5 -123t72 -161t35.5 -163.5t11 -152.5v-14v-14q0 -62 -8.5 -130.5t-31 -157t-71.5 -172.5t-119 -141q-100 -82 -224.5 -105.5t-367.5 -23.5h-299h-131l27 521l2 45 h-35q0 12 -1 32t-1 27q0 26 2 60t2 47q0 5 -1 16.5t-1 17.5zM528 1081q0 -20 1 -90.5t1 -118.5l160 5l-20 -336q-78 4 -138 4q4 -170 5 -183q63 0 109 18t75.5 51t46.5 86t24 114.5t7 144.5q0 170 -63.5 237.5t-207.5 67.5z"/>
<glyph unicode="ñ" horiz-adv-x="1390" d="M29 -10q0 1471 14 1485q4 2 12 2q25 0 241.5 -21.5t291.5 -21.5q127 0 133 -9q11 -20 97.5 -376t135.5 -596v57q0 328 -12 469l-33 432q439 0 449 -10q4 -4 4 -141q0 -74 -2 -338.5t-2 -415.5q0 -362 10 -506q-23 -2 -41 -4t-29.5 -3t-31.5 -1h-25l-303 8l-213 16 q-8 16 -12 47l-191 895q-49 0 -49 -849v-43q-4 -52 -10 -62q-11 -20 -71 -23q-21 -1 -58 -1q-20 0 -92 1t-127 1h-56q-23 0 -26.5 0.5t-3.5 5.5v2zM340 1602q2 10 6.5 26t22 57.5t39.5 73.5t61 58t84 26q19 0 29 -2q50 -8 88 -25t57.5 -35t33 -35.5t24.5 -28.5t22 -11 q16 0 30 18t21 36l6 18l193 -25v-12q0 -87 -77 -155t-159 -68q-52 0 -94.5 12.5t-68 30.5t-43.5 36t-29.5 30.5t-18.5 12.5q-9 0 -16 -13t-9 -25l-3 -13z"/>
<glyph unicode="ò" horiz-adv-x="1384" d="M8 664q0 143 26.5 263.5t71 205t106.5 151t129 107t144 66.5t145 36t138 10q117 0 211 -28q126 -42 218 -151t136.5 -253t44.5 -305q0 -123 -27 -240.5t-85 -224.5t-141 -187t-204 -127.5t-264 -47.5q-298 0 -467 174t-180 491q-2 20 -2 60zM332 1831h12q68 0 406 10 q98 -196 98 -264q0 -12 -6 -19.5t-15 -7.5l-270 -6q-104 147 -225 287zM516 731q0 -153 37 -231q22 -53 67 -82t97 -29q51 0 92 28t59 81q35 104 35 225q0 140 -50 237t-134 97q-63 0 -127 -53q-38 -31 -57 -106.5t-19 -166.5z"/>
<glyph unicode="ó" horiz-adv-x="1384" d="M8 664q0 143 26.5 263.5t71 205t106.5 151t129 107t144 66.5t145 36t138 10q117 0 211 -28q126 -42 218 -151t136.5 -253t44.5 -305q0 -123 -27 -240.5t-85 -224.5t-141 -187t-204 -127.5t-264 -47.5q-298 0 -467 174t-180 491q-2 20 -2 60zM516 731q0 -153 37 -231 q22 -53 67 -82t97 -29q51 0 92 28t59 81q35 104 35 225q0 140 -50 237t-134 97q-63 0 -127 -53q-38 -31 -57 -106.5t-19 -166.5zM541 1577q0 68 98 264q328 -10 401 -10h13q-14 -18 -51 -62.5t-57.5 -70t-54 -69t-63.5 -85.5l-270 6q-16 0 -16 27z"/>
<glyph unicode="ô" horiz-adv-x="1384" d="M8 664q0 143 26.5 263.5t71 205t106.5 151t129 107t144 66.5t145 36t138 10q117 0 211 -28q126 -42 218 -151t136.5 -253t44.5 -305q0 -123 -27 -240.5t-85 -224.5t-141 -187t-204 -127.5t-264 -47.5q-298 0 -467 174t-180 491q-2 20 -2 60zM324 1554q32 52 111 158 t93 129l189 -6l196 6q18 -36 77.5 -138.5t74.5 -133.5h-4q-17 0 -94 -11.5t-156 -13.5q-56 83 -94 154l-103 -154q-63 2 -158.5 6t-123.5 4h-8zM516 731q0 -153 37 -231q22 -53 67 -82t97 -29q51 0 92 28t59 81q35 104 35 225q0 140 -50 237t-134 97q-63 0 -127 -53 q-38 -31 -57 -106.5t-19 -166.5z"/>
<glyph unicode="õ" horiz-adv-x="1384" d="M8 664q0 143 26.5 263.5t71 205t106.5 151t129 107t144 66.5t145 36t138 10q117 0 211 -28q126 -42 218 -151t136.5 -253t44.5 -305q0 -123 -27 -240.5t-85 -224.5t-141 -187t-204 -127.5t-264 -47.5q-298 0 -467 174t-180 491q-2 20 -2 60zM336 1642q1 6 3 16t10.5 39.5 t18.5 56.5t28 59.5t39 56t51 39.5t63 16q17 0 29 -2q61 -12 104 -39.5t59.5 -53t32 -45.5t29.5 -20q15 0 29 20.5t21 40.5l7 21l193 -26v-17q0 -102 -77.5 -181t-160.5 -79q-63 0 -112.5 22.5t-73 49.5t-42 49.5t-26.5 22.5q-9 0 -16 -15t-10 -30l-3 -15zM516 731 q0 -153 37 -231q22 -53 67 -82t97 -29q51 0 92 28t59 81q35 104 35 225q0 140 -50 237t-134 97q-63 0 -127 -53q-38 -31 -57 -106.5t-19 -166.5z"/>
<glyph unicode="ö" horiz-adv-x="1384" d="M8 664q0 143 26.5 263.5t71 205t106.5 151t129 107t144 66.5t145 36t138 10q117 0 211 -28q126 -42 218 -151t136.5 -253t44.5 -305q0 -123 -27 -240.5t-85 -224.5t-141 -187t-204 -127.5t-264 -47.5q-298 0 -467 174t-180 491q-2 20 -2 60zM418 1663q0 59 34 90t89 31 q58 0 84 -37.5t26 -87.5q0 -46 -24.5 -80.5t-85.5 -34.5q-51 0 -87 30t-36 89zM516 731q0 -153 37 -231q22 -53 67 -82t97 -29q51 0 92 28t59 81q35 104 35 225q0 140 -50 237t-134 97q-63 0 -127 -53q-38 -31 -57 -106.5t-19 -166.5zM733 1663q0 59 34 90t89 31 q59 0 85 -37.5t26 -87.5q0 -46 -25 -80.5t-86 -34.5q-51 0 -87 30t-36 89z"/>
<glyph unicode="÷" horiz-adv-x="851" d="M20 868h148h12l651 9l-20 -336q-189 6 -371 6q-26 0 -98 -1t-121 -1l-186 -4q-6 173 -8 200zM256 281q0 93 52 141.5t138 48.5q49 0 85 -18t54.5 -48t27 -62t8.5 -67q0 -32 -8.5 -61.5t-27 -57.5t-55 -44.5t-86.5 -16.5q-78 0 -133 47t-55 138zM256 1116q0 93 52.5 142 t137.5 49q49 0 85 -18t54.5 -48t27 -62t8.5 -67q0 -32 -8.5 -61.5t-27 -57.5t-55 -44.5t-86.5 -16.5q-78 0 -133 46.5t-55 137.5z"/>
<glyph unicode="ø" horiz-adv-x="1312" d="M4 668q0 135 25 248.5t66.5 193.5t100.5 142t122 100t135.5 62.5t137 34t130.5 9.5q77 0 135 -12l57 129l19 -6q20 -6 48.5 -15t53.5 -18l-57 -129q152 -76 235.5 -252.5t83.5 -390.5q0 -117 -25.5 -227.5t-80.5 -211.5t-133.5 -176.5t-192 -120t-248.5 -44.5 q-157 0 -278 53q-61 -125 -66 -125l-116 76l61 123q-199 163 -211 499q-2 18 -2 58zM483 731q0 -28 4 -82l179 373l6 16q-54 0 -117 -51q-36 -29 -54 -99.5t-18 -156.5zM543 469q49 -61 129 -61q48 0 87 26.5t56 75.5q33 100 33 213q0 166 -68 256z"/>
<glyph unicode="ù" horiz-adv-x="1218" d="M14 1130q0 194 21 328l248 -10q217 -9 217 -21q0 -2 -1 -4.5t-1 -3.5q0 -4 -4.5 -252.5t-4.5 -392.5v-14q0 -48 1 -76t4 -69.5t11 -65.5t21 -48.5t35 -36t51 -11.5q46 0 72.5 24t38.5 78q16 73 16 274q0 117 -5.5 260.5t-11.5 228.5l-5 85q0 3 225 14l219 8q7 -31 16 -92 t19 -188.5t10 -255.5q0 -443 -121 -682q-70 -139 -190.5 -212t-276.5 -73q-119 0 -211 31.5t-155.5 81.5t-108 139.5t-69.5 179t-39 227t-17.5 256t-3.5 293.5zM262 1798h12q72 0 404 10q98 -196 98 -264q0 -26 -18 -26l-271 -7q-86 121 -225 287z"/>
<glyph unicode="ú" horiz-adv-x="1218" d="M14 1130q0 194 21 328l248 -10q217 -9 217 -21q0 -2 -1 -4.5t-1 -3.5q0 -4 -4.5 -252.5t-4.5 -392.5v-14q0 -48 1 -76t4 -69.5t11 -65.5t21 -48.5t35 -36t51 -11.5q46 0 72.5 24t38.5 78q16 73 16 274q0 117 -5.5 260.5t-11.5 228.5l-5 85q0 3 225 14l219 8q7 -31 16 -92 t19 -188.5t10 -255.5q0 -443 -121 -682q-70 -139 -190.5 -212t-276.5 -73q-119 0 -211 31.5t-155.5 81.5t-108 139.5t-69.5 179t-39 227t-17.5 256t-3.5 293.5zM477 1554q0 69 98 265q366 -11 404 -11h12q-144 -172 -225 -286l-270 6q-19 0 -19 26z"/>
<glyph unicode="û" horiz-adv-x="1259" d="M14 1153q0 220 21 328l248 -11q122 -5 181.5 -10t69 -8.5t9.5 -9.5q0 -4 -12.5 -252.5t-12.5 -392.5q0 -136 8 -193q12 -67 42.5 -98t84.5 -31q46 0 72.5 24.5t38.5 78.5q16 73 16 274q0 117 -5.5 267.5t-10.5 242.5l-6 92q0 3 225 14l219 9q6 -28 15.5 -98.5t19.5 -205 t10 -262.5q0 -443 -121 -682q-68 -135 -207.5 -209.5t-300.5 -74.5q-95 0 -183.5 27t-165 80t-132 139.5t-78.5 197.5q-15 74 -30 313.5t-15 450.5zM242 1532q31 49 109.5 154t94.5 133l189 -7l199 7q16 -32 75 -136t74 -137h-4q-17 0 -94 -11t-156 -13q-48 71 -92 153 l-105 -153q-61 2 -156.5 6t-123.5 4h-10z"/>
<glyph unicode="ü" horiz-adv-x="1259" d="M14 1153q0 220 21 328l248 -11q122 -5 181.5 -10t69 -8.5t9.5 -9.5q0 -4 -12.5 -252.5t-12.5 -392.5q0 -136 8 -193q12 -67 42.5 -98t84.5 -31q46 0 72.5 24.5t38.5 78.5q16 73 16 274q0 117 -5.5 267.5t-10.5 242.5l-6 92q0 3 225 14l219 9q6 -28 15.5 -98.5t19.5 -205 t10 -262.5q0 -443 -121 -682q-68 -135 -207.5 -209.5t-300.5 -74.5q-95 0 -183.5 27t-165 80t-132 139.5t-78.5 197.5q-15 74 -30 313.5t-15 450.5zM362 1640q0 59 34 90t89 31q59 0 85 -37.5t26 -87.5q0 -45 -26 -79.5t-87 -34.5q-51 0 -86 29.5t-35 88.5zM678 1640 q0 59 34 90t89 31q58 0 84 -37.5t26 -87.5q0 -46 -25.5 -80t-86.5 -34q-51 0 -86 29.5t-35 88.5z"/>
<glyph unicode="ý" horiz-adv-x="1163" d="M-16 1419l415 -14q24 -80 59 -234.5t59.5 -255t35.5 -100.5q7 0 10 16q3 11 27.5 129.5t53 258.5t38.5 186l463 41q-97 -289 -199 -564.5t-139 -363.5v-119v-399l-358 -20l-117 -5l4 396v82v75q-11 14 -72 146.5t-146.5 351.5t-133.5 393zM410 1532q0 68 98 264 q338 -10 405 -10h13q-127 -147 -226 -287l-270 6q-20 0 -20 27z"/>
<glyph unicode="þ" horiz-adv-x="1146" d="M51 0q0 110 7.5 573.5t7.5 491.5v82l-5 319l488 -16v-236h4h59q102 0 161.5 -2.5t132.5 -15.5t116 -39q93 -54 146 -160t53 -229q0 -71 -18 -138t-56.5 -129.5t-95 -110.5t-138.5 -81t-182 -41q-12 -2 -47 -2q-87 0 -117 15q-8 -264 -8 -312v-10q-6 -6 -115 -6 q-52 0 -170.5 2t-158.5 2q-64 0 -64 4v39zM551 889q0 -43 1 -117t1 -106q5 -55 16.5 -75t40.5 -20q13 0 66 11q79 15 113 49.5t34 99.5v8q0 22 -2 37.5t-13 38.5t-31.5 37.5t-61 25.5t-97.5 11h-67z"/>
<glyph unicode="ÿ" horiz-adv-x="1163" d="M-16 1419l415 -14q18 -60 58 -203t62.5 -211.5t33.5 -68.5q7 0 10 16q8 28 55 211t64 256l463 49q-252 -747 -332 -936v-119v-424l-104 7q-140 8 -260 8h-117l4 381v82v75q-11 14 -72 146.5t-146.5 351.5t-133.5 393zM281 1593q0 59 33.5 90t88.5 31q59 0 85 -37.5 t26 -87.5q0 -45 -26 -79.5t-87 -34.5q-50 0 -85 29.5t-35 88.5zM596 1593q0 59 34 90t89 31q58 0 84 -37.5t26 -87.5q0 -46 -25.5 -80t-86.5 -34q-51 0 -86 29.5t-35 88.5z"/>
<glyph unicode="Ą" d="M-4 2q0 6 10 56.5t28.5 134.5t37.5 159q63 251 117.5 514.5t80.5 394.5t35 146q5 8 133 8q142 0 324.5 -8.5t189.5 -15.5q5 -5 64 -275t137 -610.5t121 -478.5q2 -2 2 -9q0 -30 -125 -32l2 -115q-53 0 -88 -14q-41 -18 -41 -62v-2q3 -43 43 -55q37 -12 78 -12h8l16 -127 h-8q-99 0 -172 54.5t-76 156.5v8q0 119 99 168h-181l-28 241q-31 11 -125 11q-78 0 -193 -11l-30 -209l-230 -12zM543 514q0 -12 121 -12q84 0 84 8l-95 485q-8 0 -14 -24q-8 -28 -52 -236.5t-44 -220.5z"/>
<glyph unicode="ą" d="M-10 -6l2 6q43 139 121 497.5t136.5 647t63.5 293.5q7 7 189.5 15.5t324.5 8.5q129 0 134 -8q9 -15 35 -146t80.5 -394.5t117.5 -514.5q19 -75 37.5 -166.5t28.5 -150t10 -66.5q-13 0 -115 -6v-114q-49 0 -86 -15q-41 -17 -41 -61v-2q0 -19 11 -34.5t30 -21.5 q37 -12 78 -12h8l16 -127h-8q-98 0 -170 54.5t-75 156.5v8q0 110 81 160l-188 -8l-31 280l-155 -10q-155 -7 -162 -14l-25 -260zM518 557q0 -8 84 -8q43 0 82 4t39 8q0 12 -44 222t-52 237q-6 22 -15 22q-27 0 -60.5 -222t-33.5 -263z"/>
<glyph unicode="Ć" horiz-adv-x="1327" d="M12 664q0 138 23 253t62.5 197.5t95 146.5t116.5 103.5t132 65t136 35.5t134 10q121 0 222.5 -36.5t169 -95.5t115 -135t68.5 -153t21 -152l-433 -8q-35 127 -137 127q-63 0 -108 -26t-70 -72.5t-36 -102t-11 -123.5q0 -75 14.5 -132.5t36.5 -90t51.5 -53t54.5 -27 t52 -6.5q51 0 92 28t59 81l19 59h156q182 0 213 -2l47 -2l-2 -43q-7 -120 -48 -217.5t-103.5 -162t-144.5 -108t-168.5 -62.5t-178.5 -19q-313 0 -481.5 189t-168.5 534zM555 1548q0 68 98 264q333 -10 404 -10h12q-144 -172 -225 -286l-271 6q-18 0 -18 26z"/>
<glyph unicode="ć" horiz-adv-x="1247" d="M6 680v57q2 125 26 229.5t63 179.5t93.5 133.5t113 94.5t125.5 59.5t128 32.5t123 9q137 0 257 -54t201.5 -160t92.5 -243l10 -144l-424 -8v4q0 80 -39.5 133.5t-97.5 53.5q-49 0 -85.5 -34.5t-56 -92t-28.5 -119t-10 -127.5v-16q0 -59 7.5 -111t23 -98.5t44 -73.5 t66.5 -27q21 0 39 3.5t31.5 7.5t25.5 14t20 16.5t16.5 21.5t12.5 23t10 27t8 27l7.5 30t7.5 29q23 -2 74 -2q58 0 176.5 4t159.5 4h2q0 -132 -34.5 -238.5t-93 -177t-138 -118t-166 -68t-181.5 -20.5q-271 0 -428 172.5t-180 492.5q-2 25 -2 74zM539 1556q0 69 98 265 q366 -11 403 -11h13q-150 -180 -226 -286l-270 6q-18 0 -18 26z"/>
<glyph unicode="Ę" horiz-adv-x="999" d="M12 -2q0 5 2 34.5t5 93.5t6.5 160.5t5.5 269t2 386.5v62l-2 487q31 -8 295 -8q125 0 279.5 1.5t257.5 3.5t116 3l-10 -152l-8 -186q0 -3 -50 -4.5t-157.5 -9.5t-214.5 -25v-106q0 -50 4 -66t14 -18q16 -4 41 -4q34 0 184 12l154 10l-4 -328l-375 -28l-4 -197l195 10 q74 4 198 4h12q15 0 15 -200v-203h-49l2 -90q-53 0 -88 -14q-41 -18 -41 -62v-2q3 -43 43 -55q41 -13 78 -13h8l16 -126h-8q-100 0 -172.5 54t-75.5 156v9q0 90 59 143l-249 -2q-101 -1 -207.5 -2.5t-172.5 -2.5t-87 -1h-15q-2 0 -2 6z"/>
<glyph unicode="ę" horiz-adv-x="1021" d="M12 -2q0 6 2 38t5.5 100t6.5 171t5.5 286.5t3.5 410.5v432q24 4 468.5 45t477.5 43l-10 -185l-8 -186q0 -3 -50 -4.5t-157.5 -9.5t-214.5 -25l-4 -221q81 0 264 14l155 11l-6 -256l-415 -31l-5 -242l220 10q63 3 119.5 6t84.5 5t31 2q14 0 14 -201v-203h-38l2 -92 q-54 0 -89 -14q-40 -18 -40 -62v-2q3 -43 43 -55q37 -12 77 -12h9l16 -127h-8q-99 0 -172 54.5t-76 156.5v8q0 90 57 141l-282 -6q-414 -8 -443 -8l-41 2q-2 0 -2 6z"/>
<glyph unicode="ı" horiz-adv-x="583" d="M43 6q0 194 1 423.5t2.5 514t2.5 445.5h117q104 0 244 8l127 6v-424q0 -248 4.5 -453t9 -320.5t4.5 -146.5q0 -60 -10 -73z"/>
<glyph unicode="Ł" horiz-adv-x="964" d="M-55 702l84 37v25l6 674l495 45l-10 -275l-6 -147q-1 -13 -2 -39t-2 -39l227 117q21 -37 31 -55.5t17.5 -31.5t10.5 -17t5 -6.5t5.5 -6l8.5 -8.5l-309 -156v-53q0 -95 6 -193.5t6 -150.5q61 -5 141.5 -14t134.5 -12t142 -3l8 -409q-128 -11 -625 -11q-286 0 -286 9l-1 14 q0 15 -0.5 41t-1 61.5t-1 82.5t-1 98.5t-1 114.5t-0.5 126v49l-9 -4z"/>
<glyph unicode="ł" horiz-adv-x="1038" d="M-55 702l84 37v25l-2 719h503l-10 -275l-6 -147q-1 -13 -2 -39t-2 -39l227 117q21 -37 31 -55.5t17.5 -31.5t10.5 -17t5 -6.5t5.5 -6l8.5 -8.5l-309 -156v-61q0 -104 6 -217t6 -164q67 2 160 6.5t169.5 7t162.5 2.5l8 -409q-48 -4 -294 -7.5t-405 -3.5q-286 0 -286 9 q0 1 -0.5 75t-1.5 220.5t-2 293.5l-11 -6z"/>
<glyph unicode="Ń" horiz-adv-x="1398" d="M27 10v2q0 1412 16 1428q4 4 68 4q65 0 251.5 -5t241.5 -5q127 0 133 -9q12 -21 90 -336.5t127 -551.5v43q0 122 -6 258.5t-6 140.5l-16 481q440 0 450 -10q2 -2 2 -61q0 -64 -9 -466.5t-9 -615.5q0 -315 -23 -315h-96l-303 8l-213 16q-8 16 -12 47l-191 895 q-49 0 -49 -806v-41q-5 -61 -7 -67q-8 -24 -50 -30q-33 -6 -199 -8q-43 -2 -104 -2h-56q-23 0 -26.5 0.5t-3.5 5.5zM549 1534q0 68 98 264q332 -10 404 -10h12q-139 -166 -225 -287l-271 6q-18 0 -18 27z"/>
<glyph unicode="ń" horiz-adv-x="1390" d="M29 -10q0 1471 14 1485q4 2 12 2q25 0 241.5 -21.5t291.5 -21.5q127 0 133 -9q11 -20 97.5 -376t135.5 -596v57q0 328 -12 469l-33 432q439 0 449 -10q4 -4 4 -141q0 -74 -2 -338.5t-2 -415.5q0 -362 10 -506q-23 -2 -41 -4t-29.5 -3t-31.5 -1h-25l-303 8l-213 16 q-8 16 -12 47l-234 895q0 -49 -3 -400t-3 -449v-142q-20 0 -161.5 7.5t-196.5 7.5h-56q-23 0 -26.5 0.5t-3.5 5.5v2zM569 1516q0 66 99 264q366 -11 403 -11h12q-144 -172 -225 -286l-270 6q-19 0 -19 27z"/>
<glyph unicode="Œ" horiz-adv-x="1740" d="M2 651q0 170 50 330t149 283.5t229 167.5q76 26 188 26q84 0 152 -16v49q31 -8 295 -8q125 0 279.5 1.5t257.5 3.5t116 3l-10 -152l-8 -186q0 -3 -50 -4.5t-157.5 -9.5t-214.5 -25v-106q0 -50 4 -66t14 -18q16 -4 41 -4q69 0 219 12l134 10l-4 -328l-414 -28l-8 -60 q-4 -36 -4 -43q0 -3 1 -13t1 -17l6 -64l219 10q84 4 211 4q14 0 14 -200v-203l-477 -2q-101 -1 -213.5 -2.5t-183.5 -2.5t-93 -1h-14q-2 0 -2 6v6q-73 -20 -168 -20q-114 0 -208 36.5t-158 99t-108.5 148t-64.5 182t-20 201.5zM416 645q0 -72 14 -135q10 -49 44 -75.5 t79 -26.5t87 27t67 77q25 54 42 139.5t17 165.5q0 130 -43 170q-54 51 -107 51q-85 0 -142.5 -118t-57.5 -275z"/>
<glyph unicode="œ" horiz-adv-x="1832" d="M4 668q0 135 25 248.5t66.5 193.5t100.5 142t122 100t135.5 62.5t137 34t130.5 9.5q87 0 168 -18q126 13 501.5 47.5t403.5 36.5l-10 -185l-8 -186q0 -3 -55.5 -4.5t-168 -9.5t-219.5 -25v-106v-111q12 -4 76 -4q40 0 223 14l135 11l-6 -256l-428 -31v-58v-73v-47v-64 l230 10q63 3 119.5 6t84.5 5t31 2q14 0 14 -201v-203l-501 -10q-414 -8 -463 -8l-41 2q-2 0 -2 6v10q-85 -24 -189 -24q-281 0 -440 164t-170 462q-2 18 -2 58zM483 731q0 -141 35 -219q21 -50 63.5 -77t90.5 -27t87 26.5t56 75.5q24 76 29 137q0 19 1 60.5t1 64.5 q-8 114 -54.5 190t-117.5 76q-56 0 -119 -51q-36 -29 -54 -99.5t-18 -156.5z"/>
<glyph unicode="Ś" horiz-adv-x="1286" d="M8 961q0 95 43.5 183.5t120.5 157.5t195 110.5t256 41.5q83 0 160.5 -13t159 -47.5t141.5 -88.5t98.5 -144.5t38.5 -206.5h-435q-10 25 -18.5 40.5t-26.5 35t-47.5 29.5t-70.5 10q-25 0 -41 -2q-56 -6 -87.5 -37t-31.5 -82q0 -48 43.5 -64.5t197.5 -40.5q92 -15 148 -24 q226 -39 322 -132.5t96 -231.5q0 -88 -27.5 -163.5t-72.5 -127.5t-104 -93.5t-119 -66.5t-122 -41.5t-108.5 -22.5t-81.5 -6q-262 0 -416 124t-182 350l-12 73l483 -8q0 -46 49.5 -86.5t110.5 -40.5q66 0 119 38t53 89q0 42 -41 60t-156 32q-14 2 -81 10t-85.5 11t-73 11 t-79 15.5t-64.5 18.5t-69 25t-56 32q-55 36 -91 120t-36 153zM485 1532q0 66 99 264q333 -10 403 -10h12q-139 -166 -225 -287l-270 6q-19 0 -19 27z"/>
<glyph unicode="ś" horiz-adv-x="1263" d="M14 979q0 104 38.5 198t110 167.5t184.5 117t251 43.5q289 0 458 -129t169 -348v-76l-463 -16q0 90 -41 138t-96 48q-127 0 -127 -102q0 -70 40.5 -93.5t206.5 -60.5q266 -56 382 -169.5t116 -321.5q0 -67 -24.5 -130.5t-57.5 -106.5t-75 -81t-69 -55.5t-48 -28.5 q-71 -35 -161.5 -54t-172.5 -19q-120 0 -227 39.5t-188.5 111.5t-129 180.5t-47.5 237.5v43q51 -2 208 -6t247 -12q4 -12 11.5 -38.5t11.5 -37.5t12 -31.5t16.5 -29.5t21 -20t29 -15.5t37.5 -4.5q35 0 59.5 9t37 20t18.5 33t7 35.5t1 40.5q0 39 -22 65.5t-74.5 42t-80.5 20 t-97 12.5q-16 2 -23 3q-32 4 -70 12.5t-92 26t-102 47t-91 68.5t-68.5 98t-25.5 129zM475 1579q0 68 98 264q332 -10 404 -10h12q-139 -166 -225 -287l-270 6q-19 0 -19 27z"/>
<glyph unicode="Ÿ" horiz-adv-x="1150" d="M0 1419l397 11q8 -26 38.5 -129t46.5 -153t39 -122t37.5 -104.5t21.5 -32.5t10 16q3 12 25 117t48.5 233.5t36.5 174.5l451 -21q-217 -642 -322 -891v-119l-6 -409l-213 18l-258 2q0 208 10 443v75q-12 15 -75 147t-151 351.5t-136 392.5zM274 1618q0 59 34 90t89 31 q59 0 85 -37.5t26 -87.5q0 -46 -26 -80.5t-87 -34.5q-50 0 -85.5 30t-35.5 89zM590 1618q0 59 34 90t89 31q58 0 84 -37.5t26 -87.5q0 -46 -25.5 -80.5t-86.5 -34.5q-50 0 -85.5 30t-35.5 89z"/>
<glyph unicode="Ź" horiz-adv-x="964" d="M12 1434q16 -4 406 -4q44 0 142 1t114 1l260 -2l12 -130q4 -39 4 -104l-4 -102l-151 -312q-77 -118 -236 -432h12q359 0 367 2l4 -155v-15q0 -29 -2 -58t-4.5 -50t-5 -38t-4.5 -26l-2 -10q0 -2 -84 -2q-22 0 -158.5 2t-181.5 2l-451 -2q-10 61 -10 141q0 26 4 80l12 129 q9 69 391 613l43 90q-82 -2 -372 -2q-84 0 -84 2zM328 1532q0 68 98 264q332 -10 403 -10h13q-146 -174 -226 -287l-270 6q-18 0 -18 27z"/>
<glyph unicode="ź" horiz-adv-x="999" d="M-2 1284v27l8 176l889 -25l12 -129q4 -39 4 -104l-4 -103q-5 -10 -34.5 -65.5t-74 -135.5t-71.5 -126q-36 -54 -207 -391h12q443 0 451 2l4 -213v-15q0 -29 -2 -58t-4.5 -50t-5 -38t-4.5 -26l-2 -10q0 -2 -168 -2q-22 0 -158.5 2t-181.5 2l-385 -2q-8 63 -8 147 q0 49 2 74l12 180l377 668h-17q-53 0 -188 7t-154 7q-84 0 -84 2l-2 11q-2 12 -4.5 31.5t-5 43.5t-4.5 54.5t-2 58.5zM340 1577q0 68 98 264q327 -10 402 -10h12q-10 -12 -50.5 -61.5t-58.5 -72t-52 -66.5t-64 -87l-271 6q-16 0 -16 27z"/>
<glyph unicode="Ż" horiz-adv-x="964" d="M12 1434q16 -4 406 -4q44 0 142 1t114 1l260 -2l12 -130q4 -39 4 -104l-4 -102l-151 -312q-77 -118 -236 -432h12q359 0 367 2l4 -155v-15q0 -29 -2 -58t-4.5 -50t-5 -38t-4.5 -26l-2 -10q0 -2 -84 -2q-22 0 -158.5 2t-181.5 2l-451 -2q-10 61 -10 141q0 26 4 80l12 129 q9 69 391 613l43 90q-82 -2 -372 -2q-84 0 -84 2zM299 1683q0 93 52.5 142t137.5 49q49 0 85 -18t54.5 -48t27 -62t8.5 -67q0 -32 -8.5 -61.5t-27 -57.5t-55 -44.5t-86.5 -16.5q-78 0 -133 46.5t-55 137.5z"/>
<glyph unicode="ż" horiz-adv-x="999" d="M-2 1284v27l8 176l889 -25l12 -129q4 -39 4 -104l-4 -103q-5 -10 -34.5 -65.5t-74 -135.5t-71.5 -126q-36 -54 -207 -391h12q443 0 451 2l4 -213v-15q0 -29 -2 -58t-4.5 -50t-5 -38t-4.5 -26l-2 -10q0 -2 -168 -2q-22 0 -158.5 2t-181.5 2l-385 -2q-8 63 -8 147 q0 49 2 74l12 180l377 668h-17q-53 0 -188 7t-154 7q-84 0 -84 2l-2 11q-2 12 -4.5 31.5t-5 43.5t-4.5 54.5t-2 58.5zM311 1729q0 93 52.5 141.5t136.5 48.5q50 0 86 -18t54.5 -48t27 -62t8.5 -67q0 -32 -8.5 -61.5t-27 -57.5t-54.5 -44.5t-86 -16.5q-78 0 -133.5 47 t-55.5 138z"/>
<glyph unicode="ƒ" horiz-adv-x="1028" d="M20 -348l3 262q3 -1 14 -5t21.5 -7.5t29 -6.5t37.5 -4q82 0 88 95l57 567h-176l21 283q38 -13 82 -13q28 0 86 4l32 353q15 154 103 217q91 61 311 61q29 0 60 -1t57 -3t50.5 -4t43.5 -4t33.5 -4t22.5 -3l8 -1l4 -254q-21 8 -90 8q-52 -2 -94 -22t-46 -54l-8 -264 l195 -35q-11 -65 -11 -125q0 -33 4 -139h-213l-36 -524q-3 -45 -6.5 -75t-10 -66.5t-16 -60.5t-24.5 -51.5t-35 -45t-48 -36.5t-64.5 -29.5t-82 -20t-103 -13.5t-126.5 -4q-105 3 -173 25z"/>
<glyph unicode="ˆ" horiz-adv-x="802" d="M31 1147q31 49 110 154t95 133l188 -7l199 7q16 -32 75 -136t74 -137h-4q-17 0 -94 -11t-156 -13q-48 71 -92 153l-104 -153q-61 2 -157 6t-124 4h-10z"/>
<glyph unicode="ˇ" horiz-adv-x="802" d="M31 1423h10q27 0 121.5 4.5t159.5 6.5l104 -154q47 87 92 154q79 -2 156 -13.5t94 -11.5h4q-15 -33 -74 -136t-75 -136l-199 6l-188 -6q-16 28 -95 132.5t-110 153.5z"/>
<glyph unicode="˘" horiz-adv-x="473" d="M31 1378v41h139q0 -53 14 -88q18 -43 62 -43q45 0 57 41q14 41 14 86l127 12q0 -100 -57 -174.5t-160 -74.5q-90 0 -140.5 52t-55.5 148z"/>
<glyph unicode="˙" horiz-adv-x="425" d="M31 1217q0 93 52 141.5t138 48.5q49 0 84.5 -18t54 -48t27 -62t8.5 -67q0 -32 -8 -61.5t-26.5 -57.5t-55 -44.5t-86.5 -16.5q-78 0 -133 47t-55 138z"/>
<glyph unicode="˚" horiz-adv-x="473" d="M31 1212v19q0 60 15.5 106t38.5 73t55 44t60.5 23t59.5 6q36 0 64 -8q57 -20 88.5 -79t31.5 -134q0 -64 -23 -119.5t-73.5 -93t-120.5 -37.5q-90 0 -140.5 52t-55.5 148zM170 1251q0 -53 14 -88q18 -41 62 -41q45 0 57 41q14 41 14 86q0 53 -19 89t-50 36q-23 0 -49 -20 q-29 -23 -29 -103z"/>
<glyph unicode="˛" horiz-adv-x="315" d="M31 -143q0 86 51 136t145 56q2 0 20 1t21 1l2 -141q-53 0 -88 -14q-41 -18 -41 -62v-2q3 -43 43 -55q41 -13 78 -13h8l17 -126h-8q-100 0 -172.5 54t-75.5 156v9z"/>
<glyph unicode="˜" horiz-adv-x="778" d="M31 1208q1 6 3 16t10.5 39.5t19 56.5t28.5 59.5t39 56t50.5 39.5t62.5 16q18 0 28 -2q61 -12 104.5 -39.5t60.5 -53t32.5 -45.5t28.5 -20q16 0 30 20.5t20 40.5l7 21l193 -27v-16q0 -102 -77 -181t-159 -79q-64 0 -114 22.5t-73 49t-41.5 49t-25.5 22.5q-9 0 -16 -14.5 t-10 -29.5l-3 -15z"/>
<glyph unicode="˝" horiz-adv-x="1048" d="M31 1194q0 68 98 264q332 -10 403 -10h13q-146 -174 -226 -287l-270 6q-18 0 -18 27zM504 1194q0 68 98 264q332 -10 404 -10h12q-139 -166 -225 -287l-271 6q-18 0 -18 27z"/>
<glyph unicode="–" horiz-adv-x="1107" d="M20 868h148h12l907 9l-20 -336q-189 6 -627 6q-26 0 -98 -1t-121 -1l-186 -4q-6 173 -8 200z"/>
<glyph unicode="—" horiz-adv-x="1644" d="M20 868h148h12l1444 9l-20 -336q-42 1 -543.5 3.5t-620.5 2.5q-26 0 -98 -1t-121 -1l-186 -4q-6 173 -8 200z"/>
<glyph unicode="‘" horiz-adv-x="387" d="M20 821l7 326q69 123 147 283l184 -21q-21 -30 -122 -242l131 -28l-9 -318h-4q-42 0 -114 3t-107 3q-51 0 -113 -6z"/>
<glyph unicode="’" horiz-adv-x="387" d="M20 1057l9 387h4q42 0 114 -3t107 -3q52 0 113 6l-7 -326q-37 -51 -62 -97.5t-49.5 -104.5t-35.5 -80l-184 20q22 31 61.5 101t61.5 116z"/>
<glyph unicode="‚" horiz-adv-x="387" d="M20 23l9 387h4q42 0 114 -3.5t107 -3.5q41 0 113 7l-7 -326q-37 -51 -62 -97.5t-49.5 -104.5t-35.5 -81l-184 21q22 31 61.5 101t61.5 116z"/>
<glyph unicode="“" horiz-adv-x="780" d="M20 821l7 326q69 123 147 283l184 -21q-21 -30 -122 -242l131 -28l-9 -318h-4q-42 0 -114 3t-107 3q-51 0 -113 -6zM418 821l4 326q91 162 147 283l185 -21q-24 -34 -123 -242l131 -28l-8 -318h-4q-42 0 -114 3t-108 3q-48 0 -110 -6z"/>
<glyph unicode="”" horiz-adv-x="792" d="M20 1057l9 387h4q42 0 114 -3t107 -3q52 0 113 6l-7 -326q-37 -51 -62 -97.5t-49.5 -104.5t-35.5 -80l-184 20q22 31 61.5 101t61.5 116zM426 1057l8 387h4q42 0 115 -3t106 -3q53 0 115 6l-8 -326q-37 -50 -62 -98t-48.5 -102.5t-37.5 -81.5l-184 20q60 86 123 217z"/>
<glyph unicode="„" horiz-adv-x="792" d="M20 6l9 387h4q42 0 114 -3t107 -3q52 0 113 6l-7 -325q-37 -51 -62 -97.5t-49.5 -104.5t-35.5 -81l-184 20q21 30 61 100.5t62 117.5zM426 6l8 387h4q42 0 115 -3t106 -3q53 0 115 6l-8 -325q-37 -50 -62 -98t-48.5 -103t-37.5 -82l-184 20q21 30 61 100.5t62 117.5z"/>
<glyph unicode="†" horiz-adv-x="550" d="M25 1257h102h10h13v43v130q122 3 139 4l90 2l-2 -103v-8q0 -36 -2 -63l151 2l-14 -236q-66 4 -137 4v-14l2 -703l-236 19q1 15 2 135.5t2 303t2 259.5l-112 -4q-3 106 -6 141z"/>
<glyph unicode="‡" horiz-adv-x="550" d="M25 965h102h10h10v79l-112 -4q-3 107 -6 142l-4 88h102h10h13v43v129q122 3 139 4l90 2l-2 -102v-9q0 -36 -2 -63l151 2l-14 -236q-66 4 -137 4v-77l145 2l-8 -234q-23 0 -137 4l2 -411l-236 18q1 10 1.5 63.5t1 155.5t1.5 172l-110 -2q-3 104 -6 139z"/>
<glyph unicode="•" horiz-adv-x="841" d="M20 512q0 206 115.5 313t304.5 107q87 0 155 -27t110 -69.5t69.5 -100t38 -114.5t10.5 -117q0 -56 -10 -108t-37.5 -106t-70 -93.5t-112 -65t-159.5 -25.5q-80 0 -152.5 24.5t-132 72t-94.5 127.5t-35 182z"/>
<glyph unicode="…" horiz-adv-x="1216" d="M20 195q0 93 52.5 141.5t138.5 48.5q49 0 84.5 -18t54 -48t27 -62t8.5 -67q0 -32 -8 -61.5t-26.5 -57.5t-55 -44.5t-86.5 -16.5q-78 0 -133.5 47t-55.5 138zM426 195q0 93 52 141.5t138 48.5q49 0 85 -18t54.5 -48t27 -62t8.5 -67q0 -32 -8.5 -61.5t-27 -57.5t-55 -44.5 t-86.5 -16.5q-78 0 -133 47t-55 138zM831 195q0 93 52.5 141.5t138.5 48.5q49 0 84.5 -18t54 -48t27 -62t8.5 -67q0 -32 -8 -61.5t-26.5 -57.5t-55 -44.5t-86.5 -16.5q-78 0 -133.5 47t-55.5 138z"/>
<glyph unicode="‰" horiz-adv-x="2007" d="M10 1106q0 132 58.5 244t156.5 145q30 12 94 12q40 0 77.5 -7.5t78.5 -29.5t70.5 -56.5t49 -93t19.5 -134.5q0 -27 -8 -101q-22 -151 -104 -233t-211 -82q-94 0 -159.5 49t-93.5 123t-28 164zM207 0q2 7 29 72q3 6 21 43.5t40 86t56 127t84.5 202.5t109.5 276l262 676 q62 -4 80 -4q34 0 104 4l119 4h4q21 0 21 -12q0 -5 -4 -21l-283 -731l-29 -76l-145 -405l-88 -242h-381zM217 1102q0 -37 8 -68q4 -25 21.5 -38t40.5 -13q49 0 75 53q31 64 31 152q0 61 -22 86q-27 24 -54 24q-43 0 -71.5 -58.5t-28.5 -137.5zM762 303q0 131 59 243.5 t156 145.5q38 15 94 15q40 0 77.5 -8t78 -30.5t70.5 -57t49.5 -93t19.5 -133.5q0 -47 -6 -102q-22 -150 -105 -232t-213 -82q-93 0 -158 48.5t-93.5 122t-28.5 163.5zM971 299q0 -46 6 -66q4 -25 21 -39t40 -14t43.5 14t32.5 39q31 68 31 152q0 66 -23 86q-25 25 -53 25 q-42 0 -70 -59t-28 -138zM1397 303q0 131 59 243.5t156 145.5q38 15 94 15q40 0 77.5 -8t78 -30.5t70.5 -57t49.5 -93t19.5 -133.5q0 -47 -6 -102q-22 -150 -105 -232t-213 -82q-93 0 -158 48.5t-93.5 122t-28.5 163.5zM1606 299q0 -46 6 -66q4 -25 21 -39t40 -14t43.5 14 t32.5 39q31 68 31 152q0 66 -23 86q-25 25 -53 25q-42 0 -70 -59t-28 -138z"/>
<glyph unicode="‹" horiz-adv-x="956" d="M20 881q0 127 9 133q13 8 124.5 29.5t339 68t445.5 98.5v-430l-16 -4q-11 0 -205 -44t-223 -52q-17 -3 -17 -10q0 -37 461 -109v-395q-154 35 -395 87.5t-367.5 81t-130.5 32.5q-7 7 -16 190t-9 324z"/>
<glyph unicode="›" horiz-adv-x="956" d="M20 166v395q461 72 461 109q0 7 -16 10q-29 8 -223 52t-205 44l-17 4v430q218 -52 445 -98.5t339 -68t126 -29.5q8 -5 8 -133q0 -141 -9 -324t-16 -190q-4 -4 -130.5 -32.5t-367.5 -81t-395 -87.5z"/>
<glyph unicode="⁄" horiz-adv-x="2166" d="M266 0q2 7 29 72q3 6 21 43.5t40 86t56 127t84.5 202.5t109.5 276l262 676q62 -4 80 -4q35 0 105 4l118 4h5q20 0 20 -12q0 -5 -4 -21l-283 -731l-28 -76l-146 -405l-88 -242h-381z"/>
<glyph unicode="€" horiz-adv-x="1251" d="M35 532l22 168h115q0 10 1 29t1 29h-139l26 164h138q20 85 53.5 157t75 123.5t93 92t104 66t110.5 42t111 23t108 6.5q41 0 80.5 -3.5t73.5 -10.5t61.5 -13.5t56 -16.5t43.5 -16t36.5 -15.5t25.5 -10.5l-227 -404q-31 39 -60.5 50.5t-71.5 11.5h-16q-93 0 -151 -76l184 2 l-45 -172h-187q-2 -20 -2 -58h168l-41 -168h-104q2 -8 8 -20q20 -49 97 -76.5t159 -27.5l25 -408q-177 0 -314.5 28.5t-225.5 77t-145 117.5t-80.5 144.5t-23.5 164.5h-143z"/>
<glyph unicode="™" horiz-adv-x="2215" d="M14 1518q1 0 4.5 -0.5t11 -1t19.5 -0.5q11 0 88 0.5t238 1t375 0.5h143l-8 -152q-3 -45 -5.5 -71.5t-3.5 -30.5l-2 -4q0 -5 -20 -5q-4 0 -65 2.5t-121 2.5h-33h-35v-121q0 -114 5 -260t5 -240q0 -21 -1 -48t-1 -32l-377 21q7 135 16 262t13 187.5t4 84.5v14v91 q-86 -2 -141 -2q-90 0 -90 2q0 12 -8 145zM932 588l16 448q0 76 -1 189t-1 145q0 88 4 92t68 4q65 0 157.5 -5t147.5 -5q128 0 133 -8q6 -10 11.5 -52t23 -156t47.5 -253q66 313 66 471v6q0 3 12 7.5t37.5 8t56.5 3.5q465 0 475 -10q2 -2 2 -15q0 -8 -13 -189t-13 -319 q0 -191 26 -344q-27 -2 -46.5 -4t-35 -3t-47.5 -1q-53 -2 -100.5 -5t-74.5 -5t-38 -2q-22 0 -22 10q0 5 9.5 26.5t18.5 61t9 88.5q0 130 -6 274t-17 144q-20 0 -97 -219.5t-100 -345.5l-118 -13l-121 -14q-8 16 -12 49l-97 475q-18 0 -30.5 -107.5t-15.5 -214.5l-3 -108 q-2 -32 -8 -49t-23.5 -29.5t-46 -16.5t-80 -6t-121.5 -3h-32z"/>
<glyph unicode="◼" horiz-adv-x="1474" d="M0 0v1475h1475v-1475h-1475z"/>
</font>
</defs>
</svg>
